<?xml version="1.0" encoding="utf-8" standalone="no"?>
<!DOCTYPE svg PUBLIC "-//W3C//DTD SVG 1.1//EN"
  "http://www.w3.org/Graphics/SVG/1.1/DTD/svg11.dtd">
<svg xmlns:xlink="http://www.w3.org/1999/xlink" width="216pt" height="144pt" viewBox="0 0 216 144" xmlns="http://www.w3.org/2000/svg" version="1.1">
 <metadata>
  <rdf:RDF xmlns:dc="http://purl.org/dc/elements/1.1/" xmlns:cc="http://creativecommons.org/ns#" xmlns:rdf="http://www.w3.org/1999/02/22-rdf-syntax-ns#">
   <cc:Work>
    <dc:type rdf:resource="http://purl.org/dc/dcmitype/StillImage"/>
    <dc:date>2026-01-22T08:13:32.229653</dc:date>
    <dc:format>image/svg+xml</dc:format>
    <dc:creator>
     <cc:Agent>
      <dc:title>Matplotlib v3.10.5, https://matplotlib.org/</dc:title>
     </cc:Agent>
    </dc:creator>
   </cc:Work>
  </rdf:RDF>
 </metadata>
 <defs>
  <style type="text/css">*{stroke-linejoin: round; stroke-linecap: butt}</style>
 </defs>
 <g id="figure_1">
  <g id="patch_1">
   <path d="M 0 144 
L 216 144 
L 216 0 
L 0 0 
z
" style="fill: #ffffff"/>
  </g>
  <g id="axes_1">
   <g id="patch_2">
    <path d="M 28.39 99.36 
L 207.36 99.36 
L 207.36 21.64 
L 28.39 21.64 
z
" style="fill: #ffffff"/>
   </g>
   <g id="patch_3">
    <path d="M 50.76125 99.36 
L 95.50375 99.36 
L 95.50375 91.36382 
L 50.76125 91.36382 
z
" clip-path="url(#p513f5a6829)" style="fill: #1f77b4"/>
   </g>
   <g id="patch_4">
    <path d="M 140.24625 99.36 
L 184.98875 99.36 
L 184.98875 81.82985 
L 140.24625 81.82985 
z
" clip-path="url(#p513f5a6829)" style="fill: #1f77b4"/>
   </g>
   <g id="patch_5">
    <path d="M 50.76125 91.36382 
L 95.50375 91.36382 
L 95.50375 83.908855 
L 50.76125 83.908855 
z
" clip-path="url(#p513f5a6829)" style="fill: #ff7f0e"/>
   </g>
   <g id="patch_6">
    <path d="M 140.24625 81.82985 
L 184.98875 81.82985 
L 184.98875 78.357623 
L 140.24625 78.357623 
z
" clip-path="url(#p513f5a6829)" style="fill: #ff7f0e"/>
   </g>
   <g id="patch_7">
    <path d="M 50.76125 83.908855 
L 95.50375 83.908855 
L 95.50375 58.466466 
L 50.76125 58.466466 
z
" clip-path="url(#p513f5a6829)" style="fill: #2ca02c"/>
   </g>
   <g id="patch_8">
    <path d="M 140.24625 78.357623 
L 184.98875 78.357623 
L 184.98875 75.601888 
L 140.24625 75.601888 
z
" clip-path="url(#p513f5a6829)" style="fill: #2ca02c"/>
   </g>
   <g id="patch_9">
    <path d="M 50.76125 58.466466 
L 95.50375 58.466466 
L 95.50375 56.195487 
L 50.76125 56.195487 
z
" clip-path="url(#p513f5a6829)" style="fill: #d62728"/>
   </g>
   <g id="patch_10">
    <path d="M 140.24625 75.601888 
L 184.98875 75.601888 
L 184.98875 57.289109 
L 140.24625 57.289109 
z
" clip-path="url(#p513f5a6829)" style="fill: #d62728"/>
   </g>
   <g id="patch_11">
    <path d="M 50.76125 56.195487 
L 95.50375 56.195487 
L 95.50375 55.086528 
L 50.76125 55.086528 
z
" clip-path="url(#p513f5a6829)" style="fill: #9467bd"/>
   </g>
   <g id="patch_12">
    <path d="M 140.24625 57.289109 
L 184.98875 57.289109 
L 184.98875 40.600377 
L 140.24625 40.600377 
z
" clip-path="url(#p513f5a6829)" style="fill: #9467bd"/>
   </g>
   <g id="patch_13">
    <path d="M 50.76125 55.086528 
L 95.50375 55.086528 
L 95.50375 37.396241 
L 50.76125 37.396241 
z
" clip-path="url(#p513f5a6829)" style="fill: #8c564b"/>
   </g>
   <g id="patch_14">
    <path d="M 140.24625 40.600377 
L 184.98875 40.600377 
L 184.98875 31.579937 
L 140.24625 31.579937 
z
" clip-path="url(#p513f5a6829)" style="fill: #8c564b"/>
   </g>
   <g id="patch_15">
    <path d="M 50.76125 37.396241 
L 95.50375 37.396241 
L 95.50375 25.340952 
L 50.76125 25.340952 
z
" clip-path="url(#p513f5a6829)" style="fill: #e377c2"/>
   </g>
   <g id="patch_16">
    <path d="M 140.24625 31.579937 
L 184.98875 31.579937 
L 184.98875 25.340952 
L 140.24625 25.340952 
z
" clip-path="url(#p513f5a6829)" style="fill: #e377c2"/>
   </g>
   <g id="matplotlib.axis_1">
    <g id="xtick_1">
     <g id="line2d_1">
      <defs>
       <path id="md8d39ce276" d="M 0 0 
L 0 3.5 
" style="stroke: #000000; stroke-width: 0.8"/>
      </defs>
      <g>
       <use xlink:href="#md8d39ce276" x="73.1325" y="99.36" style="stroke: #000000; stroke-width: 0.8"/>
      </g>
     </g>
     <g id="text_1">
      <!-- GC -->
      <g transform="translate(75.34 118.145) rotate(-90) scale(0.08 -0.08)">
       <defs>
        <path id="DejaVuSans-Oblique-47" d="M 3494 697 
L 3738 1919 
L 2700 1919 
L 2797 2438 
L 4453 2438 
L 4050 384 
Q 3634 156 3143 32 
Q 2653 -91 2156 -91 
Q 1278 -91 783 396 
Q 288 884 288 1753 
Q 288 2475 589 3126 
Q 891 3778 1422 4213 
Q 1756 4484 2153 4617 
Q 2550 4750 3034 4750 
Q 3472 4750 3873 4639 
Q 4275 4528 4641 4306 
L 4513 3634 
Q 4231 3928 3853 4083 
Q 3475 4238 3047 4238 
Q 2550 4238 2172 4048 
Q 1794 3859 1497 3463 
Q 1244 3125 1098 2667 
Q 953 2209 953 1734 
Q 953 1081 1287 751 
Q 1622 422 2284 422 
Q 2616 422 2925 492 
Q 3234 563 3494 697 
z
" transform="scale(0.015625)"/>
        <path id="DejaVuSans-Oblique-43" d="M 4447 4306 
L 4319 3641 
Q 4019 3944 3683 4091 
Q 3347 4238 2956 4238 
Q 2422 4238 2017 3981 
Q 1613 3725 1319 3200 
Q 1131 2863 1032 2486 
Q 934 2109 934 1728 
Q 934 1091 1264 756 
Q 1594 422 2222 422 
Q 2656 422 3056 561 
Q 3456 700 3834 978 
L 3688 231 
Q 3316 72 2936 -9 
Q 2556 -91 2175 -91 
Q 1278 -91 773 396 
Q 269 884 269 1753 
Q 269 2309 461 2846 
Q 653 3384 1013 3828 
Q 1394 4300 1883 4525 
Q 2372 4750 3022 4750 
Q 3422 4750 3780 4639 
Q 4138 4528 4447 4306 
z
" transform="scale(0.015625)"/>
       </defs>
       <use xlink:href="#DejaVuSans-Oblique-47"/>
       <use xlink:href="#DejaVuSans-Oblique-43" transform="translate(77.490234 0)"/>
      </g>
     </g>
    </g>
    <g id="xtick_2">
     <g id="line2d_2">
      <g>
       <use xlink:href="#md8d39ce276" x="162.6175" y="99.36" style="stroke: #000000; stroke-width: 0.8"/>
      </g>
     </g>
     <g id="text_2">
      <!-- Kon -->
      <g transform="translate(164.825 121.28125) rotate(-90) scale(0.08 -0.08)">
       <defs>
        <path id="DejaVuSans-Oblique-4b" d="M 1081 4666 
L 1716 4666 
L 1331 2700 
L 3781 4666 
L 4622 4666 
L 1850 2438 
L 3878 0 
L 3109 0 
L 1247 2272 
L 806 0 
L 172 0 
L 1081 4666 
z
" transform="scale(0.015625)"/>
        <path id="DejaVuSans-Oblique-6f" d="M 1625 -91 
Q 1009 -91 651 289 
Q 294 669 294 1325 
Q 294 1706 417 2101 
Q 541 2497 738 2766 
Q 1047 3184 1428 3384 
Q 1809 3584 2291 3584 
Q 2888 3584 3255 3212 
Q 3622 2841 3622 2241 
Q 3622 1825 3500 1412 
Q 3378 1000 3181 728 
Q 2875 309 2494 109 
Q 2113 -91 1625 -91 
z
M 891 1344 
Q 891 869 1089 633 
Q 1288 397 1691 397 
Q 2269 397 2648 901 
Q 3028 1406 3028 2181 
Q 3028 2634 2825 2865 
Q 2622 3097 2228 3097 
Q 1903 3097 1650 2945 
Q 1397 2794 1197 2484 
Q 1050 2253 970 1956 
Q 891 1659 891 1344 
z
" transform="scale(0.015625)"/>
        <path id="DejaVuSans-Oblique-6e" d="M 3566 2113 
L 3156 0 
L 2578 0 
L 2988 2091 
Q 3016 2238 3031 2350 
Q 3047 2463 3047 2528 
Q 3047 2791 2881 2937 
Q 2716 3084 2419 3084 
Q 1956 3084 1622 2776 
Q 1288 2469 1184 1941 
L 800 0 
L 225 0 
L 903 3500 
L 1478 3500 
L 1363 2950 
Q 1603 3253 1940 3418 
Q 2278 3584 2650 3584 
Q 3113 3584 3367 3334 
Q 3622 3084 3622 2631 
Q 3622 2519 3608 2391 
Q 3594 2263 3566 2113 
z
" transform="scale(0.015625)"/>
       </defs>
       <use xlink:href="#DejaVuSans-Oblique-4b"/>
       <use xlink:href="#DejaVuSans-Oblique-6f" transform="translate(61.951172 0)"/>
       <use xlink:href="#DejaVuSans-Oblique-6e" transform="translate(123.132812 0)"/>
      </g>
     </g>
    </g>
    <g id="text_3">
     <!-- Site -->
     <g transform="translate(108.275 132.879687) scale(0.1 -0.1)">
      <defs>
       <path id="DejaVuSans-Oblique-53" d="M 3859 4513 
L 3738 3897 
Q 3422 4066 3111 4152 
Q 2800 4238 2509 4238 
Q 1944 4238 1609 3991 
Q 1275 3744 1275 3334 
Q 1275 3109 1398 2989 
Q 1522 2869 2034 2731 
L 2413 2638 
Q 3053 2472 3303 2217 
Q 3553 1963 3553 1503 
Q 3553 797 2998 353 
Q 2444 -91 1538 -91 
Q 1166 -91 791 -17 
Q 416 56 38 206 
L 166 856 
Q 513 641 861 531 
Q 1209 422 1556 422 
Q 2147 422 2503 684 
Q 2859 947 2859 1369 
Q 2859 1650 2717 1795 
Q 2575 1941 2106 2059 
L 1728 2156 
Q 1081 2325 845 2545 
Q 609 2766 609 3163 
Q 609 3859 1145 4304 
Q 1681 4750 2541 4750 
Q 2875 4750 3203 4690 
Q 3531 4631 3859 4513 
z
" transform="scale(0.015625)"/>
       <path id="DejaVuSans-Oblique-69" d="M 1172 4863 
L 1747 4863 
L 1606 4134 
L 1031 4134 
L 1172 4863 
z
M 909 3500 
L 1484 3500 
L 800 0 
L 225 0 
L 909 3500 
z
" transform="scale(0.015625)"/>
       <path id="DejaVuSans-Oblique-74" d="M 2706 3500 
L 2619 3053 
L 1472 3053 
L 1100 1153 
Q 1081 1047 1072 975 
Q 1063 903 1063 863 
Q 1063 663 1183 572 
Q 1303 481 1569 481 
L 2150 481 
L 2053 0 
L 1503 0 
Q 991 0 739 200 
Q 488 400 488 806 
Q 488 878 497 964 
Q 506 1050 525 1153 
L 897 3053 
L 409 3053 
L 500 3500 
L 978 3500 
L 1172 4494 
L 1747 4494 
L 1556 3500 
L 2706 3500 
z
" transform="scale(0.015625)"/>
       <path id="DejaVuSans-Oblique-65" d="M 3078 2063 
Q 3088 2113 3092 2166 
Q 3097 2219 3097 2272 
Q 3097 2653 2873 2875 
Q 2650 3097 2266 3097 
Q 1838 3097 1509 2826 
Q 1181 2556 1013 2059 
L 3078 2063 
z
M 3578 1613 
L 903 1613 
Q 884 1494 878 1425 
Q 872 1356 872 1306 
Q 872 872 1139 634 
Q 1406 397 1894 397 
Q 2269 397 2603 481 
Q 2938 566 3225 728 
L 3116 159 
Q 2806 34 2476 -28 
Q 2147 -91 1806 -91 
Q 1078 -91 686 257 
Q 294 606 294 1247 
Q 294 1794 489 2264 
Q 684 2734 1063 3103 
Q 1306 3334 1642 3459 
Q 1978 3584 2356 3584 
Q 2950 3584 3301 3228 
Q 3653 2872 3653 2272 
Q 3653 2128 3634 1964 
Q 3616 1800 3578 1613 
z
" transform="scale(0.015625)"/>
      </defs>
      <use xlink:href="#DejaVuSans-Oblique-53"/>
      <use xlink:href="#DejaVuSans-Oblique-69" transform="translate(63.476562 0)"/>
      <use xlink:href="#DejaVuSans-Oblique-74" transform="translate(91.259766 0)"/>
      <use xlink:href="#DejaVuSans-Oblique-65" transform="translate(130.46875 0)"/>
     </g>
    </g>
   </g>
   <g id="matplotlib.axis_2">
    <g id="ytick_1">
     <g id="line2d_3">
      <defs>
       <path id="m6eea893da4" d="M 0 0 
L -3.5 0 
" style="stroke: #000000; stroke-width: 0.8"/>
      </defs>
      <g>
       <use xlink:href="#m6eea893da4" x="28.39" y="99.36" style="stroke: #000000; stroke-width: 0.8"/>
      </g>
     </g>
     <g id="text_4">
      <!-- 0.0 -->
      <g transform="translate(8.6675 102.399375) scale(0.08 -0.08)">
       <defs>
        <path id="DejaVuSans-Oblique-30" d="M 2444 4750 
Q 3078 4750 3414 4328 
Q 3750 3906 3750 3116 
Q 3750 2516 3592 1923 
Q 3434 1331 3150 863 
Q 2859 394 2467 151 
Q 2075 -91 1600 -91 
Q 988 -91 653 334 
Q 319 759 319 1544 
Q 319 2138 480 2733 
Q 641 3328 928 3794 
Q 1216 4263 1602 4506 
Q 1988 4750 2444 4750 
z
M 2406 4250 
Q 2169 4250 1955 4123 
Q 1741 3997 1569 3750 
Q 1281 3338 1111 2720 
Q 941 2103 941 1453 
Q 941 938 1123 673 
Q 1306 409 1663 409 
Q 1913 409 2125 536 
Q 2338 663 2509 909 
Q 2794 1319 2961 1936 
Q 3128 2553 3128 3206 
Q 3128 3722 2945 3986 
Q 2763 4250 2406 4250 
z
" transform="scale(0.015625)"/>
        <path id="DejaVuSans-Oblique-2e" d="M 525 794 
L 1184 794 
L 1031 0 
L 372 0 
L 525 794 
z
" transform="scale(0.015625)"/>
       </defs>
       <use xlink:href="#DejaVuSans-Oblique-30"/>
       <use xlink:href="#DejaVuSans-Oblique-2e" transform="translate(63.623047 0)"/>
       <use xlink:href="#DejaVuSans-Oblique-30" transform="translate(95.410156 0)"/>
      </g>
     </g>
    </g>
    <g id="ytick_2">
     <g id="line2d_4">
      <g>
       <use xlink:href="#m6eea893da4" x="28.39" y="62.350476" style="stroke: #000000; stroke-width: 0.8"/>
      </g>
     </g>
     <g id="text_5">
      <!-- 0.5 -->
      <g transform="translate(8.6675 65.389851) scale(0.08 -0.08)">
       <defs>
        <path id="DejaVuSans-Oblique-35" d="M 3719 4666 
L 3622 4141 
L 1691 4141 
L 1466 2988 
Q 1609 3034 1757 3056 
Q 1906 3078 2059 3078 
Q 2706 3078 3081 2731 
Q 3456 2384 3456 1791 
Q 3456 1375 3264 994 
Q 3072 613 2719 325 
Q 2469 125 2108 17 
Q 1747 -91 1319 -91 
Q 1038 -91 744 -41 
Q 450 9 128 109 
L 244 697 
Q 531 556 820 486 
Q 1109 416 1403 416 
Q 2013 416 2411 781 
Q 2809 1147 2809 1697 
Q 2809 2103 2548 2328 
Q 2288 2553 1819 2553 
Q 1572 2553 1305 2495 
Q 1038 2438 756 2322 
L 1209 4666 
L 3719 4666 
z
" transform="scale(0.015625)"/>
       </defs>
       <use xlink:href="#DejaVuSans-Oblique-30"/>
       <use xlink:href="#DejaVuSans-Oblique-2e" transform="translate(63.623047 0)"/>
       <use xlink:href="#DejaVuSans-Oblique-35" transform="translate(95.410156 0)"/>
      </g>
     </g>
    </g>
    <g id="ytick_3">
     <g id="line2d_5">
      <g>
       <use xlink:href="#m6eea893da4" x="28.39" y="25.340952" style="stroke: #000000; stroke-width: 0.8"/>
      </g>
     </g>
     <g id="text_6">
      <!-- 1.0 -->
      <g transform="translate(8.6675 28.380327) scale(0.08 -0.08)">
       <defs>
        <path id="DejaVuSans-Oblique-31" d="M 416 531 
L 1447 531 
L 2144 4122 
L 978 3897 
L 1088 4441 
L 2247 4666 
L 2881 4666 
L 2075 531 
L 3103 531 
L 3003 0 
L 313 0 
L 416 531 
z
" transform="scale(0.015625)"/>
       </defs>
       <use xlink:href="#DejaVuSans-Oblique-31"/>
       <use xlink:href="#DejaVuSans-Oblique-2e" transform="translate(63.623047 0)"/>
       <use xlink:href="#DejaVuSans-Oblique-30" transform="translate(95.410156 0)"/>
      </g>
     </g>
    </g>
   </g>
   <g id="patch_17">
    <path d="M 28.39 99.36 
L 28.39 21.64 
" style="fill: none; stroke: #000000; stroke-width: 0.8; stroke-linejoin: miter; stroke-linecap: square"/>
   </g>
   <g id="patch_18">
    <path d="M 207.36 99.36 
L 207.36 21.64 
" style="fill: none; stroke: #000000; stroke-width: 0.8; stroke-linejoin: miter; stroke-linecap: square"/>
   </g>
   <g id="patch_19">
    <path d="M 28.39 99.36 
L 207.36 99.36 
" style="fill: none; stroke: #000000; stroke-width: 0.8; stroke-linejoin: miter; stroke-linecap: square"/>
   </g>
   <g id="patch_20">
    <path d="M 28.39 21.64 
L 207.36 21.64 
" style="fill: none; stroke: #000000; stroke-width: 0.8; stroke-linejoin: miter; stroke-linecap: square"/>
   </g>
   <g id="text_7">
    <!-- Cluster frequency by Site -->
    <g transform="translate(67.12625 15.64) scale(0.08 -0.08)">
     <defs>
      <path id="DejaVuSans-Oblique-6c" d="M 1172 4863 
L 1747 4863 
L 800 0 
L 225 0 
L 1172 4863 
z
" transform="scale(0.015625)"/>
      <path id="DejaVuSans-Oblique-75" d="M 428 1388 
L 838 3500 
L 1416 3500 
L 1006 1409 
Q 975 1256 961 1147 
Q 947 1038 947 966 
Q 947 700 1109 554 
Q 1272 409 1569 409 
Q 2031 409 2368 721 
Q 2706 1034 2809 1563 
L 3194 3500 
L 3769 3500 
L 3091 0 
L 2516 0 
L 2631 550 
Q 2388 244 2052 76 
Q 1716 -91 1338 -91 
Q 878 -91 622 161 
Q 366 413 366 863 
Q 366 956 381 1097 
Q 397 1238 428 1388 
z
" transform="scale(0.015625)"/>
      <path id="DejaVuSans-Oblique-73" d="M 3200 3397 
L 3091 2853 
Q 2863 2978 2609 3040 
Q 2356 3103 2088 3103 
Q 1634 3103 1373 2948 
Q 1113 2794 1113 2528 
Q 1113 2219 1719 2053 
Q 1766 2041 1788 2034 
L 1972 1978 
Q 2547 1819 2739 1644 
Q 2931 1469 2931 1166 
Q 2931 609 2489 259 
Q 2047 -91 1331 -91 
Q 1053 -91 747 -37 
Q 441 16 72 128 
L 184 722 
Q 500 559 806 475 
Q 1113 391 1394 391 
Q 1816 391 2080 572 
Q 2344 753 2344 1031 
Q 2344 1331 1650 1516 
L 1591 1531 
L 1394 1581 
Q 956 1697 753 1886 
Q 550 2075 550 2369 
Q 550 2928 970 3256 
Q 1391 3584 2113 3584 
Q 2397 3584 2667 3537 
Q 2938 3491 3200 3397 
z
" transform="scale(0.015625)"/>
      <path id="DejaVuSans-Oblique-72" d="M 2853 2969 
Q 2766 3016 2653 3041 
Q 2541 3066 2413 3066 
Q 1953 3066 1609 2717 
Q 1266 2369 1153 1784 
L 800 0 
L 225 0 
L 909 3500 
L 1484 3500 
L 1375 2956 
Q 1603 3259 1920 3421 
Q 2238 3584 2597 3584 
Q 2691 3584 2781 3573 
Q 2872 3563 2963 3538 
L 2853 2969 
z
" transform="scale(0.015625)"/>
      <path id="DejaVuSans-Oblique-20" transform="scale(0.015625)"/>
      <path id="DejaVuSans-Oblique-66" d="M 3059 4863 
L 2969 4384 
L 2419 4384 
Q 2106 4384 1964 4261 
Q 1822 4138 1753 3809 
L 1691 3500 
L 2638 3500 
L 2553 3053 
L 1606 3053 
L 1013 0 
L 434 0 
L 1031 3053 
L 481 3053 
L 563 3500 
L 1113 3500 
L 1159 3744 
Q 1278 4363 1576 4613 
Q 1875 4863 2516 4863 
L 3059 4863 
z
" transform="scale(0.015625)"/>
      <path id="DejaVuSans-Oblique-71" d="M 2669 525 
Q 2438 222 2123 65 
Q 1809 -91 1428 -91 
Q 897 -91 595 267 
Q 294 625 294 1253 
Q 294 1759 480 2231 
Q 666 2703 1013 3078 
Q 1238 3322 1530 3453 
Q 1822 3584 2144 3584 
Q 2531 3584 2781 3431 
Q 3031 3278 3144 2969 
L 3244 3494 
L 3822 3494 
L 2888 -1319 
L 2309 -1319 
L 2669 525 
z
M 891 1338 
Q 891 875 1084 633 
Q 1278 391 1644 391 
Q 2188 391 2572 911 
Q 2956 1431 2956 2175 
Q 2956 2625 2757 2864 
Q 2559 3103 2188 3103 
Q 1916 3103 1684 2976 
Q 1453 2850 1281 2606 
Q 1100 2350 995 2006 
Q 891 1663 891 1338 
z
" transform="scale(0.015625)"/>
      <path id="DejaVuSans-Oblique-63" d="M 3431 3366 
L 3316 2797 
Q 3109 2947 2876 3022 
Q 2644 3097 2394 3097 
Q 2119 3097 1870 3000 
Q 1622 2903 1453 2725 
Q 1184 2453 1037 2087 
Q 891 1722 891 1331 
Q 891 859 1127 628 
Q 1363 397 1844 397 
Q 2081 397 2348 469 
Q 2616 541 2906 684 
L 2797 116 
Q 2547 13 2283 -39 
Q 2019 -91 1741 -91 
Q 1044 -91 669 257 
Q 294 606 294 1253 
Q 294 1797 489 2255 
Q 684 2713 1069 3078 
Q 1331 3328 1684 3456 
Q 2038 3584 2456 3584 
Q 2700 3584 2940 3529 
Q 3181 3475 3431 3366 
z
" transform="scale(0.015625)"/>
      <path id="DejaVuSans-Oblique-79" d="M 1588 -325 
Q 1188 -997 936 -1164 
Q 684 -1331 294 -1331 
L -159 -1331 
L -63 -850 
L 269 -850 
Q 509 -850 678 -719 
Q 847 -588 1056 -206 
L 1234 128 
L 459 3500 
L 1069 3500 
L 1650 819 
L 3256 3500 
L 3859 3500 
L 1588 -325 
z
" transform="scale(0.015625)"/>
      <path id="DejaVuSans-Oblique-62" d="M 3169 2138 
Q 3169 2591 2961 2847 
Q 2753 3103 2388 3103 
Q 2122 3103 1889 2973 
Q 1656 2844 1484 2597 
Q 1303 2338 1198 1995 
Q 1094 1653 1094 1313 
Q 1094 881 1298 636 
Q 1503 391 1863 391 
Q 2134 391 2365 517 
Q 2597 644 2772 891 
Q 2950 1147 3059 1487 
Q 3169 1828 3169 2138 
z
M 1381 2969 
Q 1594 3256 1914 3420 
Q 2234 3584 2584 3584 
Q 3122 3584 3439 3221 
Q 3756 2859 3756 2241 
Q 3756 1734 3570 1259 
Q 3384 784 3041 416 
Q 2816 172 2522 40 
Q 2228 -91 1906 -91 
Q 1566 -91 1316 65 
Q 1066 222 909 531 
L 806 0 
L 231 0 
L 1178 4863 
L 1753 4863 
L 1381 2969 
z
" transform="scale(0.015625)"/>
     </defs>
     <use xlink:href="#DejaVuSans-Oblique-43"/>
     <use xlink:href="#DejaVuSans-Oblique-6c" transform="translate(69.824219 0)"/>
     <use xlink:href="#DejaVuSans-Oblique-75" transform="translate(97.607422 0)"/>
     <use xlink:href="#DejaVuSans-Oblique-73" transform="translate(160.986328 0)"/>
     <use xlink:href="#DejaVuSans-Oblique-74" transform="translate(213.085938 0)"/>
     <use xlink:href="#DejaVuSans-Oblique-65" transform="translate(252.294922 0)"/>
     <use xlink:href="#DejaVuSans-Oblique-72" transform="translate(313.818359 0)"/>
     <use xlink:href="#DejaVuSans-Oblique-20" transform="translate(354.931641 0)"/>
     <use xlink:href="#DejaVuSans-Oblique-66" transform="translate(386.71875 0)"/>
     <use xlink:href="#DejaVuSans-Oblique-72" transform="translate(421.923828 0)"/>
     <use xlink:href="#DejaVuSans-Oblique-65" transform="translate(463.037109 0)"/>
     <use xlink:href="#DejaVuSans-Oblique-71" transform="translate(524.560547 0)"/>
     <use xlink:href="#DejaVuSans-Oblique-75" transform="translate(588.037109 0)"/>
     <use xlink:href="#DejaVuSans-Oblique-65" transform="translate(651.416016 0)"/>
     <use xlink:href="#DejaVuSans-Oblique-6e" transform="translate(712.939453 0)"/>
     <use xlink:href="#DejaVuSans-Oblique-63" transform="translate(776.318359 0)"/>
     <use xlink:href="#DejaVuSans-Oblique-79" transform="translate(831.298828 0)"/>
     <use xlink:href="#DejaVuSans-Oblique-20" transform="translate(890.478516 0)"/>
     <use xlink:href="#DejaVuSans-Oblique-62" transform="translate(922.265625 0)"/>
     <use xlink:href="#DejaVuSans-Oblique-79" transform="translate(985.742188 0)"/>
     <use xlink:href="#DejaVuSans-Oblique-20" transform="translate(1044.921875 0)"/>
     <use xlink:href="#DejaVuSans-Oblique-53" transform="translate(1076.708984 0)"/>
     <use xlink:href="#DejaVuSans-Oblique-69" transform="translate(1140.185547 0)"/>
     <use xlink:href="#DejaVuSans-Oblique-74" transform="translate(1167.96875 0)"/>
     <use xlink:href="#DejaVuSans-Oblique-65" transform="translate(1207.177734 0)"/>
    </g>
   </g>
   <g id="legend_1">
    <g id="patch_21">
     <path d="M 102.53 95.36 
L 133.22 95.36 
Q 134.82 95.36 134.82 93.76 
L 134.82 12.3625 
Q 134.82 10.7625 133.22 10.7625 
L 102.53 10.7625 
Q 100.93 10.7625 100.93 12.3625 
L 100.93 93.76 
Q 100.93 95.36 102.53 95.36 
z
" style="fill: #ffffff; opacity: 0.8; stroke: #cccccc; stroke-linejoin: miter"/>
    </g>
    <g id="patch_22">
     <path d="M 104.13 20.04125 
L 120.13 20.04125 
L 120.13 14.44125 
L 104.13 14.44125 
z
" style="fill: #1f77b4"/>
    </g>
    <g id="text_8">
     <!-- 1 -->
     <g transform="translate(126.53 20.04125) scale(0.08 -0.08)">
      <use xlink:href="#DejaVuSans-Oblique-31"/>
     </g>
    </g>
    <g id="patch_23">
     <path d="M 104.13 31.78375 
L 120.13 31.78375 
L 120.13 26.18375 
L 104.13 26.18375 
z
" style="fill: #ff7f0e"/>
    </g>
    <g id="text_9">
     <!-- 2 -->
     <g transform="translate(126.53 31.78375) scale(0.08 -0.08)">
      <defs>
       <path id="DejaVuSans-Oblique-32" d="M 2950 2253 
L 934 525 
L 3163 525 
L 3053 0 
L 25 0 
L 128 531 
L 2234 2338 
Q 2656 2703 2832 2979 
Q 3009 3256 3009 3547 
Q 3009 3850 2796 4040 
Q 2584 4231 2241 4231 
Q 1944 4231 1581 4125 
Q 1219 4019 806 3816 
L 922 4441 
Q 1309 4594 1662 4672 
Q 2016 4750 2316 4750 
Q 2928 4750 3301 4425 
Q 3675 4100 3675 3572 
Q 3675 3216 3497 2892 
Q 3319 2569 2950 2253 
z
" transform="scale(0.015625)"/>
      </defs>
      <use xlink:href="#DejaVuSans-Oblique-32"/>
     </g>
    </g>
    <g id="patch_24">
     <path d="M 104.13 43.52625 
L 120.13 43.52625 
L 120.13 37.92625 
L 104.13 37.92625 
z
" style="fill: #2ca02c"/>
    </g>
    <g id="text_10">
     <!-- 3 -->
     <g transform="translate(126.53 43.52625) scale(0.08 -0.08)">
      <defs>
       <path id="DejaVuSans-Oblique-33" d="M 1013 4550 
Q 1356 4650 1679 4700 
Q 2003 4750 2316 4750 
Q 2934 4750 3296 4475 
Q 3659 4200 3659 3738 
Q 3659 3284 3373 2959 
Q 3088 2634 2584 2516 
Q 2978 2403 3162 2165 
Q 3347 1928 3347 1538 
Q 3347 1163 3167 834 
Q 2988 506 2650 269 
Q 2394 88 2037 -1 
Q 1681 -91 1216 -91 
Q 922 -91 622 -33 
Q 322 25 13 141 
L 128 738 
Q 422 575 720 495 
Q 1019 416 1331 416 
Q 1947 416 2330 733 
Q 2713 1050 2713 1556 
Q 2713 1881 2469 2057 
Q 2225 2234 1772 2234 
L 1228 2234 
L 1325 2747 
L 1900 2747 
Q 2419 2747 2717 2984 
Q 3016 3222 3016 3628 
Q 3016 3922 2797 4083 
Q 2578 4244 2181 4244 
Q 1881 4244 1567 4180 
Q 1253 4116 916 3988 
L 1013 4550 
z
" transform="scale(0.015625)"/>
      </defs>
      <use xlink:href="#DejaVuSans-Oblique-33"/>
     </g>
    </g>
    <g id="patch_25">
     <path d="M 104.13 55.26875 
L 120.13 55.26875 
L 120.13 49.66875 
L 104.13 49.66875 
z
" style="fill: #d62728"/>
    </g>
    <g id="text_11">
     <!-- 4 -->
     <g transform="translate(126.53 55.26875) scale(0.08 -0.08)">
      <defs>
       <path id="DejaVuSans-Oblique-34" d="M 2753 4666 
L 3547 4666 
L 2950 1625 
L 3616 1625 
L 3513 1100 
L 2847 1100 
L 2638 0 
L 2009 0 
L 2222 1100 
L 116 1100 
L 238 1709 
L 2753 4666 
z
M 2809 4116 
L 728 1625 
L 2322 1625 
L 2809 4116 
z
" transform="scale(0.015625)"/>
      </defs>
      <use xlink:href="#DejaVuSans-Oblique-34"/>
     </g>
    </g>
    <g id="patch_26">
     <path d="M 104.13 67.01125 
L 120.13 67.01125 
L 120.13 61.41125 
L 104.13 61.41125 
z
" style="fill: #9467bd"/>
    </g>
    <g id="text_12">
     <!-- 5 -->
     <g transform="translate(126.53 67.01125) scale(0.08 -0.08)">
      <use xlink:href="#DejaVuSans-Oblique-35"/>
     </g>
    </g>
    <g id="patch_27">
     <path d="M 104.13 78.75375 
L 120.13 78.75375 
L 120.13 73.15375 
L 104.13 73.15375 
z
" style="fill: #8c564b"/>
    </g>
    <g id="text_13">
     <!-- 6 -->
     <g transform="translate(126.53 78.75375) scale(0.08 -0.08)">
      <defs>
       <path id="DejaVuSans-Oblique-36" d="M 2938 1728 
Q 2938 2125 2734 2354 
Q 2531 2584 2181 2584 
Q 1697 2584 1367 2211 
Q 1038 1838 1038 1288 
Q 1038 875 1239 642 
Q 1441 409 1797 409 
Q 2284 409 2611 792 
Q 2938 1175 2938 1728 
z
M 3788 4556 
L 3681 3981 
Q 3500 4100 3265 4162 
Q 3031 4225 2766 4225 
Q 2119 4225 1726 3819 
Q 1334 3413 1141 2547 
Q 1369 2813 1670 2948 
Q 1972 3084 2322 3084 
Q 2894 3084 3233 2754 
Q 3572 2425 3572 1869 
Q 3572 1413 3405 1020 
Q 3238 628 2919 331 
Q 2700 128 2409 18 
Q 2119 -91 1791 -91 
Q 1147 -91 775 318 
Q 403 728 403 1441 
Q 403 2103 573 2717 
Q 744 3331 1050 3781 
Q 1372 4256 1830 4503 
Q 2288 4750 2841 4750 
Q 3084 4750 3321 4701 
Q 3559 4653 3788 4556 
z
" transform="scale(0.015625)"/>
      </defs>
      <use xlink:href="#DejaVuSans-Oblique-36"/>
     </g>
    </g>
    <g id="patch_28">
     <path d="M 104.13 90.49625 
L 120.13 90.49625 
L 120.13 84.89625 
L 104.13 84.89625 
z
" style="fill: #e377c2"/>
    </g>
    <g id="text_14">
     <!-- 7 -->
     <g transform="translate(126.53 90.49625) scale(0.08 -0.08)">
      <defs>
       <path id="DejaVuSans-Oblique-37" d="M 819 4666 
L 4013 4666 
L 3956 4397 
L 1288 0 
L 594 0 
L 3116 4134 
L 716 4134 
L 819 4666 
z
" transform="scale(0.015625)"/>
      </defs>
      <use xlink:href="#DejaVuSans-Oblique-37"/>
     </g>
    </g>
   </g>
  </g>
 </g>
 <defs>
  <clipPath id="p513f5a6829">
   <rect x="28.39" y="21.64" width="178.97" height="77.72"/>
  </clipPath>
 </defs>
</svg>
