<?xml version="1.0" encoding="utf-8" standalone="no"?>
<!DOCTYPE svg PUBLIC "-//W3C//DTD SVG 1.1//EN"
  "http://www.w3.org/Graphics/SVG/1.1/DTD/svg11.dtd">
<svg xmlns:xlink="http://www.w3.org/1999/xlink" width="468pt" height="252pt" viewBox="0 0 468 252" xmlns="http://www.w3.org/2000/svg" version="1.1">
 <metadata>
  <rdf:RDF xmlns:dc="http://purl.org/dc/elements/1.1/" xmlns:cc="http://creativecommons.org/ns#" xmlns:rdf="http://www.w3.org/1999/02/22-rdf-syntax-ns#">
   <cc:Work>
    <dc:type rdf:resource="http://purl.org/dc/dcmitype/StillImage"/>
    <dc:date>2026-01-21T16:48:26.175594</dc:date>
    <dc:format>image/svg+xml</dc:format>
    <dc:creator>
     <cc:Agent>
      <dc:title>Matplotlib v3.10.5, https://matplotlib.org/</dc:title>
     </cc:Agent>
    </dc:creator>
   </cc:Work>
  </rdf:RDF>
 </metadata>
 <defs>
  <style type="text/css">*{stroke-linejoin: round; stroke-linecap: butt}</style>
 </defs>
 <g id="figure_1">
  <g id="patch_1">
   <path d="M 0 252 
L 468 252 
L 468 0 
L 0 0 
z
" style="fill: #ffffff"/>
  </g>
  <g id="axes_1">
   <g id="patch_2">
    <path d="M 58.5 220.5 
L 165.176471 220.5 
L 165.176471 30.24 
L 58.5 30.24 
z
" style="fill: #ffffff"/>
   </g>
   <g id="QuadMesh_1">
    <path d="M 58.5 30.24 
L 73.739496 30.24 
L 73.739496 46.095 
L 58.5 46.095 
L 58.5 30.24 
" clip-path="url(#pb0fcb60321)" style="fill: #4c72b0; fill-opacity: 0.459873"/>
    <path d="M 73.739496 30.24 
L 88.978992 30.24 
L 88.978992 46.095 
L 73.739496 46.095 
L 73.739496 30.24 
" clip-path="url(#pb0fcb60321)" style="fill: #4c72b0; fill-opacity: 0.914705"/>
    <path d="M 88.978992 30.24 
L 104.218487 30.24 
L 104.218487 46.095 
L 88.978992 46.095 
L 88.978992 30.24 
" clip-path="url(#pb0fcb60321)" style="fill: #4c72b0; fill-opacity: 0.132047"/>
    <path d="M 104.218487 30.24 
L 119.457983 30.24 
L 119.457983 46.095 
L 104.218487 46.095 
L 104.218487 30.24 
" clip-path="url(#pb0fcb60321)" style="fill: #4c72b0; fill-opacity: 0.435457"/>
    <path d="M 119.457983 30.24 
L 134.697479 30.24 
L 134.697479 46.095 
L 119.457983 46.095 
L 119.457983 30.24 
" clip-path="url(#pb0fcb60321)" style="fill: #4c72b0; fill-opacity: 0.309811"/>
    <path d="M 134.697479 30.24 
L 149.936975 30.24 
L 149.936975 46.095 
L 134.697479 46.095 
L 134.697479 30.24 
" clip-path="url(#pb0fcb60321)" style="fill: #4c72b0; fill-opacity: 0.013326"/>
    <path d="M 149.936975 30.24 
L 165.176471 30.24 
L 165.176471 46.095 
L 149.936975 46.095 
L 149.936975 30.24 
" clip-path="url(#pb0fcb60321)" style="fill: #4c72b0"/>
    <path d="M 58.5 46.095 
L 73.739496 46.095 
L 73.739496 61.95 
L 58.5 61.95 
L 58.5 46.095 
" clip-path="url(#pb0fcb60321)" style="fill: #4c72b0; fill-opacity: 0.002121"/>
    <path d="M 73.739496 46.095 
L 88.978992 46.095 
L 88.978992 61.95 
L 73.739496 61.95 
L 73.739496 46.095 
" clip-path="url(#pb0fcb60321)" style="fill: #4c72b0; fill-opacity: 0.021999"/>
    <path d="M 88.978992 46.095 
L 104.218487 46.095 
L 104.218487 61.95 
L 88.978992 61.95 
L 88.978992 46.095 
" clip-path="url(#pb0fcb60321)" style="fill: #4c72b0; fill-opacity: 0.265337"/>
    <path d="M 104.218487 46.095 
L 119.457983 46.095 
L 119.457983 61.95 
L 104.218487 61.95 
L 104.218487 46.095 
" clip-path="url(#pb0fcb60321)" style="fill: #4c72b0; fill-opacity: 0.144409"/>
    <path d="M 119.457983 46.095 
L 134.697479 46.095 
L 134.697479 61.95 
L 119.457983 61.95 
L 119.457983 46.095 
" clip-path="url(#pb0fcb60321)" style="fill: #4c72b0; fill-opacity: 0.276737"/>
    <path d="M 134.697479 46.095 
L 149.936975 46.095 
L 149.936975 61.95 
L 134.697479 61.95 
L 134.697479 46.095 
" clip-path="url(#pb0fcb60321)" style="fill: #4c72b0; fill-opacity: 0.022971"/>
    <path d="M 149.936975 46.095 
L 165.176471 46.095 
L 165.176471 61.95 
L 149.936975 61.95 
L 149.936975 46.095 
" clip-path="url(#pb0fcb60321)" style="fill: #4c72b0; fill-opacity: 0.134375"/>
    <path d="M 58.5 61.95 
L 73.739496 61.95 
L 73.739496 77.805 
L 58.5 77.805 
L 58.5 61.95 
" clip-path="url(#pb0fcb60321)" style="fill: #dd8452; fill-opacity: 0.75994"/>
    <path d="M 73.739496 61.95 
L 88.978992 61.95 
L 88.978992 77.805 
L 73.739496 77.805 
L 73.739496 61.95 
" clip-path="url(#pb0fcb60321)" style="fill: #dd8452"/>
    <path d="M 88.978992 61.95 
L 104.218487 61.95 
L 104.218487 77.805 
L 88.978992 77.805 
L 88.978992 61.95 
" clip-path="url(#pb0fcb60321)" style="fill: #dd8452; fill-opacity: 0.095292"/>
    <path d="M 104.218487 61.95 
L 119.457983 61.95 
L 119.457983 77.805 
L 104.218487 77.805 
L 104.218487 61.95 
" clip-path="url(#pb0fcb60321)" style="fill: #dd8452; fill-opacity: 0.071745"/>
    <path d="M 119.457983 61.95 
L 134.697479 61.95 
L 134.697479 77.805 
L 119.457983 77.805 
L 119.457983 61.95 
" clip-path="url(#pb0fcb60321)" style="fill: #dd8452; fill-opacity: 0.518315"/>
    <path d="M 134.697479 61.95 
L 149.936975 61.95 
L 149.936975 77.805 
L 134.697479 77.805 
L 134.697479 61.95 
" clip-path="url(#pb0fcb60321)" style="fill: #dd8452; fill-opacity: 0.066171"/>
    <path d="M 149.936975 61.95 
L 165.176471 61.95 
L 165.176471 77.805 
L 149.936975 77.805 
L 149.936975 61.95 
" clip-path="url(#pb0fcb60321)" style="fill: #dd8452; fill-opacity: 0.970354"/>
    <path d="M 58.5 77.805 
L 73.739496 77.805 
L 73.739496 93.66 
L 58.5 93.66 
L 58.5 77.805 
" clip-path="url(#pb0fcb60321)" style="fill: #dd8452; fill-opacity: 0.269649"/>
    <path d="M 73.739496 77.805 
L 88.978992 77.805 
L 88.978992 93.66 
L 73.739496 93.66 
L 73.739496 77.805 
" clip-path="url(#pb0fcb60321)" style="fill: #dd8452; fill-opacity: 0.195477"/>
    <path d="M 88.978992 77.805 
L 104.218487 77.805 
L 104.218487 93.66 
L 88.978992 93.66 
L 88.978992 77.805 
" clip-path="url(#pb0fcb60321)" style="fill: #dd8452; fill-opacity: 0.009107"/>
    <path d="M 104.218487 77.805 
L 119.457983 77.805 
L 119.457983 93.66 
L 104.218487 93.66 
L 104.218487 77.805 
" clip-path="url(#pb0fcb60321)" style="fill: #dd8452; fill-opacity: 0.083834"/>
    <path d="M 119.457983 77.805 
L 134.697479 77.805 
L 134.697479 93.66 
L 119.457983 93.66 
L 119.457983 77.805 
" clip-path="url(#pb0fcb60321)" style="fill: #dd8452; fill-opacity: 0.073141"/>
    <path d="M 134.697479 77.805 
L 149.936975 77.805 
L 149.936975 93.66 
L 134.697479 93.66 
L 134.697479 77.805 
" clip-path="url(#pb0fcb60321)" style="fill: #dd8452; fill-opacity: 0.057136"/>
    <path d="M 149.936975 77.805 
L 165.176471 77.805 
L 165.176471 93.66 
L 149.936975 93.66 
L 149.936975 77.805 
" clip-path="url(#pb0fcb60321)" style="fill: #dd8452; fill-opacity: 0.370362"/>
    <path d="M 58.5 93.66 
L 73.739496 93.66 
L 73.739496 109.515 
L 58.5 109.515 
L 58.5 93.66 
" clip-path="url(#pb0fcb60321)" style="fill: #55a868"/>
    <path d="M 73.739496 93.66 
L 88.978992 93.66 
L 88.978992 109.515 
L 73.739496 109.515 
L 73.739496 93.66 
" clip-path="url(#pb0fcb60321)" style="fill: #55a868; fill-opacity: 0.845058"/>
    <path d="M 88.978992 93.66 
L 104.218487 93.66 
L 104.218487 109.515 
L 88.978992 109.515 
L 88.978992 93.66 
" clip-path="url(#pb0fcb60321)" style="fill: #55a868; fill-opacity: 0.403534"/>
    <path d="M 104.218487 93.66 
L 119.457983 93.66 
L 119.457983 109.515 
L 104.218487 109.515 
L 104.218487 93.66 
" clip-path="url(#pb0fcb60321)" style="fill: #55a868; fill-opacity: 0.032465"/>
    <path d="M 119.457983 93.66 
L 134.697479 93.66 
L 134.697479 109.515 
L 119.457983 109.515 
L 119.457983 93.66 
" clip-path="url(#pb0fcb60321)" style="fill: #55a868; fill-opacity: 0.061857"/>
    <path d="M 134.697479 93.66 
L 149.936975 93.66 
L 149.936975 109.515 
L 134.697479 109.515 
L 134.697479 93.66 
" clip-path="url(#pb0fcb60321)" style="fill: #55a868; fill-opacity: 0.036107"/>
    <path d="M 149.936975 93.66 
L 165.176471 93.66 
L 165.176471 109.515 
L 149.936975 109.515 
L 149.936975 93.66 
" clip-path="url(#pb0fcb60321)" style="fill: #55a868; fill-opacity: 0.106901"/>
    <path d="M 58.5 109.515 
L 73.739496 109.515 
L 73.739496 125.37 
L 58.5 125.37 
L 58.5 109.515 
" clip-path="url(#pb0fcb60321)" style="fill: #55a868; fill-opacity: 0.066891"/>
    <path d="M 73.739496 109.515 
L 88.978992 109.515 
L 88.978992 125.37 
L 73.739496 125.37 
L 73.739496 109.515 
" clip-path="url(#pb0fcb60321)" style="fill: #55a868; fill-opacity: 0.146477"/>
    <path d="M 88.978992 109.515 
L 104.218487 109.515 
L 104.218487 125.37 
L 88.978992 125.37 
L 88.978992 109.515 
" clip-path="url(#pb0fcb60321)" style="fill: #55a868; fill-opacity: 0.020661"/>
    <path d="M 104.218487 109.515 
L 119.457983 109.515 
L 119.457983 125.37 
L 104.218487 125.37 
L 104.218487 109.515 
" clip-path="url(#pb0fcb60321)" style="fill: #55a868; fill-opacity: 0.255142"/>
    <path d="M 119.457983 109.515 
L 134.697479 109.515 
L 134.697479 125.37 
L 119.457983 125.37 
L 119.457983 109.515 
" clip-path="url(#pb0fcb60321)" style="fill: #55a868; fill-opacity: 0.239189"/>
    <path d="M 134.697479 109.515 
L 149.936975 109.515 
L 149.936975 125.37 
L 134.697479 125.37 
L 134.697479 109.515 
" clip-path="url(#pb0fcb60321)" style="fill: #55a868; fill-opacity: 0.182255"/>
    <path d="M 149.936975 109.515 
L 165.176471 109.515 
L 165.176471 125.37 
L 149.936975 125.37 
L 149.936975 109.515 
" clip-path="url(#pb0fcb60321)" style="fill: #55a868; fill-opacity: 0.299859"/>
    <path d="M 58.5 125.37 
L 73.739496 125.37 
L 73.739496 141.225 
L 58.5 141.225 
L 58.5 125.37 
" clip-path="url(#pb0fcb60321)" style="fill: #c44e52; fill-opacity: 0.24356"/>
    <path d="M 73.739496 125.37 
L 88.978992 125.37 
L 88.978992 141.225 
L 73.739496 141.225 
L 73.739496 125.37 
" clip-path="url(#pb0fcb60321)" style="fill: #c44e52"/>
    <path d="M 88.978992 125.37 
L 104.218487 125.37 
L 104.218487 141.225 
L 88.978992 141.225 
L 88.978992 125.37 
" clip-path="url(#pb0fcb60321)" style="fill: #c44e52; fill-opacity: 0.271159"/>
    <path d="M 104.218487 125.37 
L 119.457983 125.37 
L 119.457983 141.225 
L 104.218487 141.225 
L 104.218487 125.37 
" clip-path="url(#pb0fcb60321)" style="fill: #c44e52; fill-opacity: 0.16124"/>
    <path d="M 119.457983 125.37 
L 134.697479 125.37 
L 134.697479 141.225 
L 119.457983 141.225 
L 119.457983 125.37 
" clip-path="url(#pb0fcb60321)" style="fill: #c44e52; fill-opacity: 0.163739"/>
    <path d="M 134.697479 125.37 
L 149.936975 125.37 
L 149.936975 141.225 
L 134.697479 141.225 
L 134.697479 125.37 
" clip-path="url(#pb0fcb60321)" style="fill: #c44e52; fill-opacity: 0.181863"/>
    <path d="M 149.936975 125.37 
L 165.176471 125.37 
L 165.176471 141.225 
L 149.936975 141.225 
L 149.936975 125.37 
" clip-path="url(#pb0fcb60321)" style="fill: #c44e52; fill-opacity: 0.220805"/>
    <path d="M 58.5 141.225 
L 73.739496 141.225 
L 73.739496 157.08 
L 58.5 157.08 
L 58.5 141.225 
" clip-path="url(#pb0fcb60321)" style="fill: #c44e52; fill-opacity: 0.056644"/>
    <path d="M 73.739496 141.225 
L 88.978992 141.225 
L 88.978992 157.08 
L 73.739496 157.08 
L 73.739496 141.225 
" clip-path="url(#pb0fcb60321)" style="fill: #c44e52; fill-opacity: 0.038149"/>
    <path d="M 88.978992 141.225 
L 104.218487 141.225 
L 104.218487 157.08 
L 88.978992 157.08 
L 88.978992 141.225 
" clip-path="url(#pb0fcb60321)" style="fill: #c44e52; fill-opacity: 0.086552"/>
    <path d="M 104.218487 141.225 
L 119.457983 141.225 
L 119.457983 157.08 
L 104.218487 157.08 
L 104.218487 141.225 
" clip-path="url(#pb0fcb60321)" style="fill: #c44e52; fill-opacity: 0.016688"/>
    <path d="M 119.457983 141.225 
L 134.697479 141.225 
L 134.697479 157.08 
L 119.457983 157.08 
L 119.457983 141.225 
" clip-path="url(#pb0fcb60321)" style="fill: #c44e52; fill-opacity: 0.03809"/>
    <path d="M 134.697479 141.225 
L 149.936975 141.225 
L 149.936975 157.08 
L 134.697479 157.08 
L 134.697479 141.225 
" clip-path="url(#pb0fcb60321)" style="fill: #c44e52; fill-opacity: 0.166186"/>
    <path d="M 149.936975 141.225 
L 165.176471 141.225 
L 165.176471 157.08 
L 149.936975 157.08 
L 149.936975 141.225 
" clip-path="url(#pb0fcb60321)" style="fill: #c44e52; fill-opacity: 0.09576"/>
    <path d="M 58.5 157.08 
L 73.739496 157.08 
L 73.739496 172.935 
L 58.5 172.935 
L 58.5 157.08 
" clip-path="url(#pb0fcb60321)" style="fill: #8172b3; fill-opacity: 0.635923"/>
    <path d="M 73.739496 157.08 
L 88.978992 157.08 
L 88.978992 172.935 
L 73.739496 172.935 
L 73.739496 157.08 
" clip-path="url(#pb0fcb60321)" style="fill: #8172b3"/>
    <path d="M 88.978992 157.08 
L 104.218487 157.08 
L 104.218487 172.935 
L 88.978992 172.935 
L 88.978992 157.08 
" clip-path="url(#pb0fcb60321)" style="fill: #8172b3; fill-opacity: 0.226133"/>
    <path d="M 104.218487 157.08 
L 119.457983 157.08 
L 119.457983 172.935 
L 104.218487 172.935 
L 104.218487 157.08 
" clip-path="url(#pb0fcb60321)" style="fill: #8172b3; fill-opacity: 0.145198"/>
    <path d="M 119.457983 157.08 
L 134.697479 157.08 
L 134.697479 172.935 
L 119.457983 172.935 
L 119.457983 157.08 
" clip-path="url(#pb0fcb60321)" style="fill: #8172b3; fill-opacity: 0.080082"/>
    <path d="M 134.697479 157.08 
L 149.936975 157.08 
L 149.936975 172.935 
L 134.697479 172.935 
L 134.697479 157.08 
" clip-path="url(#pb0fcb60321)" style="fill: #8172b3; fill-opacity: 0.724418"/>
    <path d="M 149.936975 157.08 
L 165.176471 157.08 
L 165.176471 172.935 
L 149.936975 172.935 
L 149.936975 157.08 
" clip-path="url(#pb0fcb60321)" style="fill: #8172b3; fill-opacity: 0.230361"/>
    <path d="M 58.5 172.935 
L 73.739496 172.935 
L 73.739496 188.79 
L 58.5 188.79 
L 58.5 172.935 
" clip-path="url(#pb0fcb60321)" style="fill: #8172b3; fill-opacity: 0.115413"/>
    <path d="M 73.739496 172.935 
L 88.978992 172.935 
L 88.978992 188.79 
L 73.739496 188.79 
L 73.739496 172.935 
" clip-path="url(#pb0fcb60321)" style="fill: #8172b3; fill-opacity: 0.075474"/>
    <path d="M 88.978992 172.935 
L 104.218487 172.935 
L 104.218487 188.79 
L 88.978992 188.79 
L 88.978992 172.935 
" clip-path="url(#pb0fcb60321)" style="fill: #8172b3; fill-opacity: 0.177724"/>
    <path d="M 104.218487 172.935 
L 119.457983 172.935 
L 119.457983 188.79 
L 104.218487 188.79 
L 104.218487 172.935 
" clip-path="url(#pb0fcb60321)" style="fill: #8172b3; fill-opacity: 0.012228"/>
    <path d="M 119.457983 172.935 
L 134.697479 172.935 
L 134.697479 188.79 
L 119.457983 188.79 
L 119.457983 172.935 
" clip-path="url(#pb0fcb60321)" style="fill: #8172b3; fill-opacity: 0.119582"/>
    <path d="M 134.697479 172.935 
L 149.936975 172.935 
L 149.936975 188.79 
L 134.697479 188.79 
L 134.697479 172.935 
" clip-path="url(#pb0fcb60321)" style="fill: #8172b3; fill-opacity: 0.294593"/>
    <path d="M 149.936975 172.935 
L 165.176471 172.935 
L 165.176471 188.79 
L 149.936975 188.79 
L 149.936975 172.935 
" clip-path="url(#pb0fcb60321)" style="fill: #8172b3; fill-opacity: 0.071847"/>
    <path d="M 58.5 188.79 
L 73.739496 188.79 
L 73.739496 204.645 
L 58.5 204.645 
L 58.5 188.79 
" clip-path="url(#pb0fcb60321)" style="fill: #937860; fill-opacity: 0.799977"/>
    <path d="M 73.739496 188.79 
L 88.978992 188.79 
L 88.978992 204.645 
L 73.739496 204.645 
L 73.739496 188.79 
" clip-path="url(#pb0fcb60321)" style="fill: #937860"/>
    <path d="M 88.978992 188.79 
L 104.218487 188.79 
L 104.218487 204.645 
L 88.978992 204.645 
L 88.978992 188.79 
" clip-path="url(#pb0fcb60321)" style="fill: #937860; fill-opacity: 0.940637"/>
    <path d="M 104.218487 188.79 
L 119.457983 188.79 
L 119.457983 204.645 
L 104.218487 204.645 
L 104.218487 188.79 
" clip-path="url(#pb0fcb60321)" style="fill: #937860; fill-opacity: 0.091383"/>
    <path d="M 119.457983 188.79 
L 134.697479 188.79 
L 134.697479 204.645 
L 119.457983 204.645 
L 119.457983 188.79 
" clip-path="url(#pb0fcb60321)" style="fill: #937860; fill-opacity: 0.177667"/>
    <path d="M 134.697479 188.79 
L 149.936975 188.79 
L 149.936975 204.645 
L 134.697479 204.645 
L 134.697479 188.79 
" clip-path="url(#pb0fcb60321)" style="fill: #937860; fill-opacity: 0.185222"/>
    <path d="M 149.936975 188.79 
L 165.176471 188.79 
L 165.176471 204.645 
L 149.936975 204.645 
L 149.936975 188.79 
" clip-path="url(#pb0fcb60321)" style="fill: #937860; fill-opacity: 0.199973"/>
    <path d="M 58.5 204.645 
L 73.739496 204.645 
L 73.739496 220.5 
L 58.5 220.5 
L 58.5 204.645 
" clip-path="url(#pb0fcb60321)" style="fill: #937860; fill-opacity: 0.005036"/>
    <path d="M 73.739496 204.645 
L 88.978992 204.645 
L 88.978992 220.5 
L 73.739496 220.5 
L 73.739496 204.645 
" clip-path="url(#pb0fcb60321)" style="fill: #937860; fill-opacity: 0.009626"/>
    <path d="M 88.978992 204.645 
L 104.218487 204.645 
L 104.218487 220.5 
L 88.978992 220.5 
L 88.978992 204.645 
" clip-path="url(#pb0fcb60321)" style="fill: #937860; fill-opacity: 0.017673"/>
    <path d="M 104.218487 204.645 
L 119.457983 204.645 
L 119.457983 220.5 
L 104.218487 220.5 
L 104.218487 204.645 
" clip-path="url(#pb0fcb60321)" style="fill: #937860; fill-opacity: 0.003002"/>
    <path d="M 119.457983 204.645 
L 134.697479 204.645 
L 134.697479 220.5 
L 119.457983 220.5 
L 119.457983 204.645 
" clip-path="url(#pb0fcb60321)" style="fill: #937860; fill-opacity: 0.005653"/>
    <path d="M 134.697479 204.645 
L 149.936975 204.645 
L 149.936975 220.5 
L 134.697479 220.5 
L 134.697479 204.645 
" clip-path="url(#pb0fcb60321)" style="fill: #937860; fill-opacity: 0.003973"/>
    <path d="M 149.936975 204.645 
L 165.176471 204.645 
L 165.176471 220.5 
L 149.936975 220.5 
L 149.936975 204.645 
" clip-path="url(#pb0fcb60321)" style="fill: #937860; fill-opacity: 0.004773"/>
   </g>
   <g id="matplotlib.axis_1">
    <g id="xtick_1">
     <g id="line2d_1">
      <defs>
       <path id="m088f742675" d="M 0 0 
L 0 3.5 
" style="stroke: #000000; stroke-width: 0.8"/>
      </defs>
      <g>
       <use xlink:href="#m088f742675" x="66.119748" y="220.5" style="stroke: #000000; stroke-width: 0.8"/>
      </g>
     </g>
     <g id="text_1">
      <!-- Ca -->
      <g transform="translate(63.966608 238.780121) rotate(-45) scale(0.08 -0.08)">
       <defs>
        <path id="ArialMT-43" d="M 3763 1606 
L 4369 1453 
Q 4178 706 3683 314 
Q 3188 -78 2472 -78 
Q 1731 -78 1267 223 
Q 803 525 561 1097 
Q 319 1669 319 2325 
Q 319 3041 592 3573 
Q 866 4106 1370 4382 
Q 1875 4659 2481 4659 
Q 3169 4659 3637 4309 
Q 4106 3959 4291 3325 
L 3694 3184 
Q 3534 3684 3231 3912 
Q 2928 4141 2469 4141 
Q 1941 4141 1586 3887 
Q 1231 3634 1087 3207 
Q 944 2781 944 2328 
Q 944 1744 1114 1308 
Q 1284 872 1643 656 
Q 2003 441 2422 441 
Q 2931 441 3284 734 
Q 3638 1028 3763 1606 
z
" transform="scale(0.015625)"/>
        <path id="ArialMT-61" d="M 2588 409 
Q 2275 144 1986 34 
Q 1697 -75 1366 -75 
Q 819 -75 525 192 
Q 231 459 231 875 
Q 231 1119 342 1320 
Q 453 1522 633 1644 
Q 813 1766 1038 1828 
Q 1203 1872 1538 1913 
Q 2219 1994 2541 2106 
Q 2544 2222 2544 2253 
Q 2544 2597 2384 2738 
Q 2169 2928 1744 2928 
Q 1347 2928 1158 2789 
Q 969 2650 878 2297 
L 328 2372 
Q 403 2725 575 2942 
Q 747 3159 1072 3276 
Q 1397 3394 1825 3394 
Q 2250 3394 2515 3294 
Q 2781 3194 2906 3042 
Q 3031 2891 3081 2659 
Q 3109 2516 3109 2141 
L 3109 1391 
Q 3109 606 3145 398 
Q 3181 191 3288 0 
L 2700 0 
Q 2613 175 2588 409 
z
M 2541 1666 
Q 2234 1541 1622 1453 
Q 1275 1403 1131 1340 
Q 988 1278 909 1158 
Q 831 1038 831 891 
Q 831 666 1001 516 
Q 1172 366 1500 366 
Q 1825 366 2078 508 
Q 2331 650 2450 897 
Q 2541 1088 2541 1459 
L 2541 1666 
z
" transform="scale(0.015625)"/>
       </defs>
       <use xlink:href="#ArialMT-43"/>
       <use xlink:href="#ArialMT-61" transform="translate(72.216797 0)"/>
      </g>
     </g>
    </g>
    <g id="xtick_2">
     <g id="line2d_2">
      <g>
       <use xlink:href="#m088f742675" x="81.359244" y="220.5" style="stroke: #000000; stroke-width: 0.8"/>
      </g>
     </g>
     <g id="text_2">
      <!-- Mg -->
      <g transform="translate(78.859621 239.406794) rotate(-45) scale(0.08 -0.08)">
       <defs>
        <path id="ArialMT-4d" d="M 475 0 
L 475 4581 
L 1388 4581 
L 2472 1338 
Q 2622 884 2691 659 
Q 2769 909 2934 1394 
L 4031 4581 
L 4847 4581 
L 4847 0 
L 4263 0 
L 4263 3834 
L 2931 0 
L 2384 0 
L 1059 3900 
L 1059 0 
L 475 0 
z
" transform="scale(0.015625)"/>
        <path id="ArialMT-67" d="M 319 -275 
L 866 -356 
Q 900 -609 1056 -725 
Q 1266 -881 1628 -881 
Q 2019 -881 2231 -725 
Q 2444 -569 2519 -288 
Q 2563 -116 2559 434 
Q 2191 0 1641 0 
Q 956 0 581 494 
Q 206 988 206 1678 
Q 206 2153 378 2554 
Q 550 2956 876 3175 
Q 1203 3394 1644 3394 
Q 2231 3394 2613 2919 
L 2613 3319 
L 3131 3319 
L 3131 450 
Q 3131 -325 2973 -648 
Q 2816 -972 2473 -1159 
Q 2131 -1347 1631 -1347 
Q 1038 -1347 672 -1080 
Q 306 -813 319 -275 
z
M 784 1719 
Q 784 1066 1043 766 
Q 1303 466 1694 466 
Q 2081 466 2343 764 
Q 2606 1063 2606 1700 
Q 2606 2309 2336 2618 
Q 2066 2928 1684 2928 
Q 1309 2928 1046 2623 
Q 784 2319 784 1719 
z
" transform="scale(0.015625)"/>
       </defs>
       <use xlink:href="#ArialMT-4d"/>
       <use xlink:href="#ArialMT-67" transform="translate(83.300781 0)"/>
      </g>
     </g>
    </g>
    <g id="xtick_3">
     <g id="line2d_3">
      <g>
       <use xlink:href="#m088f742675" x="96.598739" y="220.5" style="stroke: #000000; stroke-width: 0.8"/>
      </g>
     </g>
     <g id="text_3">
      <!-- K -->
      <g transform="translate(96.174475 235.322369) rotate(-45) scale(0.08 -0.08)">
       <defs>
        <path id="ArialMT-4b" d="M 469 0 
L 469 4581 
L 1075 4581 
L 1075 2309 
L 3350 4581 
L 4172 4581 
L 2250 2725 
L 4256 0 
L 3456 0 
L 1825 2319 
L 1075 1588 
L 1075 0 
L 469 0 
z
" transform="scale(0.015625)"/>
       </defs>
       <use xlink:href="#ArialMT-4b"/>
      </g>
     </g>
    </g>
    <g id="xtick_4">
     <g id="line2d_4">
      <g>
       <use xlink:href="#m088f742675" x="111.838235" y="220.5" style="stroke: #000000; stroke-width: 0.8"/>
      </g>
     </g>
     <g id="text_4">
      <!-- Na -->
      <g transform="translate(109.685095 238.780121) rotate(-45) scale(0.08 -0.08)">
       <defs>
        <path id="ArialMT-4e" d="M 488 0 
L 488 4581 
L 1109 4581 
L 3516 984 
L 3516 4581 
L 4097 4581 
L 4097 0 
L 3475 0 
L 1069 3600 
L 1069 0 
L 488 0 
z
" transform="scale(0.015625)"/>
       </defs>
       <use xlink:href="#ArialMT-4e"/>
       <use xlink:href="#ArialMT-61" transform="translate(72.216797 0)"/>
      </g>
     </g>
    </g>
    <g id="xtick_5">
     <g id="line2d_5">
      <g>
       <use xlink:href="#m088f742675" x="127.077731" y="220.5" style="stroke: #000000; stroke-width: 0.8"/>
      </g>
     </g>
     <g id="text_5">
      <!-- Cl -->
      <g transform="translate(125.86902 236.891262) rotate(-45) scale(0.08 -0.08)">
       <defs>
        <path id="ArialMT-6c" d="M 409 0 
L 409 4581 
L 972 4581 
L 972 0 
L 409 0 
z
" transform="scale(0.015625)"/>
       </defs>
       <use xlink:href="#ArialMT-43"/>
       <use xlink:href="#ArialMT-6c" transform="translate(72.216797 0)"/>
      </g>
     </g>
    </g>
    <g id="xtick_6">
     <g id="line2d_6">
      <g>
       <use xlink:href="#m088f742675" x="142.317227" y="220.5" style="stroke: #000000; stroke-width: 0.8"/>
      </g>
     </g>
     <g id="text_6">
      <!-- NO3 -->
      <g transform="translate(137.964101 243.180093) rotate(-45) scale(0.08 -0.08)">
       <defs>
        <path id="ArialMT-4f" d="M 309 2231 
Q 309 3372 921 4017 
Q 1534 4663 2503 4663 
Q 3138 4663 3647 4359 
Q 4156 4056 4423 3514 
Q 4691 2972 4691 2284 
Q 4691 1588 4409 1038 
Q 4128 488 3612 205 
Q 3097 -78 2500 -78 
Q 1853 -78 1343 234 
Q 834 547 571 1087 
Q 309 1628 309 2231 
z
M 934 2222 
Q 934 1394 1379 917 
Q 1825 441 2497 441 
Q 3181 441 3623 922 
Q 4066 1403 4066 2288 
Q 4066 2847 3877 3264 
Q 3688 3681 3323 3911 
Q 2959 4141 2506 4141 
Q 1863 4141 1398 3698 
Q 934 3256 934 2222 
z
" transform="scale(0.015625)"/>
        <path id="ArialMT-33" d="M 269 1209 
L 831 1284 
Q 928 806 1161 595 
Q 1394 384 1728 384 
Q 2125 384 2398 659 
Q 2672 934 2672 1341 
Q 2672 1728 2419 1979 
Q 2166 2231 1775 2231 
Q 1616 2231 1378 2169 
L 1441 2663 
Q 1497 2656 1531 2656 
Q 1891 2656 2178 2843 
Q 2466 3031 2466 3422 
Q 2466 3731 2256 3934 
Q 2047 4138 1716 4138 
Q 1388 4138 1169 3931 
Q 950 3725 888 3313 
L 325 3413 
Q 428 3978 793 4289 
Q 1159 4600 1703 4600 
Q 2078 4600 2393 4439 
Q 2709 4278 2876 4000 
Q 3044 3722 3044 3409 
Q 3044 3113 2884 2869 
Q 2725 2625 2413 2481 
Q 2819 2388 3044 2092 
Q 3269 1797 3269 1353 
Q 3269 753 2831 336 
Q 2394 -81 1725 -81 
Q 1122 -81 723 278 
Q 325 638 269 1209 
z
" transform="scale(0.015625)"/>
       </defs>
       <use xlink:href="#ArialMT-4e"/>
       <use xlink:href="#ArialMT-4f" transform="translate(72.216797 0)"/>
       <use xlink:href="#ArialMT-33" transform="translate(150 0)"/>
      </g>
     </g>
    </g>
    <g id="xtick_7">
     <g id="line2d_7">
      <g>
       <use xlink:href="#m088f742675" x="157.556723" y="220.5" style="stroke: #000000; stroke-width: 0.8"/>
      </g>
     </g>
     <g id="text_7">
      <!-- SO4 -->
      <g transform="translate(153.359602 242.868082) rotate(-45) scale(0.08 -0.08)">
       <defs>
        <path id="ArialMT-53" d="M 288 1472 
L 859 1522 
Q 900 1178 1048 958 
Q 1197 738 1509 602 
Q 1822 466 2213 466 
Q 2559 466 2825 569 
Q 3091 672 3220 851 
Q 3350 1031 3350 1244 
Q 3350 1459 3225 1620 
Q 3100 1781 2813 1891 
Q 2628 1963 1997 2114 
Q 1366 2266 1113 2400 
Q 784 2572 623 2826 
Q 463 3081 463 3397 
Q 463 3744 659 4045 
Q 856 4347 1234 4503 
Q 1613 4659 2075 4659 
Q 2584 4659 2973 4495 
Q 3363 4331 3572 4012 
Q 3781 3694 3797 3291 
L 3216 3247 
Q 3169 3681 2898 3903 
Q 2628 4125 2100 4125 
Q 1550 4125 1298 3923 
Q 1047 3722 1047 3438 
Q 1047 3191 1225 3031 
Q 1400 2872 2139 2705 
Q 2878 2538 3153 2413 
Q 3553 2228 3743 1945 
Q 3934 1663 3934 1294 
Q 3934 928 3725 604 
Q 3516 281 3123 101 
Q 2731 -78 2241 -78 
Q 1619 -78 1198 103 
Q 778 284 539 648 
Q 300 1013 288 1472 
z
" transform="scale(0.015625)"/>
        <path id="ArialMT-34" d="M 2069 0 
L 2069 1097 
L 81 1097 
L 81 1613 
L 2172 4581 
L 2631 4581 
L 2631 1613 
L 3250 1613 
L 3250 1097 
L 2631 1097 
L 2631 0 
L 2069 0 
z
M 2069 1613 
L 2069 3678 
L 634 1613 
L 2069 1613 
z
" transform="scale(0.015625)"/>
       </defs>
       <use xlink:href="#ArialMT-53"/>
       <use xlink:href="#ArialMT-4f" transform="translate(66.699219 0)"/>
       <use xlink:href="#ArialMT-34" transform="translate(144.482422 0)"/>
      </g>
     </g>
    </g>
   </g>
   <g id="matplotlib.axis_2">
    <g id="ytick_1">
     <g id="line2d_8">
      <defs>
       <path id="mdb7101ef56" d="M 0 0 
L -3.5 0 
" style="stroke: #000000; stroke-width: 0.8"/>
      </defs>
      <g>
       <use xlink:href="#mdb7101ef56" x="58.5" y="38.1675" style="stroke: #000000; stroke-width: 0.8"/>
      </g>
     </g>
     <g id="text_8">
      <!-- 0.67 -->
      <g transform="translate(40.883565 44.263423) rotate(-45) scale(0.07 -0.07)">
       <defs>
        <path id="ArialMT-30" d="M 266 2259 
Q 266 3072 433 3567 
Q 600 4063 929 4331 
Q 1259 4600 1759 4600 
Q 2128 4600 2406 4451 
Q 2684 4303 2865 4023 
Q 3047 3744 3150 3342 
Q 3253 2941 3253 2259 
Q 3253 1453 3087 958 
Q 2922 463 2592 192 
Q 2263 -78 1759 -78 
Q 1097 -78 719 397 
Q 266 969 266 2259 
z
M 844 2259 
Q 844 1131 1108 757 
Q 1372 384 1759 384 
Q 2147 384 2411 759 
Q 2675 1134 2675 2259 
Q 2675 3391 2411 3762 
Q 2147 4134 1753 4134 
Q 1366 4134 1134 3806 
Q 844 3388 844 2259 
z
" transform="scale(0.015625)"/>
        <path id="ArialMT-2e" d="M 581 0 
L 581 641 
L 1222 641 
L 1222 0 
L 581 0 
z
" transform="scale(0.015625)"/>
        <path id="ArialMT-36" d="M 3184 3459 
L 2625 3416 
Q 2550 3747 2413 3897 
Q 2184 4138 1850 4138 
Q 1581 4138 1378 3988 
Q 1113 3794 959 3422 
Q 806 3050 800 2363 
Q 1003 2672 1297 2822 
Q 1591 2972 1913 2972 
Q 2475 2972 2870 2558 
Q 3266 2144 3266 1488 
Q 3266 1056 3080 686 
Q 2894 316 2569 119 
Q 2244 -78 1831 -78 
Q 1128 -78 684 439 
Q 241 956 241 2144 
Q 241 3472 731 4075 
Q 1159 4600 1884 4600 
Q 2425 4600 2770 4297 
Q 3116 3994 3184 3459 
z
M 888 1484 
Q 888 1194 1011 928 
Q 1134 663 1356 523 
Q 1578 384 1822 384 
Q 2178 384 2434 671 
Q 2691 959 2691 1453 
Q 2691 1928 2437 2201 
Q 2184 2475 1800 2475 
Q 1419 2475 1153 2201 
Q 888 1928 888 1484 
z
" transform="scale(0.015625)"/>
        <path id="ArialMT-37" d="M 303 3981 
L 303 4522 
L 3269 4522 
L 3269 4084 
Q 2831 3619 2401 2847 
Q 1972 2075 1738 1259 
Q 1569 684 1522 0 
L 944 0 
Q 953 541 1156 1306 
Q 1359 2072 1739 2783 
Q 2119 3494 2547 3981 
L 303 3981 
z
" transform="scale(0.015625)"/>
       </defs>
       <use xlink:href="#ArialMT-30"/>
       <use xlink:href="#ArialMT-2e" transform="translate(55.615234 0)"/>
       <use xlink:href="#ArialMT-36" transform="translate(83.398438 0)"/>
       <use xlink:href="#ArialMT-37" transform="translate(139.013672 0)"/>
      </g>
     </g>
    </g>
    <g id="ytick_2">
     <g id="line2d_9">
      <g>
       <use xlink:href="#mdb7101ef56" x="58.5" y="54.0225" style="stroke: #000000; stroke-width: 0.8"/>
      </g>
     </g>
     <g id="text_9">
      <!-- 0.18 -->
      <g transform="translate(40.883565 60.118423) rotate(-45) scale(0.07 -0.07)">
       <defs>
        <path id="ArialMT-31" d="M 2384 0 
L 1822 0 
L 1822 3584 
Q 1619 3391 1289 3197 
Q 959 3003 697 2906 
L 697 3450 
Q 1169 3672 1522 3987 
Q 1875 4303 2022 4600 
L 2384 4600 
L 2384 0 
z
" transform="scale(0.015625)"/>
        <path id="ArialMT-38" d="M 1131 2484 
Q 781 2613 612 2850 
Q 444 3088 444 3419 
Q 444 3919 803 4259 
Q 1163 4600 1759 4600 
Q 2359 4600 2725 4251 
Q 3091 3903 3091 3403 
Q 3091 3084 2923 2848 
Q 2756 2613 2416 2484 
Q 2838 2347 3058 2040 
Q 3278 1734 3278 1309 
Q 3278 722 2862 322 
Q 2447 -78 1769 -78 
Q 1091 -78 675 323 
Q 259 725 259 1325 
Q 259 1772 486 2073 
Q 713 2375 1131 2484 
z
M 1019 3438 
Q 1019 3113 1228 2906 
Q 1438 2700 1772 2700 
Q 2097 2700 2305 2904 
Q 2513 3109 2513 3406 
Q 2513 3716 2298 3927 
Q 2084 4138 1766 4138 
Q 1444 4138 1231 3931 
Q 1019 3725 1019 3438 
z
M 838 1322 
Q 838 1081 952 856 
Q 1066 631 1291 507 
Q 1516 384 1775 384 
Q 2178 384 2440 643 
Q 2703 903 2703 1303 
Q 2703 1709 2433 1975 
Q 2163 2241 1756 2241 
Q 1359 2241 1098 1978 
Q 838 1716 838 1322 
z
" transform="scale(0.015625)"/>
       </defs>
       <use xlink:href="#ArialMT-30"/>
       <use xlink:href="#ArialMT-2e" transform="translate(55.615234 0)"/>
       <use xlink:href="#ArialMT-31" transform="translate(83.398438 0)"/>
       <use xlink:href="#ArialMT-38" transform="translate(139.013672 0)"/>
      </g>
     </g>
    </g>
    <g id="ytick_3">
     <g id="line2d_10">
      <g>
       <use xlink:href="#mdb7101ef56" x="58.5" y="69.8775" style="stroke: #000000; stroke-width: 0.8"/>
      </g>
     </g>
     <g id="text_10">
      <!-- 0.67 -->
      <g transform="translate(40.883565 75.973423) rotate(-45) scale(0.07 -0.07)">
       <use xlink:href="#ArialMT-30"/>
       <use xlink:href="#ArialMT-2e" transform="translate(55.615234 0)"/>
       <use xlink:href="#ArialMT-36" transform="translate(83.398438 0)"/>
       <use xlink:href="#ArialMT-37" transform="translate(139.013672 0)"/>
      </g>
     </g>
    </g>
    <g id="ytick_4">
     <g id="line2d_11">
      <g>
       <use xlink:href="#mdb7101ef56" x="58.5" y="85.7325" style="stroke: #000000; stroke-width: 0.8"/>
      </g>
     </g>
     <g id="text_11">
      <!-- 0.2 -->
      <g transform="translate(43.636089 90.452162) rotate(-45) scale(0.07 -0.07)">
       <defs>
        <path id="ArialMT-32" d="M 3222 541 
L 3222 0 
L 194 0 
Q 188 203 259 391 
Q 375 700 629 1000 
Q 884 1300 1366 1694 
Q 2113 2306 2375 2664 
Q 2638 3022 2638 3341 
Q 2638 3675 2398 3904 
Q 2159 4134 1775 4134 
Q 1369 4134 1125 3890 
Q 881 3647 878 3216 
L 300 3275 
Q 359 3922 746 4261 
Q 1134 4600 1788 4600 
Q 2447 4600 2831 4234 
Q 3216 3869 3216 3328 
Q 3216 3053 3103 2787 
Q 2991 2522 2730 2228 
Q 2469 1934 1863 1422 
Q 1356 997 1212 845 
Q 1069 694 975 541 
L 3222 541 
z
" transform="scale(0.015625)"/>
       </defs>
       <use xlink:href="#ArialMT-30"/>
       <use xlink:href="#ArialMT-2e" transform="translate(55.615234 0)"/>
       <use xlink:href="#ArialMT-32" transform="translate(83.398438 0)"/>
      </g>
     </g>
    </g>
    <g id="ytick_5">
     <g id="line2d_12">
      <g>
       <use xlink:href="#mdb7101ef56" x="58.5" y="101.5875" style="stroke: #000000; stroke-width: 0.8"/>
      </g>
     </g>
     <g id="text_12">
      <!-- 0.6 -->
      <g transform="translate(43.636089 106.307162) rotate(-45) scale(0.07 -0.07)">
       <use xlink:href="#ArialMT-30"/>
       <use xlink:href="#ArialMT-2e" transform="translate(55.615234 0)"/>
       <use xlink:href="#ArialMT-36" transform="translate(83.398438 0)"/>
      </g>
     </g>
    </g>
    <g id="ytick_6">
     <g id="line2d_13">
      <g>
       <use xlink:href="#mdb7101ef56" x="58.5" y="117.4425" style="stroke: #000000; stroke-width: 0.8"/>
      </g>
     </g>
     <g id="text_13">
      <!-- 0.29 -->
      <g transform="translate(40.883565 123.538423) rotate(-45) scale(0.07 -0.07)">
       <defs>
        <path id="ArialMT-39" d="M 350 1059 
L 891 1109 
Q 959 728 1153 556 
Q 1347 384 1650 384 
Q 1909 384 2104 503 
Q 2300 622 2425 820 
Q 2550 1019 2634 1356 
Q 2719 1694 2719 2044 
Q 2719 2081 2716 2156 
Q 2547 1888 2255 1720 
Q 1963 1553 1622 1553 
Q 1053 1553 659 1965 
Q 266 2378 266 3053 
Q 266 3750 677 4175 
Q 1088 4600 1706 4600 
Q 2153 4600 2523 4359 
Q 2894 4119 3086 3673 
Q 3278 3228 3278 2384 
Q 3278 1506 3087 986 
Q 2897 466 2520 194 
Q 2144 -78 1638 -78 
Q 1100 -78 759 220 
Q 419 519 350 1059 
z
M 2653 3081 
Q 2653 3566 2395 3850 
Q 2138 4134 1775 4134 
Q 1400 4134 1122 3828 
Q 844 3522 844 3034 
Q 844 2597 1108 2323 
Q 1372 2050 1759 2050 
Q 2150 2050 2401 2323 
Q 2653 2597 2653 3081 
z
" transform="scale(0.015625)"/>
       </defs>
       <use xlink:href="#ArialMT-30"/>
       <use xlink:href="#ArialMT-2e" transform="translate(55.615234 0)"/>
       <use xlink:href="#ArialMT-32" transform="translate(83.398438 0)"/>
       <use xlink:href="#ArialMT-39" transform="translate(139.013672 0)"/>
      </g>
     </g>
    </g>
    <g id="ytick_7">
     <g id="line2d_14">
      <g>
       <use xlink:href="#mdb7101ef56" x="58.5" y="133.2975" style="stroke: #000000; stroke-width: 0.8"/>
      </g>
     </g>
     <g id="text_14">
      <!-- 0.74 -->
      <g transform="translate(40.883565 139.393423) rotate(-45) scale(0.07 -0.07)">
       <use xlink:href="#ArialMT-30"/>
       <use xlink:href="#ArialMT-2e" transform="translate(55.615234 0)"/>
       <use xlink:href="#ArialMT-37" transform="translate(83.398438 0)"/>
       <use xlink:href="#ArialMT-34" transform="translate(139.013672 0)"/>
      </g>
     </g>
    </g>
    <g id="ytick_8">
     <g id="line2d_15">
      <g>
       <use xlink:href="#mdb7101ef56" x="58.5" y="149.1525" style="stroke: #000000; stroke-width: 0.8"/>
      </g>
     </g>
     <g id="text_15">
      <!-- 0.16 -->
      <g transform="translate(40.883565 155.248423) rotate(-45) scale(0.07 -0.07)">
       <use xlink:href="#ArialMT-30"/>
       <use xlink:href="#ArialMT-2e" transform="translate(55.615234 0)"/>
       <use xlink:href="#ArialMT-31" transform="translate(83.398438 0)"/>
       <use xlink:href="#ArialMT-36" transform="translate(139.013672 0)"/>
      </g>
     </g>
    </g>
    <g id="ytick_9">
     <g id="line2d_16">
      <g>
       <use xlink:href="#mdb7101ef56" x="58.5" y="165.0075" style="stroke: #000000; stroke-width: 0.8"/>
      </g>
     </g>
     <g id="text_16">
      <!-- 0.71 -->
      <g transform="translate(40.883565 171.103423) rotate(-45) scale(0.07 -0.07)">
       <use xlink:href="#ArialMT-30"/>
       <use xlink:href="#ArialMT-2e" transform="translate(55.615234 0)"/>
       <use xlink:href="#ArialMT-37" transform="translate(83.398438 0)"/>
       <use xlink:href="#ArialMT-31" transform="translate(139.013672 0)"/>
      </g>
     </g>
    </g>
    <g id="ytick_10">
     <g id="line2d_17">
      <g>
       <use xlink:href="#mdb7101ef56" x="58.5" y="180.8625" style="stroke: #000000; stroke-width: 0.8"/>
      </g>
     </g>
     <g id="text_17">
      <!-- 0.2 -->
      <g transform="translate(43.636089 185.582162) rotate(-45) scale(0.07 -0.07)">
       <use xlink:href="#ArialMT-30"/>
       <use xlink:href="#ArialMT-2e" transform="translate(55.615234 0)"/>
       <use xlink:href="#ArialMT-32" transform="translate(83.398438 0)"/>
      </g>
     </g>
    </g>
    <g id="ytick_11">
     <g id="line2d_18">
      <g>
       <use xlink:href="#mdb7101ef56" x="58.5" y="196.7175" style="stroke: #000000; stroke-width: 0.8"/>
      </g>
     </g>
     <g id="text_18">
      <!-- 0.98 -->
      <g transform="translate(40.883565 202.813423) rotate(-45) scale(0.07 -0.07)">
       <use xlink:href="#ArialMT-30"/>
       <use xlink:href="#ArialMT-2e" transform="translate(55.615234 0)"/>
       <use xlink:href="#ArialMT-39" transform="translate(83.398438 0)"/>
       <use xlink:href="#ArialMT-38" transform="translate(139.013672 0)"/>
      </g>
     </g>
    </g>
    <g id="ytick_12">
     <g id="line2d_19">
      <g>
       <use xlink:href="#mdb7101ef56" x="58.5" y="212.5725" style="stroke: #000000; stroke-width: 0.8"/>
      </g>
     </g>
     <g id="text_19">
      <!-- 0.01 -->
      <g transform="translate(40.883565 218.668423) rotate(-45) scale(0.07 -0.07)">
       <use xlink:href="#ArialMT-30"/>
       <use xlink:href="#ArialMT-2e" transform="translate(55.615234 0)"/>
       <use xlink:href="#ArialMT-30" transform="translate(83.398438 0)"/>
       <use xlink:href="#ArialMT-31" transform="translate(139.013672 0)"/>
      </g>
     </g>
    </g>
   </g>
   <g id="text_20">
    <!-- 0.19 -->
    <g style="opacity: 0.6" transform="translate(73.574869 40.235625) scale(0.08 -0.08)">
     <use xlink:href="#ArialMT-30"/>
     <use xlink:href="#ArialMT-2e" transform="translate(55.615234 0)"/>
     <use xlink:href="#ArialMT-31" transform="translate(83.398438 0)"/>
     <use xlink:href="#ArialMT-39" transform="translate(139.013672 0)"/>
    </g>
   </g>
   <g id="text_21">
    <!-- 0.21 -->
    <g style="opacity: 0.6" transform="translate(149.772348 40.235625) scale(0.08 -0.08)">
     <use xlink:href="#ArialMT-30"/>
     <use xlink:href="#ArialMT-2e" transform="translate(55.615234 0)"/>
     <use xlink:href="#ArialMT-32" transform="translate(83.398438 0)"/>
     <use xlink:href="#ArialMT-31" transform="translate(139.013672 0)"/>
    </g>
   </g>
  </g>
  <g id="axes_2">
   <g id="patch_3">
    <path d="M 186.511765 220.5 
L 293.188235 220.5 
L 293.188235 30.24 
L 186.511765 30.24 
z
" style="fill: #ffffff"/>
   </g>
   <g id="QuadMesh_2">
    <path d="M 186.511765 30.24 
L 199.846324 30.24 
L 199.846324 46.095 
L 186.511765 46.095 
L 186.511765 30.24 
" clip-path="url(#pbf8f669e3d)" style="fill: none"/>
    <path d="M 199.846324 30.24 
L 213.180882 30.24 
L 213.180882 46.095 
L 199.846324 46.095 
L 199.846324 30.24 
" clip-path="url(#pbf8f669e3d)" style="fill: none"/>
    <path d="M 213.180882 30.24 
L 226.515441 30.24 
L 226.515441 46.095 
L 213.180882 46.095 
L 213.180882 30.24 
" clip-path="url(#pbf8f669e3d)" style="fill: #4c72b0; fill-opacity: 0.4"/>
    <path d="M 226.515441 30.24 
L 239.85 30.24 
L 239.85 46.095 
L 226.515441 46.095 
L 226.515441 30.24 
" clip-path="url(#pbf8f669e3d)" style="fill: none"/>
    <path d="M 239.85 30.24 
L 253.184559 30.24 
L 253.184559 46.095 
L 239.85 46.095 
L 239.85 30.24 
" clip-path="url(#pbf8f669e3d)" style="fill: none"/>
    <path d="M 253.184559 30.24 
L 266.519118 30.24 
L 266.519118 46.095 
L 253.184559 46.095 
L 253.184559 30.24 
" clip-path="url(#pbf8f669e3d)" style="fill: #4c72b0; fill-opacity: 0.31"/>
    <path d="M 266.519118 30.24 
L 279.853676 30.24 
L 279.853676 46.095 
L 266.519118 46.095 
L 266.519118 30.24 
" clip-path="url(#pbf8f669e3d)" style="fill: #4c72b0; fill-opacity: 0.19"/>
    <path d="M 279.853676 30.24 
L 293.188235 30.24 
L 293.188235 46.095 
L 279.853676 46.095 
L 279.853676 30.24 
" clip-path="url(#pbf8f669e3d)" style="fill: #4c72b0; fill-opacity: 0.1"/>
    <path d="M 186.511765 46.095 
L 199.846324 46.095 
L 199.846324 61.95 
L 186.511765 61.95 
L 186.511765 46.095 
" clip-path="url(#pbf8f669e3d)" style="fill: none"/>
    <path d="M 199.846324 46.095 
L 213.180882 46.095 
L 213.180882 61.95 
L 199.846324 61.95 
L 199.846324 46.095 
" clip-path="url(#pbf8f669e3d)" style="fill: #4c72b0; fill-opacity: 0.25"/>
    <path d="M 213.180882 46.095 
L 226.515441 46.095 
L 226.515441 61.95 
L 213.180882 61.95 
L 213.180882 46.095 
" clip-path="url(#pbf8f669e3d)" style="fill: #4c72b0; fill-opacity: 0.46"/>
    <path d="M 226.515441 46.095 
L 239.85 46.095 
L 239.85 61.95 
L 226.515441 61.95 
L 226.515441 46.095 
" clip-path="url(#pbf8f669e3d)" style="fill: none"/>
    <path d="M 239.85 46.095 
L 253.184559 46.095 
L 253.184559 61.95 
L 239.85 61.95 
L 239.85 46.095 
" clip-path="url(#pbf8f669e3d)" style="fill: none"/>
    <path d="M 253.184559 46.095 
L 266.519118 46.095 
L 266.519118 61.95 
L 253.184559 61.95 
L 253.184559 46.095 
" clip-path="url(#pbf8f669e3d)" style="fill: none"/>
    <path d="M 266.519118 46.095 
L 279.853676 46.095 
L 279.853676 61.95 
L 266.519118 61.95 
L 266.519118 46.095 
" clip-path="url(#pbf8f669e3d)" style="fill: #4c72b0; fill-opacity: 0.08"/>
    <path d="M 279.853676 46.095 
L 293.188235 46.095 
L 293.188235 61.95 
L 279.853676 61.95 
L 279.853676 46.095 
" clip-path="url(#pbf8f669e3d)" style="fill: #4c72b0; fill-opacity: 0.21"/>
    <path d="M 186.511765 61.95 
L 199.846324 61.95 
L 199.846324 77.805 
L 186.511765 77.805 
L 186.511765 61.95 
" clip-path="url(#pbf8f669e3d)" style="fill: #dd8452; fill-opacity: 0.44"/>
    <path d="M 199.846324 61.95 
L 213.180882 61.95 
L 213.180882 77.805 
L 199.846324 77.805 
L 199.846324 61.95 
" clip-path="url(#pbf8f669e3d)" style="fill: none"/>
    <path d="M 213.180882 61.95 
L 226.515441 61.95 
L 226.515441 77.805 
L 213.180882 77.805 
L 213.180882 61.95 
" clip-path="url(#pbf8f669e3d)" style="fill: none"/>
    <path d="M 226.515441 61.95 
L 239.85 61.95 
L 239.85 77.805 
L 226.515441 77.805 
L 226.515441 61.95 
" clip-path="url(#pbf8f669e3d)" style="fill: #dd8452; fill-opacity: 0.34"/>
    <path d="M 239.85 61.95 
L 253.184559 61.95 
L 253.184559 77.805 
L 239.85 77.805 
L 239.85 61.95 
" clip-path="url(#pbf8f669e3d)" style="fill: none"/>
    <path d="M 253.184559 61.95 
L 266.519118 61.95 
L 266.519118 77.805 
L 253.184559 77.805 
L 253.184559 61.95 
" clip-path="url(#pbf8f669e3d)" style="fill: none"/>
    <path d="M 266.519118 61.95 
L 279.853676 61.95 
L 279.853676 77.805 
L 266.519118 77.805 
L 266.519118 61.95 
" clip-path="url(#pbf8f669e3d)" style="fill: #dd8452; fill-opacity: 0.13"/>
    <path d="M 279.853676 61.95 
L 293.188235 61.95 
L 293.188235 77.805 
L 279.853676 77.805 
L 279.853676 61.95 
" clip-path="url(#pbf8f669e3d)" style="fill: #dd8452; fill-opacity: 0.09"/>
    <path d="M 186.511765 77.805 
L 199.846324 77.805 
L 199.846324 93.66 
L 186.511765 93.66 
L 186.511765 77.805 
" clip-path="url(#pbf8f669e3d)" style="fill: #dd8452; fill-opacity: 0.22"/>
    <path d="M 199.846324 77.805 
L 213.180882 77.805 
L 213.180882 93.66 
L 199.846324 93.66 
L 199.846324 77.805 
" clip-path="url(#pbf8f669e3d)" style="fill: none"/>
    <path d="M 213.180882 77.805 
L 226.515441 77.805 
L 226.515441 93.66 
L 213.180882 93.66 
L 213.180882 77.805 
" clip-path="url(#pbf8f669e3d)" style="fill: none"/>
    <path d="M 226.515441 77.805 
L 239.85 77.805 
L 239.85 93.66 
L 226.515441 93.66 
L 226.515441 77.805 
" clip-path="url(#pbf8f669e3d)" style="fill: #dd8452; fill-opacity: 0.52"/>
    <path d="M 239.85 77.805 
L 253.184559 77.805 
L 253.184559 93.66 
L 239.85 93.66 
L 239.85 77.805 
" clip-path="url(#pbf8f669e3d)" style="fill: none"/>
    <path d="M 253.184559 77.805 
L 266.519118 77.805 
L 266.519118 93.66 
L 253.184559 93.66 
L 253.184559 77.805 
" clip-path="url(#pbf8f669e3d)" style="fill: none"/>
    <path d="M 266.519118 77.805 
L 279.853676 77.805 
L 279.853676 93.66 
L 266.519118 93.66 
L 266.519118 77.805 
" clip-path="url(#pbf8f669e3d)" style="fill: #dd8452; fill-opacity: 0.21"/>
    <path d="M 279.853676 77.805 
L 293.188235 77.805 
L 293.188235 93.66 
L 279.853676 93.66 
L 279.853676 77.805 
" clip-path="url(#pbf8f669e3d)" style="fill: #dd8452; fill-opacity: 0.05"/>
    <path d="M 186.511765 93.66 
L 199.846324 93.66 
L 199.846324 109.515 
L 186.511765 109.515 
L 186.511765 93.66 
" clip-path="url(#pbf8f669e3d)" style="fill: none"/>
    <path d="M 199.846324 93.66 
L 213.180882 93.66 
L 213.180882 109.515 
L 199.846324 109.515 
L 199.846324 93.66 
" clip-path="url(#pbf8f669e3d)" style="fill: #55a868; fill-opacity: 0.13"/>
    <path d="M 213.180882 93.66 
L 226.515441 93.66 
L 226.515441 109.515 
L 213.180882 109.515 
L 213.180882 93.66 
" clip-path="url(#pbf8f669e3d)" style="fill: #55a868; fill-opacity: 0.44"/>
    <path d="M 226.515441 93.66 
L 239.85 93.66 
L 239.85 109.515 
L 226.515441 109.515 
L 226.515441 93.66 
" clip-path="url(#pbf8f669e3d)" style="fill: none"/>
    <path d="M 239.85 93.66 
L 253.184559 93.66 
L 253.184559 109.515 
L 239.85 109.515 
L 239.85 93.66 
" clip-path="url(#pbf8f669e3d)" style="fill: none"/>
    <path d="M 253.184559 93.66 
L 266.519118 93.66 
L 266.519118 109.515 
L 253.184559 109.515 
L 253.184559 93.66 
" clip-path="url(#pbf8f669e3d)" style="fill: none"/>
    <path d="M 266.519118 93.66 
L 279.853676 93.66 
L 279.853676 109.515 
L 266.519118 109.515 
L 266.519118 93.66 
" clip-path="url(#pbf8f669e3d)" style="fill: #55a868; fill-opacity: 0.38"/>
    <path d="M 279.853676 93.66 
L 293.188235 93.66 
L 293.188235 109.515 
L 279.853676 109.515 
L 279.853676 93.66 
" clip-path="url(#pbf8f669e3d)" style="fill: #55a868; fill-opacity: 0.05"/>
    <path d="M 186.511765 109.515 
L 199.846324 109.515 
L 199.846324 125.37 
L 186.511765 125.37 
L 186.511765 109.515 
" clip-path="url(#pbf8f669e3d)" style="fill: none"/>
    <path d="M 199.846324 109.515 
L 213.180882 109.515 
L 213.180882 125.37 
L 199.846324 125.37 
L 199.846324 109.515 
" clip-path="url(#pbf8f669e3d)" style="fill: #55a868; fill-opacity: 0.3"/>
    <path d="M 213.180882 109.515 
L 226.515441 109.515 
L 226.515441 125.37 
L 213.180882 125.37 
L 213.180882 109.515 
" clip-path="url(#pbf8f669e3d)" style="fill: #55a868; fill-opacity: 0.24"/>
    <path d="M 226.515441 109.515 
L 239.85 109.515 
L 239.85 125.37 
L 226.515441 125.37 
L 226.515441 109.515 
" clip-path="url(#pbf8f669e3d)" style="fill: none"/>
    <path d="M 239.85 109.515 
L 253.184559 109.515 
L 253.184559 125.37 
L 239.85 125.37 
L 239.85 109.515 
" clip-path="url(#pbf8f669e3d)" style="fill: none"/>
    <path d="M 253.184559 109.515 
L 266.519118 109.515 
L 266.519118 125.37 
L 253.184559 125.37 
L 253.184559 109.515 
" clip-path="url(#pbf8f669e3d)" style="fill: none"/>
    <path d="M 266.519118 109.515 
L 279.853676 109.515 
L 279.853676 125.37 
L 266.519118 125.37 
L 266.519118 109.515 
" clip-path="url(#pbf8f669e3d)" style="fill: #55a868; fill-opacity: 0.09"/>
    <path d="M 279.853676 109.515 
L 293.188235 109.515 
L 293.188235 125.37 
L 279.853676 125.37 
L 279.853676 109.515 
" clip-path="url(#pbf8f669e3d)" style="fill: #55a868; fill-opacity: 0.37"/>
    <path d="M 186.511765 125.37 
L 199.846324 125.37 
L 199.846324 141.225 
L 186.511765 141.225 
L 186.511765 125.37 
" clip-path="url(#pbf8f669e3d)" style="fill: #c44e52; fill-opacity: 0.71"/>
    <path d="M 199.846324 125.37 
L 213.180882 125.37 
L 213.180882 141.225 
L 199.846324 141.225 
L 199.846324 125.37 
" clip-path="url(#pbf8f669e3d)" style="fill: none"/>
    <path d="M 213.180882 125.37 
L 226.515441 125.37 
L 226.515441 141.225 
L 213.180882 141.225 
L 213.180882 125.37 
" clip-path="url(#pbf8f669e3d)" style="fill: none"/>
    <path d="M 226.515441 125.37 
L 239.85 125.37 
L 239.85 141.225 
L 226.515441 141.225 
L 226.515441 125.37 
" clip-path="url(#pbf8f669e3d)" style="fill: none"/>
    <path d="M 239.85 125.37 
L 253.184559 125.37 
L 253.184559 141.225 
L 239.85 141.225 
L 239.85 125.37 
" clip-path="url(#pbf8f669e3d)" style="fill: #c44e52; fill-opacity: 0.21"/>
    <path d="M 253.184559 125.37 
L 266.519118 125.37 
L 266.519118 141.225 
L 253.184559 141.225 
L 253.184559 125.37 
" clip-path="url(#pbf8f669e3d)" style="fill: none"/>
    <path d="M 266.519118 125.37 
L 279.853676 125.37 
L 279.853676 141.225 
L 266.519118 141.225 
L 266.519118 125.37 
" clip-path="url(#pbf8f669e3d)" style="fill: #c44e52; fill-opacity: 0.03"/>
    <path d="M 279.853676 125.37 
L 293.188235 125.37 
L 293.188235 141.225 
L 279.853676 141.225 
L 279.853676 125.37 
" clip-path="url(#pbf8f669e3d)" style="fill: #c44e52; fill-opacity: 0.05"/>
    <path d="M 186.511765 141.225 
L 199.846324 141.225 
L 199.846324 157.08 
L 186.511765 157.08 
L 186.511765 141.225 
" clip-path="url(#pbf8f669e3d)" style="fill: none"/>
    <path d="M 199.846324 141.225 
L 213.180882 141.225 
L 213.180882 157.08 
L 199.846324 157.08 
L 199.846324 141.225 
" clip-path="url(#pbf8f669e3d)" style="fill: #c44e52; fill-opacity: 0.3"/>
    <path d="M 213.180882 141.225 
L 226.515441 141.225 
L 226.515441 157.08 
L 213.180882 157.08 
L 213.180882 141.225 
" clip-path="url(#pbf8f669e3d)" style="fill: #c44e52; fill-opacity: 0.45"/>
    <path d="M 226.515441 141.225 
L 239.85 141.225 
L 239.85 157.08 
L 226.515441 157.08 
L 226.515441 141.225 
" clip-path="url(#pbf8f669e3d)" style="fill: none"/>
    <path d="M 239.85 141.225 
L 253.184559 141.225 
L 253.184559 157.08 
L 239.85 157.08 
L 239.85 141.225 
" clip-path="url(#pbf8f669e3d)" style="fill: none"/>
    <path d="M 253.184559 141.225 
L 266.519118 141.225 
L 266.519118 157.08 
L 253.184559 157.08 
L 253.184559 141.225 
" clip-path="url(#pbf8f669e3d)" style="fill: none"/>
    <path d="M 266.519118 141.225 
L 279.853676 141.225 
L 279.853676 157.08 
L 266.519118 157.08 
L 266.519118 141.225 
" clip-path="url(#pbf8f669e3d)" style="fill: #c44e52; fill-opacity: 0.1"/>
    <path d="M 279.853676 141.225 
L 293.188235 141.225 
L 293.188235 157.08 
L 279.853676 157.08 
L 279.853676 141.225 
" clip-path="url(#pbf8f669e3d)" style="fill: #c44e52; fill-opacity: 0.14"/>
    <path d="M 186.511765 157.08 
L 199.846324 157.08 
L 199.846324 172.935 
L 186.511765 172.935 
L 186.511765 157.08 
" clip-path="url(#pbf8f669e3d)" style="fill: #8172b3; fill-opacity: 0.73"/>
    <path d="M 199.846324 157.08 
L 213.180882 157.08 
L 213.180882 172.935 
L 199.846324 172.935 
L 199.846324 157.08 
" clip-path="url(#pbf8f669e3d)" style="fill: none"/>
    <path d="M 213.180882 157.08 
L 226.515441 157.08 
L 226.515441 172.935 
L 213.180882 172.935 
L 213.180882 157.08 
" clip-path="url(#pbf8f669e3d)" style="fill: none"/>
    <path d="M 226.515441 157.08 
L 239.85 157.08 
L 239.85 172.935 
L 226.515441 172.935 
L 226.515441 157.08 
" clip-path="url(#pbf8f669e3d)" style="fill: none"/>
    <path d="M 239.85 157.08 
L 253.184559 157.08 
L 253.184559 172.935 
L 239.85 172.935 
L 239.85 157.08 
" clip-path="url(#pbf8f669e3d)" style="fill: none"/>
    <path d="M 253.184559 157.08 
L 266.519118 157.08 
L 266.519118 172.935 
L 253.184559 172.935 
L 253.184559 157.08 
" clip-path="url(#pbf8f669e3d)" style="fill: #8172b3; fill-opacity: 0.21"/>
    <path d="M 266.519118 157.08 
L 279.853676 157.08 
L 279.853676 172.935 
L 266.519118 172.935 
L 266.519118 157.08 
" clip-path="url(#pbf8f669e3d)" style="fill: #8172b3; fill-opacity: 0.04"/>
    <path d="M 279.853676 157.08 
L 293.188235 157.08 
L 293.188235 172.935 
L 279.853676 172.935 
L 279.853676 157.08 
" clip-path="url(#pbf8f669e3d)" style="fill: #8172b3; fill-opacity: 0.03"/>
    <path d="M 186.511765 172.935 
L 199.846324 172.935 
L 199.846324 188.79 
L 186.511765 188.79 
L 186.511765 172.935 
" clip-path="url(#pbf8f669e3d)" style="fill: none"/>
    <path d="M 199.846324 172.935 
L 213.180882 172.935 
L 213.180882 188.79 
L 199.846324 188.79 
L 199.846324 172.935 
" clip-path="url(#pbf8f669e3d)" style="fill: #8172b3; fill-opacity: 0.43"/>
    <path d="M 213.180882 172.935 
L 226.515441 172.935 
L 226.515441 188.79 
L 213.180882 188.79 
L 213.180882 172.935 
" clip-path="url(#pbf8f669e3d)" style="fill: none"/>
    <path d="M 226.515441 172.935 
L 239.85 172.935 
L 239.85 188.79 
L 226.515441 188.79 
L 226.515441 172.935 
" clip-path="url(#pbf8f669e3d)" style="fill: none"/>
    <path d="M 239.85 172.935 
L 253.184559 172.935 
L 253.184559 188.79 
L 239.85 188.79 
L 239.85 172.935 
" clip-path="url(#pbf8f669e3d)" style="fill: none"/>
    <path d="M 253.184559 172.935 
L 266.519118 172.935 
L 266.519118 188.79 
L 253.184559 188.79 
L 253.184559 172.935 
" clip-path="url(#pbf8f669e3d)" style="fill: #8172b3; fill-opacity: 0.34"/>
    <path d="M 266.519118 172.935 
L 279.853676 172.935 
L 279.853676 188.79 
L 266.519118 188.79 
L 266.519118 172.935 
" clip-path="url(#pbf8f669e3d)" style="fill: #8172b3; fill-opacity: 0.2"/>
    <path d="M 279.853676 172.935 
L 293.188235 172.935 
L 293.188235 188.79 
L 279.853676 188.79 
L 279.853676 172.935 
" clip-path="url(#pbf8f669e3d)" style="fill: #8172b3; fill-opacity: 0.02"/>
    <path d="M 186.511765 188.79 
L 199.846324 188.79 
L 199.846324 204.645 
L 186.511765 204.645 
L 186.511765 188.79 
" clip-path="url(#pbf8f669e3d)" style="fill: #937860; fill-opacity: 0.4"/>
    <path d="M 199.846324 188.79 
L 213.180882 188.79 
L 213.180882 204.645 
L 199.846324 204.645 
L 199.846324 188.79 
" clip-path="url(#pbf8f669e3d)" style="fill: none"/>
    <path d="M 213.180882 188.79 
L 226.515441 188.79 
L 226.515441 204.645 
L 213.180882 204.645 
L 213.180882 188.79 
" clip-path="url(#pbf8f669e3d)" style="fill: none"/>
    <path d="M 226.515441 188.79 
L 239.85 188.79 
L 239.85 204.645 
L 226.515441 204.645 
L 226.515441 188.79 
" clip-path="url(#pbf8f669e3d)" style="fill: none"/>
    <path d="M 239.85 188.79 
L 253.184559 188.79 
L 253.184559 204.645 
L 239.85 204.645 
L 239.85 188.79 
" clip-path="url(#pbf8f669e3d)" style="fill: none"/>
    <path d="M 253.184559 188.79 
L 266.519118 188.79 
L 266.519118 204.645 
L 253.184559 204.645 
L 253.184559 188.79 
" clip-path="url(#pbf8f669e3d)" style="fill: #937860; fill-opacity: 0.39"/>
    <path d="M 266.519118 188.79 
L 279.853676 188.79 
L 279.853676 204.645 
L 266.519118 204.645 
L 266.519118 188.79 
" clip-path="url(#pbf8f669e3d)" style="fill: #937860; fill-opacity: 0.17"/>
    <path d="M 279.853676 188.79 
L 293.188235 188.79 
L 293.188235 204.645 
L 279.853676 204.645 
L 279.853676 188.79 
" clip-path="url(#pbf8f669e3d)" style="fill: #937860; fill-opacity: 0.04"/>
    <path d="M 186.511765 204.645 
L 199.846324 204.645 
L 199.846324 220.5 
L 186.511765 220.5 
L 186.511765 204.645 
" clip-path="url(#pbf8f669e3d)" style="fill: none"/>
    <path d="M 199.846324 204.645 
L 213.180882 204.645 
L 213.180882 220.5 
L 199.846324 220.5 
L 199.846324 204.645 
" clip-path="url(#pbf8f669e3d)" style="fill: #937860; fill-opacity: 0.47"/>
    <path d="M 213.180882 204.645 
L 226.515441 204.645 
L 226.515441 220.5 
L 213.180882 220.5 
L 213.180882 204.645 
" clip-path="url(#pbf8f669e3d)" style="fill: none"/>
    <path d="M 226.515441 204.645 
L 239.85 204.645 
L 239.85 220.5 
L 226.515441 220.5 
L 226.515441 204.645 
" clip-path="url(#pbf8f669e3d)" style="fill: none"/>
    <path d="M 239.85 204.645 
L 253.184559 204.645 
L 253.184559 220.5 
L 239.85 220.5 
L 239.85 204.645 
" clip-path="url(#pbf8f669e3d)" style="fill: none"/>
    <path d="M 253.184559 204.645 
L 266.519118 204.645 
L 266.519118 220.5 
L 253.184559 220.5 
L 253.184559 204.645 
" clip-path="url(#pbf8f669e3d)" style="fill: #937860; fill-opacity: 0.37"/>
    <path d="M 266.519118 204.645 
L 279.853676 204.645 
L 279.853676 220.5 
L 266.519118 220.5 
L 266.519118 204.645 
" clip-path="url(#pbf8f669e3d)" style="fill: #937860; fill-opacity: 0.15"/>
    <path d="M 279.853676 204.645 
L 293.188235 204.645 
L 293.188235 220.5 
L 279.853676 220.5 
L 279.853676 204.645 
" clip-path="url(#pbf8f669e3d)" style="fill: #937860; fill-opacity: 0.01"/>
   </g>
   <g id="matplotlib.axis_3">
    <g id="xtick_8">
     <g id="line2d_20">
      <g>
       <use xlink:href="#m088f742675" x="193.179044" y="220.5" style="stroke: #000000; stroke-width: 0.8"/>
      </g>
     </g>
     <g id="text_22">
      <!-- LQ -->
      <g transform="translate(190.868573 239.094783) rotate(-45) scale(0.08 -0.08)">
       <defs>
        <path id="ArialMT-4c" d="M 469 0 
L 469 4581 
L 1075 4581 
L 1075 541 
L 3331 541 
L 3331 0 
L 469 0 
z
" transform="scale(0.015625)"/>
        <path id="ArialMT-51" d="M 3966 491 
Q 4388 200 4744 66 
L 4566 -356 
Q 4072 -178 3581 206 
Q 3072 -78 2456 -78 
Q 1834 -78 1328 222 
Q 822 522 548 1065 
Q 275 1609 275 2291 
Q 275 2969 550 3525 
Q 825 4081 1333 4372 
Q 1841 4663 2469 4663 
Q 3103 4663 3612 4361 
Q 4122 4059 4389 3517 
Q 4656 2975 4656 2294 
Q 4656 1728 4484 1276 
Q 4313 825 3966 491 
z
M 2631 1266 
Q 3156 1119 3497 828 
Q 4031 1316 4031 2294 
Q 4031 2850 3842 3265 
Q 3653 3681 3289 3911 
Q 2925 4141 2472 4141 
Q 1794 4141 1347 3677 
Q 900 3213 900 2291 
Q 900 1397 1342 919 
Q 1784 441 2472 441 
Q 2797 441 3084 563 
Q 2800 747 2484 825 
L 2631 1266 
z
" transform="scale(0.015625)"/>
       </defs>
       <use xlink:href="#ArialMT-4c"/>
       <use xlink:href="#ArialMT-51" transform="translate(55.615234 0)"/>
      </g>
     </g>
    </g>
    <g id="xtick_9">
     <g id="line2d_21">
      <g>
       <use xlink:href="#m088f742675" x="206.513603" y="220.5" style="stroke: #000000; stroke-width: 0.8"/>
      </g>
     </g>
     <g id="text_23">
      <!-- LQ10 -->
      <g transform="translate(201.05739 245.386266) rotate(-45) scale(0.08 -0.08)">
       <use xlink:href="#ArialMT-4c"/>
       <use xlink:href="#ArialMT-51" transform="translate(55.615234 0)"/>
       <use xlink:href="#ArialMT-31" transform="translate(133.398438 0)"/>
       <use xlink:href="#ArialMT-30" transform="translate(189.013672 0)"/>
      </g>
     </g>
    </g>
    <g id="xtick_10">
     <g id="line2d_22">
      <g>
       <use xlink:href="#m088f742675" x="219.848162" y="220.5" style="stroke: #000000; stroke-width: 0.8"/>
      </g>
     </g>
     <g id="text_24">
      <!-- VWCd -->
      <g transform="translate(213.138602 247.89296) rotate(-45) scale(0.08 -0.08)">
       <defs>
        <path id="ArialMT-56" d="M 1803 0 
L 28 4581 
L 684 4581 
L 1875 1253 
Q 2019 853 2116 503 
Q 2222 878 2363 1253 
L 3600 4581 
L 4219 4581 
L 2425 0 
L 1803 0 
z
" transform="scale(0.015625)"/>
        <path id="ArialMT-57" d="M 1294 0 
L 78 4581 
L 700 4581 
L 1397 1578 
Q 1509 1106 1591 641 
Q 1766 1375 1797 1488 
L 2669 4581 
L 3400 4581 
L 4056 2263 
Q 4303 1400 4413 641 
Q 4500 1075 4641 1638 
L 5359 4581 
L 5969 4581 
L 4713 0 
L 4128 0 
L 3163 3491 
Q 3041 3928 3019 4028 
Q 2947 3713 2884 3491 
L 1913 0 
L 1294 0 
z
" transform="scale(0.015625)"/>
        <path id="ArialMT-64" d="M 2575 0 
L 2575 419 
Q 2259 -75 1647 -75 
Q 1250 -75 917 144 
Q 584 363 401 755 
Q 219 1147 219 1656 
Q 219 2153 384 2558 
Q 550 2963 881 3178 
Q 1213 3394 1622 3394 
Q 1922 3394 2156 3267 
Q 2391 3141 2538 2938 
L 2538 4581 
L 3097 4581 
L 3097 0 
L 2575 0 
z
M 797 1656 
Q 797 1019 1065 703 
Q 1334 388 1700 388 
Q 2069 388 2326 689 
Q 2584 991 2584 1609 
Q 2584 2291 2321 2609 
Q 2059 2928 1675 2928 
Q 1300 2928 1048 2622 
Q 797 2316 797 1656 
z
" transform="scale(0.015625)"/>
       </defs>
       <use xlink:href="#ArialMT-56"/>
       <use xlink:href="#ArialMT-57" transform="translate(66.699219 0)"/>
       <use xlink:href="#ArialMT-43" transform="translate(161.083984 0)"/>
       <use xlink:href="#ArialMT-64" transform="translate(233.300781 0)"/>
      </g>
     </g>
    </g>
    <g id="xtick_11">
     <g id="line2d_23">
      <g>
       <use xlink:href="#m088f742675" x="233.182721" y="220.5" style="stroke: #000000; stroke-width: 0.8"/>
      </g>
     </g>
     <g id="text_25">
      <!-- VWCs -->
      <g transform="translate(226.631818 247.575645) rotate(-45) scale(0.08 -0.08)">
       <defs>
        <path id="ArialMT-73" d="M 197 991 
L 753 1078 
Q 800 744 1014 566 
Q 1228 388 1613 388 
Q 2000 388 2187 545 
Q 2375 703 2375 916 
Q 2375 1106 2209 1216 
Q 2094 1291 1634 1406 
Q 1016 1563 777 1677 
Q 538 1791 414 1992 
Q 291 2194 291 2438 
Q 291 2659 392 2848 
Q 494 3038 669 3163 
Q 800 3259 1026 3326 
Q 1253 3394 1513 3394 
Q 1903 3394 2198 3281 
Q 2494 3169 2634 2976 
Q 2775 2784 2828 2463 
L 2278 2388 
Q 2241 2644 2061 2787 
Q 1881 2931 1553 2931 
Q 1166 2931 1000 2803 
Q 834 2675 834 2503 
Q 834 2394 903 2306 
Q 972 2216 1119 2156 
Q 1203 2125 1616 2013 
Q 2213 1853 2448 1751 
Q 2684 1650 2818 1456 
Q 2953 1263 2953 975 
Q 2953 694 2789 445 
Q 2625 197 2315 61 
Q 2006 -75 1616 -75 
Q 969 -75 630 194 
Q 291 463 197 991 
z
" transform="scale(0.015625)"/>
       </defs>
       <use xlink:href="#ArialMT-56"/>
       <use xlink:href="#ArialMT-57" transform="translate(66.699219 0)"/>
       <use xlink:href="#ArialMT-43" transform="translate(161.083984 0)"/>
       <use xlink:href="#ArialMT-73" transform="translate(233.300781 0)"/>
      </g>
     </g>
    </g>
    <g id="xtick_12">
     <g id="line2d_24">
      <g>
       <use xlink:href="#m088f742675" x="246.517279" y="220.5" style="stroke: #000000; stroke-width: 0.8"/>
      </g>
     </g>
     <g id="text_26">
      <!-- Tw -->
      <g transform="translate(244.365023 238.778353) rotate(-45) scale(0.08 -0.08)">
       <defs>
        <path id="ArialMT-54" d="M 1659 0 
L 1659 4041 
L 150 4041 
L 150 4581 
L 3781 4581 
L 3781 4041 
L 2266 4041 
L 2266 0 
L 1659 0 
z
" transform="scale(0.015625)"/>
        <path id="ArialMT-77" d="M 1034 0 
L 19 3319 
L 600 3319 
L 1128 1403 
L 1325 691 
Q 1338 744 1497 1375 
L 2025 3319 
L 2603 3319 
L 3100 1394 
L 3266 759 
L 3456 1400 
L 4025 3319 
L 4572 3319 
L 3534 0 
L 2950 0 
L 2422 1988 
L 2294 2553 
L 1622 0 
L 1034 0 
z
" transform="scale(0.015625)"/>
       </defs>
       <use xlink:href="#ArialMT-54"/>
       <use xlink:href="#ArialMT-77" transform="translate(55.583984 0)"/>
      </g>
     </g>
    </g>
    <g id="xtick_13">
     <g id="line2d_25">
      <g>
       <use xlink:href="#m088f742675" x="259.851838" y="220.5" style="stroke: #000000; stroke-width: 0.8"/>
      </g>
     </g>
     <g id="text_27">
      <!-- Turb -->
      <g transform="translate(255.60522 242.967077) rotate(-45) scale(0.08 -0.08)">
       <defs>
        <path id="ArialMT-75" d="M 2597 0 
L 2597 488 
Q 2209 -75 1544 -75 
Q 1250 -75 995 37 
Q 741 150 617 320 
Q 494 491 444 738 
Q 409 903 409 1263 
L 409 3319 
L 972 3319 
L 972 1478 
Q 972 1038 1006 884 
Q 1059 663 1231 536 
Q 1403 409 1656 409 
Q 1909 409 2131 539 
Q 2353 669 2445 892 
Q 2538 1116 2538 1541 
L 2538 3319 
L 3100 3319 
L 3100 0 
L 2597 0 
z
" transform="scale(0.015625)"/>
        <path id="ArialMT-72" d="M 416 0 
L 416 3319 
L 922 3319 
L 922 2816 
Q 1116 3169 1280 3281 
Q 1444 3394 1641 3394 
Q 1925 3394 2219 3213 
L 2025 2691 
Q 1819 2813 1613 2813 
Q 1428 2813 1281 2702 
Q 1134 2591 1072 2394 
Q 978 2094 978 1738 
L 978 0 
L 416 0 
z
" transform="scale(0.015625)"/>
        <path id="ArialMT-62" d="M 941 0 
L 419 0 
L 419 4581 
L 981 4581 
L 981 2947 
Q 1338 3394 1891 3394 
Q 2197 3394 2470 3270 
Q 2744 3147 2920 2923 
Q 3097 2700 3197 2384 
Q 3297 2069 3297 1709 
Q 3297 856 2875 390 
Q 2453 -75 1863 -75 
Q 1275 -75 941 416 
L 941 0 
z
M 934 1684 
Q 934 1088 1097 822 
Q 1363 388 1816 388 
Q 2184 388 2453 708 
Q 2722 1028 2722 1663 
Q 2722 2313 2464 2622 
Q 2206 2931 1841 2931 
Q 1472 2931 1203 2611 
Q 934 2291 934 1684 
z
" transform="scale(0.015625)"/>
       </defs>
       <use xlink:href="#ArialMT-54"/>
       <use xlink:href="#ArialMT-75" transform="translate(57.333984 0)"/>
       <use xlink:href="#ArialMT-72" transform="translate(112.949219 0)"/>
       <use xlink:href="#ArialMT-62" transform="translate(146.25 0)"/>
      </g>
     </g>
    </g>
    <g id="xtick_14">
     <g id="line2d_26">
      <g>
       <use xlink:href="#m088f742675" x="273.186397" y="220.5" style="stroke: #000000; stroke-width: 0.8"/>
      </g>
     </g>
     <g id="text_28">
      <!-- S -->
      <g transform="translate(272.762133 235.322369) rotate(-45) scale(0.08 -0.08)">
       <use xlink:href="#ArialMT-53"/>
      </g>
     </g>
    </g>
    <g id="xtick_15">
     <g id="line2d_27">
      <g>
       <use xlink:href="#m088f742675" x="286.520956" y="220.5" style="stroke: #000000; stroke-width: 0.8"/>
      </g>
     </g>
     <g id="text_29">
      <!-- R -->
      <g transform="translate(285.940686 235.63438) rotate(-45) scale(0.08 -0.08)">
       <defs>
        <path id="ArialMT-52" d="M 503 0 
L 503 4581 
L 2534 4581 
Q 3147 4581 3465 4457 
Q 3784 4334 3975 4021 
Q 4166 3709 4166 3331 
Q 4166 2844 3850 2509 
Q 3534 2175 2875 2084 
Q 3116 1969 3241 1856 
Q 3506 1613 3744 1247 
L 4541 0 
L 3778 0 
L 3172 953 
Q 2906 1366 2734 1584 
Q 2563 1803 2427 1890 
Q 2291 1978 2150 2013 
Q 2047 2034 1813 2034 
L 1109 2034 
L 1109 0 
L 503 0 
z
M 1109 2559 
L 2413 2559 
Q 2828 2559 3062 2645 
Q 3297 2731 3419 2920 
Q 3541 3109 3541 3331 
Q 3541 3656 3305 3865 
Q 3069 4075 2559 4075 
L 1109 4075 
L 1109 2559 
z
" transform="scale(0.015625)"/>
       </defs>
       <use xlink:href="#ArialMT-52"/>
      </g>
     </g>
    </g>
   </g>
   <g id="matplotlib.axis_4">
    <g id="ytick_13">
     <g id="line2d_28">
      <g>
       <use xlink:href="#mdb7101ef56" x="186.511765" y="38.1675" style="stroke: #000000; stroke-width: 0.8"/>
      </g>
     </g>
     <g id="text_30">
      <!-- 0.25 -->
      <g transform="translate(168.89533 44.263423) rotate(-45) scale(0.07 -0.07)">
       <defs>
        <path id="ArialMT-35" d="M 266 1200 
L 856 1250 
Q 922 819 1161 601 
Q 1400 384 1738 384 
Q 2144 384 2425 690 
Q 2706 997 2706 1503 
Q 2706 1984 2436 2262 
Q 2166 2541 1728 2541 
Q 1456 2541 1237 2417 
Q 1019 2294 894 2097 
L 366 2166 
L 809 4519 
L 3088 4519 
L 3088 3981 
L 1259 3981 
L 1013 2750 
Q 1425 3038 1878 3038 
Q 2478 3038 2890 2622 
Q 3303 2206 3303 1553 
Q 3303 931 2941 478 
Q 2500 -78 1738 -78 
Q 1113 -78 717 272 
Q 322 622 266 1200 
z
" transform="scale(0.015625)"/>
       </defs>
       <use xlink:href="#ArialMT-30"/>
       <use xlink:href="#ArialMT-2e" transform="translate(55.615234 0)"/>
       <use xlink:href="#ArialMT-32" transform="translate(83.398438 0)"/>
       <use xlink:href="#ArialMT-35" transform="translate(139.013672 0)"/>
      </g>
     </g>
    </g>
    <g id="ytick_14">
     <g id="line2d_29">
      <g>
       <use xlink:href="#mdb7101ef56" x="186.511765" y="54.0225" style="stroke: #000000; stroke-width: 0.8"/>
      </g>
     </g>
     <g id="text_31">
      <!-- 0.28 -->
      <g transform="translate(168.89533 60.118423) rotate(-45) scale(0.07 -0.07)">
       <use xlink:href="#ArialMT-30"/>
       <use xlink:href="#ArialMT-2e" transform="translate(55.615234 0)"/>
       <use xlink:href="#ArialMT-32" transform="translate(83.398438 0)"/>
       <use xlink:href="#ArialMT-38" transform="translate(139.013672 0)"/>
      </g>
     </g>
    </g>
    <g id="ytick_15">
     <g id="line2d_30">
      <g>
       <use xlink:href="#mdb7101ef56" x="186.511765" y="69.8775" style="stroke: #000000; stroke-width: 0.8"/>
      </g>
     </g>
     <g id="text_32">
      <!-- 0.21 -->
      <g transform="translate(168.89533 75.973423) rotate(-45) scale(0.07 -0.07)">
       <use xlink:href="#ArialMT-30"/>
       <use xlink:href="#ArialMT-2e" transform="translate(55.615234 0)"/>
       <use xlink:href="#ArialMT-32" transform="translate(83.398438 0)"/>
       <use xlink:href="#ArialMT-31" transform="translate(139.013672 0)"/>
      </g>
     </g>
    </g>
    <g id="ytick_16">
     <g id="line2d_31">
      <g>
       <use xlink:href="#mdb7101ef56" x="186.511765" y="85.7325" style="stroke: #000000; stroke-width: 0.8"/>
      </g>
     </g>
     <g id="text_33">
      <!-- 0.29 -->
      <g transform="translate(168.89533 91.828423) rotate(-45) scale(0.07 -0.07)">
       <use xlink:href="#ArialMT-30"/>
       <use xlink:href="#ArialMT-2e" transform="translate(55.615234 0)"/>
       <use xlink:href="#ArialMT-32" transform="translate(83.398438 0)"/>
       <use xlink:href="#ArialMT-39" transform="translate(139.013672 0)"/>
      </g>
     </g>
    </g>
    <g id="ytick_17">
     <g id="line2d_32">
      <g>
       <use xlink:href="#mdb7101ef56" x="186.511765" y="101.5875" style="stroke: #000000; stroke-width: 0.8"/>
      </g>
     </g>
     <g id="text_34">
      <!-- 0.24 -->
      <g transform="translate(168.89533 107.683423) rotate(-45) scale(0.07 -0.07)">
       <use xlink:href="#ArialMT-30"/>
       <use xlink:href="#ArialMT-2e" transform="translate(55.615234 0)"/>
       <use xlink:href="#ArialMT-32" transform="translate(83.398438 0)"/>
       <use xlink:href="#ArialMT-34" transform="translate(139.013672 0)"/>
      </g>
     </g>
    </g>
    <g id="ytick_18">
     <g id="line2d_33">
      <g>
       <use xlink:href="#mdb7101ef56" x="186.511765" y="117.4425" style="stroke: #000000; stroke-width: 0.8"/>
      </g>
     </g>
     <g id="text_35">
      <!-- 0.25 -->
      <g transform="translate(168.89533 123.538423) rotate(-45) scale(0.07 -0.07)">
       <use xlink:href="#ArialMT-30"/>
       <use xlink:href="#ArialMT-2e" transform="translate(55.615234 0)"/>
       <use xlink:href="#ArialMT-32" transform="translate(83.398438 0)"/>
       <use xlink:href="#ArialMT-35" transform="translate(139.013672 0)"/>
      </g>
     </g>
    </g>
    <g id="ytick_19">
     <g id="line2d_34">
      <g>
       <use xlink:href="#mdb7101ef56" x="186.511765" y="133.2975" style="stroke: #000000; stroke-width: 0.8"/>
      </g>
     </g>
     <g id="text_36">
      <!-- 0.35 -->
      <g transform="translate(168.89533 139.393423) rotate(-45) scale(0.07 -0.07)">
       <use xlink:href="#ArialMT-30"/>
       <use xlink:href="#ArialMT-2e" transform="translate(55.615234 0)"/>
       <use xlink:href="#ArialMT-33" transform="translate(83.398438 0)"/>
       <use xlink:href="#ArialMT-35" transform="translate(139.013672 0)"/>
      </g>
     </g>
    </g>
    <g id="ytick_20">
     <g id="line2d_35">
      <g>
       <use xlink:href="#mdb7101ef56" x="186.511765" y="149.1525" style="stroke: #000000; stroke-width: 0.8"/>
      </g>
     </g>
     <g id="text_37">
      <!-- 0.29 -->
      <g transform="translate(168.89533 155.248423) rotate(-45) scale(0.07 -0.07)">
       <use xlink:href="#ArialMT-30"/>
       <use xlink:href="#ArialMT-2e" transform="translate(55.615234 0)"/>
       <use xlink:href="#ArialMT-32" transform="translate(83.398438 0)"/>
       <use xlink:href="#ArialMT-39" transform="translate(139.013672 0)"/>
      </g>
     </g>
    </g>
    <g id="ytick_21">
     <g id="line2d_36">
      <g>
       <use xlink:href="#mdb7101ef56" x="186.511765" y="165.0075" style="stroke: #000000; stroke-width: 0.8"/>
      </g>
     </g>
     <g id="text_38">
      <!-- 0.48 -->
      <g transform="translate(168.89533 171.103423) rotate(-45) scale(0.07 -0.07)">
       <use xlink:href="#ArialMT-30"/>
       <use xlink:href="#ArialMT-2e" transform="translate(55.615234 0)"/>
       <use xlink:href="#ArialMT-34" transform="translate(83.398438 0)"/>
       <use xlink:href="#ArialMT-38" transform="translate(139.013672 0)"/>
      </g>
     </g>
    </g>
    <g id="ytick_22">
     <g id="line2d_37">
      <g>
       <use xlink:href="#mdb7101ef56" x="186.511765" y="180.8625" style="stroke: #000000; stroke-width: 0.8"/>
      </g>
     </g>
     <g id="text_39">
      <!-- 0.32 -->
      <g transform="translate(168.89533 186.958423) rotate(-45) scale(0.07 -0.07)">
       <use xlink:href="#ArialMT-30"/>
       <use xlink:href="#ArialMT-2e" transform="translate(55.615234 0)"/>
       <use xlink:href="#ArialMT-33" transform="translate(83.398438 0)"/>
       <use xlink:href="#ArialMT-32" transform="translate(139.013672 0)"/>
      </g>
     </g>
    </g>
    <g id="ytick_23">
     <g id="line2d_38">
      <g>
       <use xlink:href="#mdb7101ef56" x="186.511765" y="196.7175" style="stroke: #000000; stroke-width: 0.8"/>
      </g>
     </g>
     <g id="text_40">
      <!-- 0.47 -->
      <g transform="translate(168.89533 202.813423) rotate(-45) scale(0.07 -0.07)">
       <use xlink:href="#ArialMT-30"/>
       <use xlink:href="#ArialMT-2e" transform="translate(55.615234 0)"/>
       <use xlink:href="#ArialMT-34" transform="translate(83.398438 0)"/>
       <use xlink:href="#ArialMT-37" transform="translate(139.013672 0)"/>
      </g>
     </g>
    </g>
    <g id="ytick_24">
     <g id="line2d_39">
      <g>
       <use xlink:href="#mdb7101ef56" x="186.511765" y="212.5725" style="stroke: #000000; stroke-width: 0.8"/>
      </g>
     </g>
     <g id="text_41">
      <!-- 0.14 -->
      <g transform="translate(168.89533 218.668423) rotate(-45) scale(0.07 -0.07)">
       <use xlink:href="#ArialMT-30"/>
       <use xlink:href="#ArialMT-2e" transform="translate(55.615234 0)"/>
       <use xlink:href="#ArialMT-31" transform="translate(83.398438 0)"/>
       <use xlink:href="#ArialMT-34" transform="translate(139.013672 0)"/>
      </g>
     </g>
    </g>
   </g>
   <g id="text_42">
    <!-- 0 -->
    <g style="opacity: 0.6" transform="translate(191.510763 39.718594) scale(0.06 -0.06)">
     <use xlink:href="#ArialMT-30"/>
    </g>
   </g>
   <g id="text_43">
    <!-- 0 -->
    <g style="opacity: 0.6" transform="translate(204.845322 39.718594) scale(0.06 -0.06)">
     <use xlink:href="#ArialMT-30"/>
    </g>
   </g>
   <g id="text_44">
    <!-- 40 -->
    <g style="opacity: 0.6" transform="translate(216.511599 39.718594) scale(0.06 -0.06)">
     <use xlink:href="#ArialMT-34"/>
     <use xlink:href="#ArialMT-30" transform="translate(55.615234 0)"/>
    </g>
   </g>
   <g id="text_45">
    <!-- 0 -->
    <g style="opacity: 0.6" transform="translate(231.514439 39.718594) scale(0.06 -0.06)">
     <use xlink:href="#ArialMT-30"/>
    </g>
   </g>
   <g id="text_46">
    <!-- 0 -->
    <g style="opacity: 0.6" transform="translate(244.848998 39.718594) scale(0.06 -0.06)">
     <use xlink:href="#ArialMT-30"/>
    </g>
   </g>
   <g id="text_47">
    <!-- 31 -->
    <g style="opacity: 0.6" transform="translate(256.515276 39.718594) scale(0.06 -0.06)">
     <use xlink:href="#ArialMT-33"/>
     <use xlink:href="#ArialMT-31" transform="translate(55.615234 0)"/>
    </g>
   </g>
   <g id="text_48">
    <!-- 19 -->
    <g style="opacity: 0.6" transform="translate(269.849835 39.718594) scale(0.06 -0.06)">
     <use xlink:href="#ArialMT-31"/>
     <use xlink:href="#ArialMT-39" transform="translate(55.615234 0)"/>
    </g>
   </g>
   <g id="text_49">
    <!-- 10 -->
    <g style="opacity: 0.6" transform="translate(283.184393 39.718594) scale(0.06 -0.06)">
     <use xlink:href="#ArialMT-31"/>
     <use xlink:href="#ArialMT-30" transform="translate(55.615234 0)"/>
    </g>
   </g>
   <g id="text_50">
    <!-- 0 -->
    <g style="opacity: 0.6" transform="translate(191.510763 55.573594) scale(0.06 -0.06)">
     <use xlink:href="#ArialMT-30"/>
    </g>
   </g>
   <g id="text_51">
    <!-- 25 -->
    <g style="opacity: 0.6" transform="translate(203.17704 55.573594) scale(0.06 -0.06)">
     <use xlink:href="#ArialMT-32"/>
     <use xlink:href="#ArialMT-35" transform="translate(55.615234 0)"/>
    </g>
   </g>
   <g id="text_52">
    <!-- 46 -->
    <g style="opacity: 0.6" transform="translate(216.511599 55.573594) scale(0.06 -0.06)">
     <use xlink:href="#ArialMT-34"/>
     <use xlink:href="#ArialMT-36" transform="translate(55.615234 0)"/>
    </g>
   </g>
   <g id="text_53">
    <!-- 0 -->
    <g style="opacity: 0.6" transform="translate(231.514439 55.573594) scale(0.06 -0.06)">
     <use xlink:href="#ArialMT-30"/>
    </g>
   </g>
  </g>
  <g id="axes_3">
   <g id="matplotlib.axis_5">
    <g id="xtick_16">
     <g id="line2d_40">
      <g>
       <use xlink:href="#m088f742675" x="314.523529" y="220.5" style="stroke: #000000; stroke-width: 0.8"/>
      </g>
     </g>
     <g id="text_54">
      <!-- 0.0 -->
      <g transform="translate(306.571967 235.098437) scale(0.1 -0.1)">
       <defs>
        <path id="DejaVuSans-Oblique-30" d="M 2444 4750 
Q 3078 4750 3414 4328 
Q 3750 3906 3750 3116 
Q 3750 2516 3592 1923 
Q 3434 1331 3150 863 
Q 2859 394 2467 151 
Q 2075 -91 1600 -91 
Q 988 -91 653 334 
Q 319 759 319 1544 
Q 319 2138 480 2733 
Q 641 3328 928 3794 
Q 1216 4263 1602 4506 
Q 1988 4750 2444 4750 
z
M 2406 4250 
Q 2169 4250 1955 4123 
Q 1741 3997 1569 3750 
Q 1281 3338 1111 2720 
Q 941 2103 941 1453 
Q 941 938 1123 673 
Q 1306 409 1663 409 
Q 1913 409 2125 536 
Q 2338 663 2509 909 
Q 2794 1319 2961 1936 
Q 3128 2553 3128 3206 
Q 3128 3722 2945 3986 
Q 2763 4250 2406 4250 
z
" transform="scale(0.015625)"/>
        <path id="DejaVuSans-Oblique-2e" d="M 525 794 
L 1184 794 
L 1031 0 
L 372 0 
L 525 794 
z
" transform="scale(0.015625)"/>
       </defs>
       <use xlink:href="#DejaVuSans-Oblique-30"/>
       <use xlink:href="#DejaVuSans-Oblique-2e" transform="translate(63.623047 0)"/>
       <use xlink:href="#DejaVuSans-Oblique-30" transform="translate(95.410156 0)"/>
      </g>
     </g>
    </g>
    <g id="xtick_17">
     <g id="line2d_41">
      <g>
       <use xlink:href="#m088f742675" x="367.861765" y="220.5" style="stroke: #000000; stroke-width: 0.8"/>
      </g>
     </g>
     <g id="text_55">
      <!-- 0.5 -->
      <g transform="translate(359.910202 235.098437) scale(0.1 -0.1)">
       <defs>
        <path id="DejaVuSans-Oblique-35" d="M 3719 4666 
L 3622 4141 
L 1691 4141 
L 1466 2988 
Q 1609 3034 1757 3056 
Q 1906 3078 2059 3078 
Q 2706 3078 3081 2731 
Q 3456 2384 3456 1791 
Q 3456 1375 3264 994 
Q 3072 613 2719 325 
Q 2469 125 2108 17 
Q 1747 -91 1319 -91 
Q 1038 -91 744 -41 
Q 450 9 128 109 
L 244 697 
Q 531 556 820 486 
Q 1109 416 1403 416 
Q 2013 416 2411 781 
Q 2809 1147 2809 1697 
Q 2809 2103 2548 2328 
Q 2288 2553 1819 2553 
Q 1572 2553 1305 2495 
Q 1038 2438 756 2322 
L 1209 4666 
L 3719 4666 
z
" transform="scale(0.015625)"/>
       </defs>
       <use xlink:href="#DejaVuSans-Oblique-30"/>
       <use xlink:href="#DejaVuSans-Oblique-2e" transform="translate(63.623047 0)"/>
       <use xlink:href="#DejaVuSans-Oblique-35" transform="translate(95.410156 0)"/>
      </g>
     </g>
    </g>
    <g id="xtick_18">
     <g id="line2d_42">
      <g>
       <use xlink:href="#m088f742675" x="421.2" y="220.5" style="stroke: #000000; stroke-width: 0.8"/>
      </g>
     </g>
     <g id="text_56">
      <!-- 1.0 -->
      <g transform="translate(413.248437 235.098437) scale(0.1 -0.1)">
       <defs>
        <path id="DejaVuSans-Oblique-31" d="M 416 531 
L 1447 531 
L 2144 4122 
L 978 3897 
L 1088 4441 
L 2247 4666 
L 2881 4666 
L 2075 531 
L 3103 531 
L 3003 0 
L 313 0 
L 416 531 
z
" transform="scale(0.015625)"/>
       </defs>
       <use xlink:href="#DejaVuSans-Oblique-31"/>
       <use xlink:href="#DejaVuSans-Oblique-2e" transform="translate(63.623047 0)"/>
       <use xlink:href="#DejaVuSans-Oblique-30" transform="translate(95.410156 0)"/>
      </g>
     </g>
    </g>
   </g>
   <g id="matplotlib.axis_6"/>
   <g id="LineCollection_1">
    <path d="M 314.523529 46.095 
L 337.641223 46.095 
" clip-path="url(#pced1f95478)" style="fill: none; stroke: #4c72b0; stroke-width: 12"/>
   </g>
   <g id="LineCollection_2">
    <path d="M 314.523529 77.805 
L 335.969122 77.805 
" clip-path="url(#pced1f95478)" style="fill: none; stroke: #dd8452; stroke-width: 12"/>
   </g>
   <g id="LineCollection_3">
    <path d="M 314.523529 109.515 
L 337.657463 109.515 
" clip-path="url(#pced1f95478)" style="fill: none; stroke: #55a868; stroke-width: 12"/>
   </g>
   <g id="LineCollection_4">
    <path d="M 314.523529 141.225 
L 347.312991 141.225 
" clip-path="url(#pced1f95478)" style="fill: none; stroke: #c44e52; stroke-width: 12"/>
   </g>
   <g id="LineCollection_5">
    <path d="M 314.523529 172.935 
L 357.368349 172.935 
" clip-path="url(#pced1f95478)" style="fill: none; stroke: #8172b3; stroke-width: 12"/>
   </g>
   <g id="LineCollection_6">
    <path d="M 314.523529 204.645 
L 363.750898 204.645 
" clip-path="url(#pced1f95478)" style="fill: none; stroke: #937860; stroke-width: 12"/>
   </g>
   <g id="text_57">
    <!-- 0.22 -->
    <g transform="translate(337.641223 46.095) scale(0.1 -0.1)">
     <defs>
      <path id="DejaVuSans-Oblique-32" d="M 2950 2253 
L 934 525 
L 3163 525 
L 3053 0 
L 25 0 
L 128 531 
L 2234 2338 
Q 2656 2703 2832 2979 
Q 3009 3256 3009 3547 
Q 3009 3850 2796 4040 
Q 2584 4231 2241 4231 
Q 1944 4231 1581 4125 
Q 1219 4019 806 3816 
L 922 4441 
Q 1309 4594 1662 4672 
Q 2016 4750 2316 4750 
Q 2928 4750 3301 4425 
Q 3675 4100 3675 3572 
Q 3675 3216 3497 2892 
Q 3319 2569 2950 2253 
z
" transform="scale(0.015625)"/>
     </defs>
     <use xlink:href="#DejaVuSans-Oblique-30"/>
     <use xlink:href="#DejaVuSans-Oblique-2e" transform="translate(63.623047 0)"/>
     <use xlink:href="#DejaVuSans-Oblique-32" transform="translate(95.410156 0)"/>
     <use xlink:href="#DejaVuSans-Oblique-32" transform="translate(159.033203 0)"/>
    </g>
   </g>
   <g id="text_58">
    <!-- 0.2 -->
    <g transform="translate(335.969122 77.805) scale(0.1 -0.1)">
     <use xlink:href="#DejaVuSans-Oblique-30"/>
     <use xlink:href="#DejaVuSans-Oblique-2e" transform="translate(63.623047 0)"/>
     <use xlink:href="#DejaVuSans-Oblique-32" transform="translate(95.410156 0)"/>
    </g>
   </g>
   <g id="text_59">
    <!-- 0.22 -->
    <g transform="translate(337.657463 109.515) scale(0.1 -0.1)">
     <use xlink:href="#DejaVuSans-Oblique-30"/>
     <use xlink:href="#DejaVuSans-Oblique-2e" transform="translate(63.623047 0)"/>
     <use xlink:href="#DejaVuSans-Oblique-32" transform="translate(95.410156 0)"/>
     <use xlink:href="#DejaVuSans-Oblique-32" transform="translate(159.033203 0)"/>
    </g>
   </g>
   <g id="text_60">
    <!-- 0.31 -->
    <g transform="translate(347.312991 141.225) scale(0.1 -0.1)">
     <defs>
      <path id="DejaVuSans-Oblique-33" d="M 1013 4550 
Q 1356 4650 1679 4700 
Q 2003 4750 2316 4750 
Q 2934 4750 3296 4475 
Q 3659 4200 3659 3738 
Q 3659 3284 3373 2959 
Q 3088 2634 2584 2516 
Q 2978 2403 3162 2165 
Q 3347 1928 3347 1538 
Q 3347 1163 3167 834 
Q 2988 506 2650 269 
Q 2394 88 2037 -1 
Q 1681 -91 1216 -91 
Q 922 -91 622 -33 
Q 322 25 13 141 
L 128 738 
Q 422 575 720 495 
Q 1019 416 1331 416 
Q 1947 416 2330 733 
Q 2713 1050 2713 1556 
Q 2713 1881 2469 2057 
Q 2225 2234 1772 2234 
L 1228 2234 
L 1325 2747 
L 1900 2747 
Q 2419 2747 2717 2984 
Q 3016 3222 3016 3628 
Q 3016 3922 2797 4083 
Q 2578 4244 2181 4244 
Q 1881 4244 1567 4180 
Q 1253 4116 916 3988 
L 1013 4550 
z
" transform="scale(0.015625)"/>
     </defs>
     <use xlink:href="#DejaVuSans-Oblique-30"/>
     <use xlink:href="#DejaVuSans-Oblique-2e" transform="translate(63.623047 0)"/>
     <use xlink:href="#DejaVuSans-Oblique-33" transform="translate(95.410156 0)"/>
     <use xlink:href="#DejaVuSans-Oblique-31" transform="translate(159.033203 0)"/>
    </g>
   </g>
   <g id="text_61">
    <!-- 0.4 -->
    <g transform="translate(357.368349 172.935) scale(0.1 -0.1)">
     <defs>
      <path id="DejaVuSans-Oblique-34" d="M 2753 4666 
L 3547 4666 
L 2950 1625 
L 3616 1625 
L 3513 1100 
L 2847 1100 
L 2638 0 
L 2009 0 
L 2222 1100 
L 116 1100 
L 238 1709 
L 2753 4666 
z
M 2809 4116 
L 728 1625 
L 2322 1625 
L 2809 4116 
z
" transform="scale(0.015625)"/>
     </defs>
     <use xlink:href="#DejaVuSans-Oblique-30"/>
     <use xlink:href="#DejaVuSans-Oblique-2e" transform="translate(63.623047 0)"/>
     <use xlink:href="#DejaVuSans-Oblique-34" transform="translate(95.410156 0)"/>
    </g>
   </g>
   <g id="text_62">
    <!-- 0.46 -->
    <g transform="translate(363.750898 204.645) scale(0.1 -0.1)">
     <defs>
      <path id="DejaVuSans-Oblique-36" d="M 2938 1728 
Q 2938 2125 2734 2354 
Q 2531 2584 2181 2584 
Q 1697 2584 1367 2211 
Q 1038 1838 1038 1288 
Q 1038 875 1239 642 
Q 1441 409 1797 409 
Q 2284 409 2611 792 
Q 2938 1175 2938 1728 
z
M 3788 4556 
L 3681 3981 
Q 3500 4100 3265 4162 
Q 3031 4225 2766 4225 
Q 2119 4225 1726 3819 
Q 1334 3413 1141 2547 
Q 1369 2813 1670 2948 
Q 1972 3084 2322 3084 
Q 2894 3084 3233 2754 
Q 3572 2425 3572 1869 
Q 3572 1413 3405 1020 
Q 3238 628 2919 331 
Q 2700 128 2409 18 
Q 2119 -91 1791 -91 
Q 1147 -91 775 318 
Q 403 728 403 1441 
Q 403 2103 573 2717 
Q 744 3331 1050 3781 
Q 1372 4256 1830 4503 
Q 2288 4750 2841 4750 
Q 3084 4750 3321 4701 
Q 3559 4653 3788 4556 
z
" transform="scale(0.015625)"/>
     </defs>
     <use xlink:href="#DejaVuSans-Oblique-30"/>
     <use xlink:href="#DejaVuSans-Oblique-2e" transform="translate(63.623047 0)"/>
     <use xlink:href="#DejaVuSans-Oblique-34" transform="translate(95.410156 0)"/>
     <use xlink:href="#DejaVuSans-Oblique-36" transform="translate(159.033203 0)"/>
    </g>
   </g>
  </g>
 </g>
 <defs>
  <clipPath id="pb0fcb60321">
   <rect x="58.5" y="30.24" width="106.676471" height="190.26"/>
  </clipPath>
  <clipPath id="pbf8f669e3d">
   <rect x="186.511765" y="30.24" width="106.676471" height="190.26"/>
  </clipPath>
  <clipPath id="pced1f95478">
   <rect x="314.523529" y="30.24" width="106.676471" height="190.26"/>
  </clipPath>
 </defs>
</svg>
