<?xml version="1.0" encoding="utf-8" standalone="no"?>
<!DOCTYPE svg PUBLIC "-//W3C//DTD SVG 1.1//EN"
  "http://www.w3.org/Graphics/SVG/1.1/DTD/svg11.dtd">
<svg xmlns:xlink="http://www.w3.org/1999/xlink" width="288pt" height="288pt" viewBox="0 0 288 288" xmlns="http://www.w3.org/2000/svg" version="1.1">
 <metadata>
  <rdf:RDF xmlns:dc="http://purl.org/dc/elements/1.1/" xmlns:cc="http://creativecommons.org/ns#" xmlns:rdf="http://www.w3.org/1999/02/22-rdf-syntax-ns#">
   <cc:Work>
    <dc:type rdf:resource="http://purl.org/dc/dcmitype/StillImage"/>
    <dc:date>2026-01-21T16:49:14.617426</dc:date>
    <dc:format>image/svg+xml</dc:format>
    <dc:creator>
     <cc:Agent>
      <dc:title>Matplotlib v3.10.5, https://matplotlib.org/</dc:title>
     </cc:Agent>
    </dc:creator>
   </cc:Work>
  </rdf:RDF>
 </metadata>
 <defs>
  <style type="text/css">*{stroke-linejoin: round; stroke-linecap: butt}</style>
 </defs>
 <g id="figure_1">
  <g id="patch_1">
   <path d="M 0 288 
L 288 288 
L 288 0 
L 0 0 
z
" style="fill: #ffffff"/>
  </g>
  <g id="axes_1">
   <g id="patch_2">
    <path d="M 36 252 
L 259.2 252 
L 259.2 34.56 
L 36 34.56 
z
" style="fill: #ffffff"/>
   </g>
   <g id="matplotlib.axis_1">
    <g id="xtick_1">
     <g id="line2d_1">
      <defs>
       <path id="m9aa909909a" d="M 0 0 
L 0 3.5 
" style="stroke: #000000; stroke-width: 0.8"/>
      </defs>
      <g>
       <use xlink:href="#m9aa909909a" x="70.905493" y="252" style="stroke: #000000; stroke-width: 0.8"/>
      </g>
     </g>
     <g id="text_1">
      <!-- $\mathdefault{10^{-1}}$ -->
      <g transform="translate(59.155493 266.598437) scale(0.1 -0.1)">
       <defs>
        <path id="DejaVuSans-Oblique-31" d="M 416 531 
L 1447 531 
L 2144 4122 
L 978 3897 
L 1088 4441 
L 2247 4666 
L 2881 4666 
L 2075 531 
L 3103 531 
L 3003 0 
L 313 0 
L 416 531 
z
" transform="scale(0.015625)"/>
        <path id="DejaVuSans-Oblique-30" d="M 2444 4750 
Q 3078 4750 3414 4328 
Q 3750 3906 3750 3116 
Q 3750 2516 3592 1923 
Q 3434 1331 3150 863 
Q 2859 394 2467 151 
Q 2075 -91 1600 -91 
Q 988 -91 653 334 
Q 319 759 319 1544 
Q 319 2138 480 2733 
Q 641 3328 928 3794 
Q 1216 4263 1602 4506 
Q 1988 4750 2444 4750 
z
M 2406 4250 
Q 2169 4250 1955 4123 
Q 1741 3997 1569 3750 
Q 1281 3338 1111 2720 
Q 941 2103 941 1453 
Q 941 938 1123 673 
Q 1306 409 1663 409 
Q 1913 409 2125 536 
Q 2338 663 2509 909 
Q 2794 1319 2961 1936 
Q 3128 2553 3128 3206 
Q 3128 3722 2945 3986 
Q 2763 4250 2406 4250 
z
" transform="scale(0.015625)"/>
        <path id="DejaVuSans-Oblique-2212" d="M 678 2272 
L 4684 2272 
L 4684 1741 
L 678 1741 
L 678 2272 
z
" transform="scale(0.015625)"/>
       </defs>
       <use xlink:href="#DejaVuSans-Oblique-31" transform="translate(0 0.684375)"/>
       <use xlink:href="#DejaVuSans-Oblique-30" transform="translate(63.623047 0.684375)"/>
       <use xlink:href="#DejaVuSans-Oblique-2212" transform="translate(128.203125 38.965625) scale(0.7)"/>
       <use xlink:href="#DejaVuSans-Oblique-31" transform="translate(186.855469 38.965625) scale(0.7)"/>
      </g>
     </g>
    </g>
    <g id="xtick_2">
     <g id="line2d_2">
      <g>
       <use xlink:href="#m9aa909909a" x="189.564769" y="252" style="stroke: #000000; stroke-width: 0.8"/>
      </g>
     </g>
     <g id="text_2">
      <!-- $\mathdefault{10^{0}}$ -->
      <g transform="translate(180.764769 266.598437) scale(0.1 -0.1)">
       <use xlink:href="#DejaVuSans-Oblique-31" transform="translate(0 0.765625)"/>
       <use xlink:href="#DejaVuSans-Oblique-30" transform="translate(63.623047 0.765625)"/>
       <use xlink:href="#DejaVuSans-Oblique-30" transform="translate(128.203125 39.046875) scale(0.7)"/>
      </g>
     </g>
    </g>
    <g id="xtick_3">
     <g id="line2d_3">
      <defs>
       <path id="mc38667134c" d="M 0 0 
L 0 2 
" style="stroke: #000000; stroke-width: 0.6"/>
      </defs>
      <g>
       <use xlink:href="#mc38667134c" x="44.581081" y="252" style="stroke: #000000; stroke-width: 0.6"/>
      </g>
     </g>
    </g>
    <g id="xtick_4">
     <g id="line2d_4">
      <g>
       <use xlink:href="#mc38667134c" x="52.524938" y="252" style="stroke: #000000; stroke-width: 0.6"/>
      </g>
     </g>
    </g>
    <g id="xtick_5">
     <g id="line2d_5">
      <g>
       <use xlink:href="#mc38667134c" x="59.406221" y="252" style="stroke: #000000; stroke-width: 0.6"/>
      </g>
     </g>
    </g>
    <g id="xtick_6">
     <g id="line2d_6">
      <g>
       <use xlink:href="#mc38667134c" x="65.475942" y="252" style="stroke: #000000; stroke-width: 0.6"/>
      </g>
     </g>
    </g>
    <g id="xtick_7">
     <g id="line2d_7">
      <g>
       <use xlink:href="#mc38667134c" x="106.625494" y="252" style="stroke: #000000; stroke-width: 0.6"/>
      </g>
     </g>
    </g>
    <g id="xtick_8">
     <g id="line2d_8">
      <g>
       <use xlink:href="#mc38667134c" x="127.520356" y="252" style="stroke: #000000; stroke-width: 0.6"/>
      </g>
     </g>
    </g>
    <g id="xtick_9">
     <g id="line2d_9">
      <g>
       <use xlink:href="#mc38667134c" x="142.345496" y="252" style="stroke: #000000; stroke-width: 0.6"/>
      </g>
     </g>
    </g>
    <g id="xtick_10">
     <g id="line2d_10">
      <g>
       <use xlink:href="#mc38667134c" x="153.844768" y="252" style="stroke: #000000; stroke-width: 0.6"/>
      </g>
     </g>
    </g>
    <g id="xtick_11">
     <g id="line2d_11">
      <g>
       <use xlink:href="#mc38667134c" x="163.240357" y="252" style="stroke: #000000; stroke-width: 0.6"/>
      </g>
     </g>
    </g>
    <g id="xtick_12">
     <g id="line2d_12">
      <g>
       <use xlink:href="#mc38667134c" x="171.184215" y="252" style="stroke: #000000; stroke-width: 0.6"/>
      </g>
     </g>
    </g>
    <g id="xtick_13">
     <g id="line2d_13">
      <g>
       <use xlink:href="#mc38667134c" x="178.065497" y="252" style="stroke: #000000; stroke-width: 0.6"/>
      </g>
     </g>
    </g>
    <g id="xtick_14">
     <g id="line2d_14">
      <g>
       <use xlink:href="#mc38667134c" x="184.135218" y="252" style="stroke: #000000; stroke-width: 0.6"/>
      </g>
     </g>
    </g>
    <g id="xtick_15">
     <g id="line2d_15">
      <g>
       <use xlink:href="#mc38667134c" x="225.28477" y="252" style="stroke: #000000; stroke-width: 0.6"/>
      </g>
     </g>
    </g>
    <g id="xtick_16">
     <g id="line2d_16">
      <g>
       <use xlink:href="#mc38667134c" x="246.179632" y="252" style="stroke: #000000; stroke-width: 0.6"/>
      </g>
     </g>
    </g>
    <g id="text_3">
     <!-- CV ratio -->
     <g transform="translate(127.571094 280.276563) scale(0.1 -0.1)">
      <defs>
       <path id="DejaVuSans-Oblique-43" d="M 4447 4306 
L 4319 3641 
Q 4019 3944 3683 4091 
Q 3347 4238 2956 4238 
Q 2422 4238 2017 3981 
Q 1613 3725 1319 3200 
Q 1131 2863 1032 2486 
Q 934 2109 934 1728 
Q 934 1091 1264 756 
Q 1594 422 2222 422 
Q 2656 422 3056 561 
Q 3456 700 3834 978 
L 3688 231 
Q 3316 72 2936 -9 
Q 2556 -91 2175 -91 
Q 1278 -91 773 396 
Q 269 884 269 1753 
Q 269 2309 461 2846 
Q 653 3384 1013 3828 
Q 1394 4300 1883 4525 
Q 2372 4750 3022 4750 
Q 3422 4750 3780 4639 
Q 4138 4528 4447 4306 
z
" transform="scale(0.015625)"/>
       <path id="DejaVuSans-Oblique-56" d="M 1319 0 
L 500 4666 
L 1119 4666 
L 1797 653 
L 4063 4666 
L 4750 4666 
L 2053 0 
L 1319 0 
z
" transform="scale(0.015625)"/>
       <path id="DejaVuSans-Oblique-20" transform="scale(0.015625)"/>
       <path id="DejaVuSans-Oblique-72" d="M 2853 2969 
Q 2766 3016 2653 3041 
Q 2541 3066 2413 3066 
Q 1953 3066 1609 2717 
Q 1266 2369 1153 1784 
L 800 0 
L 225 0 
L 909 3500 
L 1484 3500 
L 1375 2956 
Q 1603 3259 1920 3421 
Q 2238 3584 2597 3584 
Q 2691 3584 2781 3573 
Q 2872 3563 2963 3538 
L 2853 2969 
z
" transform="scale(0.015625)"/>
       <path id="DejaVuSans-Oblique-61" d="M 3438 1997 
L 3047 0 
L 2472 0 
L 2578 531 
Q 2325 219 2001 64 
Q 1678 -91 1281 -91 
Q 834 -91 548 182 
Q 263 456 263 884 
Q 263 1497 752 1853 
Q 1241 2209 2100 2209 
L 2900 2209 
L 2931 2363 
Q 2938 2388 2941 2417 
Q 2944 2447 2944 2509 
Q 2944 2788 2717 2942 
Q 2491 3097 2081 3097 
Q 1800 3097 1504 3025 
Q 1209 2953 897 2809 
L 997 3341 
Q 1322 3463 1633 3523 
Q 1944 3584 2234 3584 
Q 2853 3584 3176 3315 
Q 3500 3047 3500 2534 
Q 3500 2431 3484 2292 
Q 3469 2153 3438 1997 
z
M 2816 1759 
L 2241 1759 
Q 1534 1759 1195 1570 
Q 856 1381 856 984 
Q 856 709 1029 553 
Q 1203 397 1509 397 
Q 1978 397 2328 733 
Q 2678 1069 2791 1631 
L 2816 1759 
z
" transform="scale(0.015625)"/>
       <path id="DejaVuSans-Oblique-74" d="M 2706 3500 
L 2619 3053 
L 1472 3053 
L 1100 1153 
Q 1081 1047 1072 975 
Q 1063 903 1063 863 
Q 1063 663 1183 572 
Q 1303 481 1569 481 
L 2150 481 
L 2053 0 
L 1503 0 
Q 991 0 739 200 
Q 488 400 488 806 
Q 488 878 497 964 
Q 506 1050 525 1153 
L 897 3053 
L 409 3053 
L 500 3500 
L 978 3500 
L 1172 4494 
L 1747 4494 
L 1556 3500 
L 2706 3500 
z
" transform="scale(0.015625)"/>
       <path id="DejaVuSans-Oblique-69" d="M 1172 4863 
L 1747 4863 
L 1606 4134 
L 1031 4134 
L 1172 4863 
z
M 909 3500 
L 1484 3500 
L 800 0 
L 225 0 
L 909 3500 
z
" transform="scale(0.015625)"/>
       <path id="DejaVuSans-Oblique-6f" d="M 1625 -91 
Q 1009 -91 651 289 
Q 294 669 294 1325 
Q 294 1706 417 2101 
Q 541 2497 738 2766 
Q 1047 3184 1428 3384 
Q 1809 3584 2291 3584 
Q 2888 3584 3255 3212 
Q 3622 2841 3622 2241 
Q 3622 1825 3500 1412 
Q 3378 1000 3181 728 
Q 2875 309 2494 109 
Q 2113 -91 1625 -91 
z
M 891 1344 
Q 891 869 1089 633 
Q 1288 397 1691 397 
Q 2269 397 2648 901 
Q 3028 1406 3028 2181 
Q 3028 2634 2825 2865 
Q 2622 3097 2228 3097 
Q 1903 3097 1650 2945 
Q 1397 2794 1197 2484 
Q 1050 2253 970 1956 
Q 891 1659 891 1344 
z
" transform="scale(0.015625)"/>
      </defs>
      <use xlink:href="#DejaVuSans-Oblique-43"/>
      <use xlink:href="#DejaVuSans-Oblique-56" transform="translate(69.824219 0)"/>
      <use xlink:href="#DejaVuSans-Oblique-20" transform="translate(138.232422 0)"/>
      <use xlink:href="#DejaVuSans-Oblique-72" transform="translate(170.019531 0)"/>
      <use xlink:href="#DejaVuSans-Oblique-61" transform="translate(211.132812 0)"/>
      <use xlink:href="#DejaVuSans-Oblique-74" transform="translate(272.412109 0)"/>
      <use xlink:href="#DejaVuSans-Oblique-69" transform="translate(311.621094 0)"/>
      <use xlink:href="#DejaVuSans-Oblique-6f" transform="translate(339.404297 0)"/>
     </g>
    </g>
   </g>
   <g id="matplotlib.axis_2">
    <g id="ytick_1">
     <g id="line2d_17">
      <defs>
       <path id="m72cea4059e" d="M 0 0 
L -3.5 0 
" style="stroke: #000000; stroke-width: 0.8"/>
      </defs>
      <g>
       <use xlink:href="#m72cea4059e" x="36" y="225.643636" style="stroke: #000000; stroke-width: 0.8"/>
      </g>
     </g>
     <g id="text_4">
      <!-- −0.4 -->
      <g transform="translate(4.717187 229.442855) scale(0.1 -0.1)">
       <defs>
        <path id="DejaVuSans-Oblique-2e" d="M 525 794 
L 1184 794 
L 1031 0 
L 372 0 
L 525 794 
z
" transform="scale(0.015625)"/>
        <path id="DejaVuSans-Oblique-34" d="M 2753 4666 
L 3547 4666 
L 2950 1625 
L 3616 1625 
L 3513 1100 
L 2847 1100 
L 2638 0 
L 2009 0 
L 2222 1100 
L 116 1100 
L 238 1709 
L 2753 4666 
z
M 2809 4116 
L 728 1625 
L 2322 1625 
L 2809 4116 
z
" transform="scale(0.015625)"/>
       </defs>
       <use xlink:href="#DejaVuSans-Oblique-2212"/>
       <use xlink:href="#DejaVuSans-Oblique-30" transform="translate(83.789062 0)"/>
       <use xlink:href="#DejaVuSans-Oblique-2e" transform="translate(147.412109 0)"/>
       <use xlink:href="#DejaVuSans-Oblique-34" transform="translate(179.199219 0)"/>
      </g>
     </g>
    </g>
    <g id="ytick_2">
     <g id="line2d_18">
      <g>
       <use xlink:href="#m72cea4059e" x="36" y="192.698182" style="stroke: #000000; stroke-width: 0.8"/>
      </g>
     </g>
     <g id="text_5">
      <!-- −0.2 -->
      <g transform="translate(4.717187 196.497401) scale(0.1 -0.1)">
       <defs>
        <path id="DejaVuSans-Oblique-32" d="M 2950 2253 
L 934 525 
L 3163 525 
L 3053 0 
L 25 0 
L 128 531 
L 2234 2338 
Q 2656 2703 2832 2979 
Q 3009 3256 3009 3547 
Q 3009 3850 2796 4040 
Q 2584 4231 2241 4231 
Q 1944 4231 1581 4125 
Q 1219 4019 806 3816 
L 922 4441 
Q 1309 4594 1662 4672 
Q 2016 4750 2316 4750 
Q 2928 4750 3301 4425 
Q 3675 4100 3675 3572 
Q 3675 3216 3497 2892 
Q 3319 2569 2950 2253 
z
" transform="scale(0.015625)"/>
       </defs>
       <use xlink:href="#DejaVuSans-Oblique-2212"/>
       <use xlink:href="#DejaVuSans-Oblique-30" transform="translate(83.789062 0)"/>
       <use xlink:href="#DejaVuSans-Oblique-2e" transform="translate(147.412109 0)"/>
       <use xlink:href="#DejaVuSans-Oblique-32" transform="translate(179.199219 0)"/>
      </g>
     </g>
    </g>
    <g id="ytick_3">
     <g id="line2d_19">
      <g>
       <use xlink:href="#m72cea4059e" x="36" y="159.752727" style="stroke: #000000; stroke-width: 0.8"/>
      </g>
     </g>
     <g id="text_6">
      <!-- 0.0 -->
      <g transform="translate(13.096875 163.551946) scale(0.1 -0.1)">
       <use xlink:href="#DejaVuSans-Oblique-30"/>
       <use xlink:href="#DejaVuSans-Oblique-2e" transform="translate(63.623047 0)"/>
       <use xlink:href="#DejaVuSans-Oblique-30" transform="translate(95.410156 0)"/>
      </g>
     </g>
    </g>
    <g id="ytick_4">
     <g id="line2d_20">
      <g>
       <use xlink:href="#m72cea4059e" x="36" y="126.807273" style="stroke: #000000; stroke-width: 0.8"/>
      </g>
     </g>
     <g id="text_7">
      <!-- 0.2 -->
      <g transform="translate(13.096875 130.606491) scale(0.1 -0.1)">
       <use xlink:href="#DejaVuSans-Oblique-30"/>
       <use xlink:href="#DejaVuSans-Oblique-2e" transform="translate(63.623047 0)"/>
       <use xlink:href="#DejaVuSans-Oblique-32" transform="translate(95.410156 0)"/>
      </g>
     </g>
    </g>
    <g id="ytick_5">
     <g id="line2d_21">
      <g>
       <use xlink:href="#m72cea4059e" x="36" y="93.861818" style="stroke: #000000; stroke-width: 0.8"/>
      </g>
     </g>
     <g id="text_8">
      <!-- 0.4 -->
      <g transform="translate(13.096875 97.661037) scale(0.1 -0.1)">
       <use xlink:href="#DejaVuSans-Oblique-30"/>
       <use xlink:href="#DejaVuSans-Oblique-2e" transform="translate(63.623047 0)"/>
       <use xlink:href="#DejaVuSans-Oblique-34" transform="translate(95.410156 0)"/>
      </g>
     </g>
    </g>
    <g id="ytick_6">
     <g id="line2d_22">
      <g>
       <use xlink:href="#m72cea4059e" x="36" y="60.916364" style="stroke: #000000; stroke-width: 0.8"/>
      </g>
     </g>
     <g id="text_9">
      <!-- 0.6 -->
      <g transform="translate(13.096875 64.715582) scale(0.1 -0.1)">
       <defs>
        <path id="DejaVuSans-Oblique-36" d="M 2938 1728 
Q 2938 2125 2734 2354 
Q 2531 2584 2181 2584 
Q 1697 2584 1367 2211 
Q 1038 1838 1038 1288 
Q 1038 875 1239 642 
Q 1441 409 1797 409 
Q 2284 409 2611 792 
Q 2938 1175 2938 1728 
z
M 3788 4556 
L 3681 3981 
Q 3500 4100 3265 4162 
Q 3031 4225 2766 4225 
Q 2119 4225 1726 3819 
Q 1334 3413 1141 2547 
Q 1369 2813 1670 2948 
Q 1972 3084 2322 3084 
Q 2894 3084 3233 2754 
Q 3572 2425 3572 1869 
Q 3572 1413 3405 1020 
Q 3238 628 2919 331 
Q 2700 128 2409 18 
Q 2119 -91 1791 -91 
Q 1147 -91 775 318 
Q 403 728 403 1441 
Q 403 2103 573 2717 
Q 744 3331 1050 3781 
Q 1372 4256 1830 4503 
Q 2288 4750 2841 4750 
Q 3084 4750 3321 4701 
Q 3559 4653 3788 4556 
z
" transform="scale(0.015625)"/>
       </defs>
       <use xlink:href="#DejaVuSans-Oblique-30"/>
       <use xlink:href="#DejaVuSans-Oblique-2e" transform="translate(63.623047 0)"/>
       <use xlink:href="#DejaVuSans-Oblique-36" transform="translate(95.410156 0)"/>
      </g>
     </g>
    </g>
    <g id="text_10">
     <!-- b value -->
     <g transform="translate(-1.3625 161.701094) rotate(-90) scale(0.1 -0.1)">
      <defs>
       <path id="DejaVuSans-Oblique-62" d="M 3169 2138 
Q 3169 2591 2961 2847 
Q 2753 3103 2388 3103 
Q 2122 3103 1889 2973 
Q 1656 2844 1484 2597 
Q 1303 2338 1198 1995 
Q 1094 1653 1094 1313 
Q 1094 881 1298 636 
Q 1503 391 1863 391 
Q 2134 391 2365 517 
Q 2597 644 2772 891 
Q 2950 1147 3059 1487 
Q 3169 1828 3169 2138 
z
M 1381 2969 
Q 1594 3256 1914 3420 
Q 2234 3584 2584 3584 
Q 3122 3584 3439 3221 
Q 3756 2859 3756 2241 
Q 3756 1734 3570 1259 
Q 3384 784 3041 416 
Q 2816 172 2522 40 
Q 2228 -91 1906 -91 
Q 1566 -91 1316 65 
Q 1066 222 909 531 
L 806 0 
L 231 0 
L 1178 4863 
L 1753 4863 
L 1381 2969 
z
" transform="scale(0.015625)"/>
       <path id="DejaVuSans-Oblique-76" d="M 459 3500 
L 1069 3500 
L 1581 525 
L 3256 3500 
L 3866 3500 
L 1875 0 
L 1100 0 
L 459 3500 
z
" transform="scale(0.015625)"/>
       <path id="DejaVuSans-Oblique-6c" d="M 1172 4863 
L 1747 4863 
L 800 0 
L 225 0 
L 1172 4863 
z
" transform="scale(0.015625)"/>
       <path id="DejaVuSans-Oblique-75" d="M 428 1388 
L 838 3500 
L 1416 3500 
L 1006 1409 
Q 975 1256 961 1147 
Q 947 1038 947 966 
Q 947 700 1109 554 
Q 1272 409 1569 409 
Q 2031 409 2368 721 
Q 2706 1034 2809 1563 
L 3194 3500 
L 3769 3500 
L 3091 0 
L 2516 0 
L 2631 550 
Q 2388 244 2052 76 
Q 1716 -91 1338 -91 
Q 878 -91 622 161 
Q 366 413 366 863 
Q 366 956 381 1097 
Q 397 1238 428 1388 
z
" transform="scale(0.015625)"/>
       <path id="DejaVuSans-Oblique-65" d="M 3078 2063 
Q 3088 2113 3092 2166 
Q 3097 2219 3097 2272 
Q 3097 2653 2873 2875 
Q 2650 3097 2266 3097 
Q 1838 3097 1509 2826 
Q 1181 2556 1013 2059 
L 3078 2063 
z
M 3578 1613 
L 903 1613 
Q 884 1494 878 1425 
Q 872 1356 872 1306 
Q 872 872 1139 634 
Q 1406 397 1894 397 
Q 2269 397 2603 481 
Q 2938 566 3225 728 
L 3116 159 
Q 2806 34 2476 -28 
Q 2147 -91 1806 -91 
Q 1078 -91 686 257 
Q 294 606 294 1247 
Q 294 1794 489 2264 
Q 684 2734 1063 3103 
Q 1306 3334 1642 3459 
Q 1978 3584 2356 3584 
Q 2950 3584 3301 3228 
Q 3653 2872 3653 2272 
Q 3653 2128 3634 1964 
Q 3616 1800 3578 1613 
z
" transform="scale(0.015625)"/>
      </defs>
      <use xlink:href="#DejaVuSans-Oblique-62"/>
      <use xlink:href="#DejaVuSans-Oblique-20" transform="translate(63.476562 0)"/>
      <use xlink:href="#DejaVuSans-Oblique-76" transform="translate(95.263672 0)"/>
      <use xlink:href="#DejaVuSans-Oblique-61" transform="translate(154.443359 0)"/>
      <use xlink:href="#DejaVuSans-Oblique-6c" transform="translate(215.722656 0)"/>
      <use xlink:href="#DejaVuSans-Oblique-75" transform="translate(243.505859 0)"/>
      <use xlink:href="#DejaVuSans-Oblique-65" transform="translate(306.884766 0)"/>
     </g>
    </g>
   </g>
   <g id="line2d_23">
    <path d="M 74.097097 154.397512 
" clip-path="url(#p88d233f41e)" style="fill: none; stroke: #000000; stroke-width: 1.5; stroke-linecap: square"/>
    <defs>
     <path id="mb456a68687" d="M 0 2.5 
C 0.663008 2.5 1.29895 2.236584 1.767767 1.767767 
C 2.236584 1.29895 2.5 0.663008 2.5 0 
C 2.5 -0.663008 2.236584 -1.29895 1.767767 -1.767767 
C 1.29895 -2.236584 0.663008 -2.5 0 -2.5 
C -0.663008 -2.5 -1.29895 -2.236584 -1.767767 -1.767767 
C -2.236584 -1.29895 -2.5 -0.663008 -2.5 0 
C -2.5 0.663008 -2.236584 1.29895 -1.767767 1.767767 
C -1.29895 2.236584 -0.663008 2.5 0 2.5 
z
" style="stroke: #000000"/>
    </defs>
    <g clip-path="url(#p88d233f41e)">
     <use xlink:href="#mb456a68687" x="74.097097" y="154.397512" style="stroke: #000000"/>
    </g>
   </g>
   <g id="line2d_24">
    <path d="M 60.461817 163.373528 
" clip-path="url(#p88d233f41e)" style="fill: none; stroke: #000000; stroke-width: 1.5; stroke-linecap: square"/>
    <defs>
     <path id="m632fe25629" d="M 0 5 
C 1.326016 5 2.597899 4.473168 3.535534 3.535534 
C 4.473168 2.597899 5 1.326016 5 0 
C 5 -1.326016 4.473168 -2.597899 3.535534 -3.535534 
C 2.597899 -4.473168 1.326016 -5 0 -5 
C -1.326016 -5 -2.597899 -4.473168 -3.535534 -3.535534 
C -4.473168 -2.597899 -5 -1.326016 -5 0 
C -5 1.326016 -4.473168 2.597899 -3.535534 3.535534 
C -2.597899 4.473168 -1.326016 5 0 5 
z
" style="stroke: #000000"/>
    </defs>
    <g clip-path="url(#p88d233f41e)">
     <use xlink:href="#m632fe25629" x="60.461817" y="163.373528" style="stroke: #000000"/>
    </g>
   </g>
   <g id="line2d_25">
    <path d="M 128.499237 183.49062 
" clip-path="url(#p88d233f41e)" style="fill: none; stroke: #000000; stroke-width: 1.5; stroke-linecap: square"/>
    <defs>
     <path id="m9c6532d34f" d="M -5 5 
L 5 5 
L 5 -5 
L -5 -5 
z
" style="stroke: #000000; stroke-linejoin: miter"/>
    </defs>
    <g clip-path="url(#p88d233f41e)">
     <use xlink:href="#m9c6532d34f" x="128.499237" y="183.49062" style="stroke: #000000; stroke-linejoin: miter"/>
    </g>
   </g>
   <g id="line2d_26">
    <path d="M 144.016111 213.683761 
" clip-path="url(#p88d233f41e)" style="fill: none; stroke: #000000; stroke-width: 1.5; stroke-linecap: square"/>
    <defs>
     <path id="m0d44b45a92" d="M 0 -5 
L -1.12257 -1.545085 
L -4.755283 -1.545085 
L -1.816356 0.59017 
L -2.938926 4.045085 
L -0 1.90983 
L 2.938926 4.045085 
L 1.816356 0.59017 
L 4.755283 -1.545085 
L 1.12257 -1.545085 
z
" style="stroke: #000000; stroke-linejoin: bevel"/>
    </defs>
    <g clip-path="url(#p88d233f41e)">
     <use xlink:href="#m0d44b45a92" x="144.016111" y="213.683761" style="stroke: #000000; stroke-linejoin: bevel"/>
    </g>
   </g>
   <g id="line2d_27">
    <path d="M 118.907381 187.682506 
" clip-path="url(#p88d233f41e)" style="fill: none; stroke: #000000; stroke-width: 1.5; stroke-linecap: square"/>
    <defs>
     <path id="ma6a43fce66" d="M -0 7.071068 
L 4.242641 0 
L -0 -7.071068 
L -4.242641 -0 
z
" style="stroke: #000000; stroke-linejoin: miter"/>
    </defs>
    <g clip-path="url(#p88d233f41e)">
     <use xlink:href="#ma6a43fce66" x="118.907381" y="187.682506" style="stroke: #000000; stroke-linejoin: miter"/>
    </g>
   </g>
   <g id="line2d_28">
    <path d="M 150.037264 46.099631 
" clip-path="url(#p88d233f41e)" style="fill: none; stroke: #000000; stroke-width: 1.5; stroke-linecap: square"/>
    <defs>
     <path id="m825279bed6" d="M -5 5 
L 5 -5 
M -5 -5 
L 5 5 
" style="stroke: #000000"/>
    </defs>
    <g clip-path="url(#p88d233f41e)">
     <use xlink:href="#m825279bed6" x="150.037264" y="46.099631" style="stroke: #000000"/>
    </g>
   </g>
   <g id="line2d_29">
    <path d="M 123.539577 193.220297 
" clip-path="url(#p88d233f41e)" style="fill: none; stroke: #000000; stroke-width: 1.5; stroke-linecap: square"/>
    <defs>
     <path id="m48ac47c3ca" d="M -0 5 
L 5 -5 
L -5 -5 
z
" style="stroke: #000000; stroke-linejoin: miter"/>
    </defs>
    <g clip-path="url(#p88d233f41e)">
     <use xlink:href="#m48ac47c3ca" x="123.539577" y="193.220297" style="stroke: #000000; stroke-linejoin: miter"/>
    </g>
   </g>
   <g id="line2d_30">
    <path d="M 46.145455 167.122257 
" clip-path="url(#p88d233f41e)" style="fill: none; stroke: #4c72b0; stroke-width: 1.5; stroke-linecap: square"/>
    <defs>
     <path id="mcbb3e16ed6" d="M 0 2.5 
C 0.663008 2.5 1.29895 2.236584 1.767767 1.767767 
C 2.236584 1.29895 2.5 0.663008 2.5 0 
C 2.5 -0.663008 2.236584 -1.29895 1.767767 -1.767767 
C 1.29895 -2.236584 0.663008 -2.5 0 -2.5 
C -0.663008 -2.5 -1.29895 -2.236584 -1.767767 -1.767767 
C -2.236584 -1.29895 -2.5 -0.663008 -2.5 0 
C -2.5 0.663008 -2.236584 1.29895 -1.767767 1.767767 
C -1.29895 2.236584 -0.663008 2.5 0 2.5 
z
" style="stroke: #4c72b0"/>
    </defs>
    <g clip-path="url(#p88d233f41e)">
     <use xlink:href="#mcbb3e16ed6" x="46.145455" y="167.122257" style="fill-opacity: 0; stroke: #4c72b0"/>
    </g>
   </g>
   <g id="line2d_31">
    <path d="M 55.551366 168.436165 
" clip-path="url(#p88d233f41e)" style="fill: none; stroke: #4c72b0; stroke-width: 1.5; stroke-linecap: square"/>
    <defs>
     <path id="m66ffdb45d5" d="M 0 5 
C 1.326016 5 2.597899 4.473168 3.535534 3.535534 
C 4.473168 2.597899 5 1.326016 5 0 
C 5 -1.326016 4.473168 -2.597899 3.535534 -3.535534 
C 2.597899 -4.473168 1.326016 -5 0 -5 
C -1.326016 -5 -2.597899 -4.473168 -3.535534 -3.535534 
C -4.473168 -2.597899 -5 -1.326016 -5 0 
C -5 1.326016 -4.473168 2.597899 -3.535534 3.535534 
C -2.597899 4.473168 -1.326016 5 0 5 
z
" style="stroke: #4c72b0"/>
    </defs>
    <g clip-path="url(#p88d233f41e)">
     <use xlink:href="#m66ffdb45d5" x="55.551366" y="168.436165" style="fill-opacity: 0; stroke: #4c72b0"/>
    </g>
   </g>
   <g id="line2d_32">
    <path d="M 69.399051 150.668947 
" clip-path="url(#p88d233f41e)" style="fill: none; stroke: #4c72b0; stroke-width: 1.5; stroke-linecap: square"/>
    <defs>
     <path id="m6fef76b988" d="M -5 5 
L 5 5 
L 5 -5 
L -5 -5 
z
" style="stroke: #4c72b0; stroke-linejoin: miter"/>
    </defs>
    <g clip-path="url(#p88d233f41e)">
     <use xlink:href="#m6fef76b988" x="69.399051" y="150.668947" style="fill-opacity: 0; stroke: #4c72b0; stroke-linejoin: miter"/>
    </g>
   </g>
   <g id="line2d_33">
    <path d="M 60.946754 167.025678 
" clip-path="url(#p88d233f41e)" style="fill: none; stroke: #4c72b0; stroke-width: 1.5; stroke-linecap: square"/>
    <defs>
     <path id="meef71651a0" d="M 0 -5 
L -1.12257 -1.545085 
L -4.755283 -1.545085 
L -1.816356 0.59017 
L -2.938926 4.045085 
L -0 1.90983 
L 2.938926 4.045085 
L 1.816356 0.59017 
L 4.755283 -1.545085 
L 1.12257 -1.545085 
z
" style="stroke: #4c72b0; stroke-linejoin: bevel"/>
    </defs>
    <g clip-path="url(#p88d233f41e)">
     <use xlink:href="#meef71651a0" x="60.946754" y="167.025678" style="fill-opacity: 0; stroke: #4c72b0; stroke-linejoin: bevel"/>
    </g>
   </g>
   <g id="line2d_34">
    <path d="M 62.302849 160.535142 
" clip-path="url(#p88d233f41e)" style="fill: none; stroke: #4c72b0; stroke-width: 1.5; stroke-linecap: square"/>
    <defs>
     <path id="mc3b8e64398" d="M -0 7.071068 
L 4.242641 0 
L -0 -7.071068 
L -4.242641 -0 
z
" style="stroke: #4c72b0; stroke-linejoin: miter"/>
    </defs>
    <g clip-path="url(#p88d233f41e)">
     <use xlink:href="#mc3b8e64398" x="62.302849" y="160.535142" style="fill-opacity: 0; stroke: #4c72b0; stroke-linejoin: miter"/>
    </g>
   </g>
   <g id="line2d_35">
    <path d="M 187.949193 190.693081 
" clip-path="url(#p88d233f41e)" style="fill: none; stroke: #4c72b0; stroke-width: 1.5; stroke-linecap: square"/>
    <defs>
     <path id="mdfd0c7df02" d="M -5 5 
L 5 -5 
M -5 -5 
L 5 5 
" style="stroke: #4c72b0"/>
    </defs>
    <g clip-path="url(#p88d233f41e)">
     <use xlink:href="#mdfd0c7df02" x="187.949193" y="190.693081" style="fill-opacity: 0; stroke: #4c72b0"/>
    </g>
   </g>
   <g id="line2d_36">
    <path d="M 101.347276 183.717831 
" clip-path="url(#p88d233f41e)" style="fill: none; stroke: #4c72b0; stroke-width: 1.5; stroke-linecap: square"/>
    <defs>
     <path id="m6ba810a423" d="M -0 5 
L 5 -5 
L -5 -5 
z
" style="stroke: #4c72b0; stroke-linejoin: miter"/>
    </defs>
    <g clip-path="url(#p88d233f41e)">
     <use xlink:href="#m6ba810a423" x="101.347276" y="183.717831" style="fill-opacity: 0; stroke: #4c72b0; stroke-linejoin: miter"/>
    </g>
   </g>
   <g id="line2d_37">
    <path d="M 123.920501 143.864012 
" clip-path="url(#p88d233f41e)" style="fill: none; stroke: #dd8452; stroke-width: 1.5; stroke-linecap: square"/>
    <defs>
     <path id="me9262f2c79" d="M 0 2.5 
C 0.663008 2.5 1.29895 2.236584 1.767767 1.767767 
C 2.236584 1.29895 2.5 0.663008 2.5 0 
C 2.5 -0.663008 2.236584 -1.29895 1.767767 -1.767767 
C 1.29895 -2.236584 0.663008 -2.5 0 -2.5 
C -0.663008 -2.5 -1.29895 -2.236584 -1.767767 -1.767767 
C -2.236584 -1.29895 -2.5 -0.663008 -2.5 0 
C -2.5 0.663008 -2.236584 1.29895 -1.767767 1.767767 
C -1.29895 2.236584 -0.663008 2.5 0 2.5 
z
" style="stroke: #dd8452"/>
    </defs>
    <g clip-path="url(#p88d233f41e)">
     <use xlink:href="#me9262f2c79" x="123.920501" y="143.864012" style="fill-opacity: 0; stroke: #dd8452"/>
    </g>
   </g>
   <g id="line2d_38">
    <path d="M 111.029194 150.024325 
" clip-path="url(#p88d233f41e)" style="fill: none; stroke: #dd8452; stroke-width: 1.5; stroke-linecap: square"/>
    <defs>
     <path id="ma658475358" d="M 0 5 
C 1.326016 5 2.597899 4.473168 3.535534 3.535534 
C 4.473168 2.597899 5 1.326016 5 0 
C 5 -1.326016 4.473168 -2.597899 3.535534 -3.535534 
C 2.597899 -4.473168 1.326016 -5 0 -5 
C -1.326016 -5 -2.597899 -4.473168 -3.535534 -3.535534 
C -4.473168 -2.597899 -5 -1.326016 -5 0 
C -5 1.326016 -4.473168 2.597899 -3.535534 3.535534 
C -2.597899 4.473168 -1.326016 5 0 5 
z
" style="stroke: #dd8452"/>
    </defs>
    <g clip-path="url(#p88d233f41e)">
     <use xlink:href="#ma658475358" x="111.029194" y="150.024325" style="fill-opacity: 0; stroke: #dd8452"/>
    </g>
   </g>
   <g id="line2d_39">
    <path d="M 91.219394 172.665681 
" clip-path="url(#p88d233f41e)" style="fill: none; stroke: #dd8452; stroke-width: 1.5; stroke-linecap: square"/>
    <defs>
     <path id="m8e292f9aa5" d="M -5 5 
L 5 5 
L 5 -5 
L -5 -5 
z
" style="stroke: #dd8452; stroke-linejoin: miter"/>
    </defs>
    <g clip-path="url(#p88d233f41e)">
     <use xlink:href="#m8e292f9aa5" x="91.219394" y="172.665681" style="fill-opacity: 0; stroke: #dd8452; stroke-linejoin: miter"/>
    </g>
   </g>
   <g id="line2d_40">
    <path d="M 109.94211 170.306462 
" clip-path="url(#p88d233f41e)" style="fill: none; stroke: #dd8452; stroke-width: 1.5; stroke-linecap: square"/>
    <defs>
     <path id="m1b39e0390e" d="M 0 -5 
L -1.12257 -1.545085 
L -4.755283 -1.545085 
L -1.816356 0.59017 
L -2.938926 4.045085 
L -0 1.90983 
L 2.938926 4.045085 
L 1.816356 0.59017 
L 4.755283 -1.545085 
L 1.12257 -1.545085 
z
" style="stroke: #dd8452; stroke-linejoin: bevel"/>
    </defs>
    <g clip-path="url(#p88d233f41e)">
     <use xlink:href="#m1b39e0390e" x="109.94211" y="170.306462" style="fill-opacity: 0; stroke: #dd8452; stroke-linejoin: bevel"/>
    </g>
   </g>
   <g id="line2d_41">
    <path d="M 122.462522 128.418441 
" clip-path="url(#p88d233f41e)" style="fill: none; stroke: #dd8452; stroke-width: 1.5; stroke-linecap: square"/>
    <defs>
     <path id="m3688983499" d="M -0 7.071068 
L 4.242641 0 
L -0 -7.071068 
L -4.242641 -0 
z
" style="stroke: #dd8452; stroke-linejoin: miter"/>
    </defs>
    <g clip-path="url(#p88d233f41e)">
     <use xlink:href="#m3688983499" x="122.462522" y="128.418441" style="fill-opacity: 0; stroke: #dd8452; stroke-linejoin: miter"/>
    </g>
   </g>
   <g id="line2d_42">
    <path d="M 249.054545 199.868697 
" clip-path="url(#p88d233f41e)" style="fill: none; stroke: #dd8452; stroke-width: 1.5; stroke-linecap: square"/>
    <defs>
     <path id="mbf789c96ff" d="M -5 5 
L 5 -5 
M -5 -5 
L 5 5 
" style="stroke: #dd8452"/>
    </defs>
    <g clip-path="url(#p88d233f41e)">
     <use xlink:href="#mbf789c96ff" x="249.054545" y="199.868697" style="fill-opacity: 0; stroke: #dd8452"/>
    </g>
   </g>
   <g id="line2d_43">
    <path d="M 145.34578 157.656502 
" clip-path="url(#p88d233f41e)" style="fill: none; stroke: #dd8452; stroke-width: 1.5; stroke-linecap: square"/>
    <defs>
     <path id="m2119405741" d="M -0 5 
L 5 -5 
L -5 -5 
z
" style="stroke: #dd8452; stroke-linejoin: miter"/>
    </defs>
    <g clip-path="url(#p88d233f41e)">
     <use xlink:href="#m2119405741" x="145.34578" y="157.656502" style="fill-opacity: 0; stroke: #dd8452; stroke-linejoin: miter"/>
    </g>
   </g>
   <g id="line2d_44">
    <path d="M 74.037544 165.078692 
" clip-path="url(#p88d233f41e)" style="fill: none; stroke: #55a868; stroke-width: 1.5; stroke-linecap: square"/>
    <defs>
     <path id="m573b5e7b17" d="M 0 2.5 
C 0.663008 2.5 1.29895 2.236584 1.767767 1.767767 
C 2.236584 1.29895 2.5 0.663008 2.5 0 
C 2.5 -0.663008 2.236584 -1.29895 1.767767 -1.767767 
C 1.29895 -2.236584 0.663008 -2.5 0 -2.5 
C -0.663008 -2.5 -1.29895 -2.236584 -1.767767 -1.767767 
C -2.236584 -1.29895 -2.5 -0.663008 -2.5 0 
C -2.5 0.663008 -2.236584 1.29895 -1.767767 1.767767 
C -1.29895 2.236584 -0.663008 2.5 0 2.5 
z
" style="stroke: #55a868"/>
    </defs>
    <g clip-path="url(#p88d233f41e)">
     <use xlink:href="#m573b5e7b17" x="74.037544" y="165.078692" style="fill-opacity: 0; stroke: #55a868"/>
    </g>
   </g>
   <g id="line2d_45">
    <path d="M 53.772145 168.859664 
" clip-path="url(#p88d233f41e)" style="fill: none; stroke: #55a868; stroke-width: 1.5; stroke-linecap: square"/>
    <defs>
     <path id="m249435979a" d="M 0 5 
C 1.326016 5 2.597899 4.473168 3.535534 3.535534 
C 4.473168 2.597899 5 1.326016 5 0 
C 5 -1.326016 4.473168 -2.597899 3.535534 -3.535534 
C 2.597899 -4.473168 1.326016 -5 0 -5 
C -1.326016 -5 -2.597899 -4.473168 -3.535534 -3.535534 
C -4.473168 -2.597899 -5 -1.326016 -5 0 
C -5 1.326016 -4.473168 2.597899 -3.535534 3.535534 
C -2.597899 4.473168 -1.326016 5 0 5 
z
" style="stroke: #55a868"/>
    </defs>
    <g clip-path="url(#p88d233f41e)">
     <use xlink:href="#m249435979a" x="53.772145" y="168.859664" style="fill-opacity: 0; stroke: #55a868"/>
    </g>
   </g>
   <g id="line2d_46">
    <path d="M 88.40658 158.105855 
" clip-path="url(#p88d233f41e)" style="fill: none; stroke: #55a868; stroke-width: 1.5; stroke-linecap: square"/>
    <defs>
     <path id="me1bb3d2814" d="M -5 5 
L 5 5 
L 5 -5 
L -5 -5 
z
" style="stroke: #55a868; stroke-linejoin: miter"/>
    </defs>
    <g clip-path="url(#p88d233f41e)">
     <use xlink:href="#me1bb3d2814" x="88.40658" y="158.105855" style="fill-opacity: 0; stroke: #55a868; stroke-linejoin: miter"/>
    </g>
   </g>
   <g id="line2d_47">
    <path d="M 106.189024 196.803235 
" clip-path="url(#p88d233f41e)" style="fill: none; stroke: #55a868; stroke-width: 1.5; stroke-linecap: square"/>
    <defs>
     <path id="mfafc2b1c35" d="M 0 -5 
L -1.12257 -1.545085 
L -4.755283 -1.545085 
L -1.816356 0.59017 
L -2.938926 4.045085 
L -0 1.90983 
L 2.938926 4.045085 
L 1.816356 0.59017 
L 4.755283 -1.545085 
L 1.12257 -1.545085 
z
" style="stroke: #55a868; stroke-linejoin: bevel"/>
    </defs>
    <g clip-path="url(#p88d233f41e)">
     <use xlink:href="#mfafc2b1c35" x="106.189024" y="196.803235" style="fill-opacity: 0; stroke: #55a868; stroke-linejoin: bevel"/>
    </g>
   </g>
   <g id="line2d_48">
    <path d="M 92.585314 184.810893 
" clip-path="url(#p88d233f41e)" style="fill: none; stroke: #55a868; stroke-width: 1.5; stroke-linecap: square"/>
    <defs>
     <path id="me458c999a2" d="M -0 7.071068 
L 4.242641 0 
L -0 -7.071068 
L -4.242641 -0 
z
" style="stroke: #55a868; stroke-linejoin: miter"/>
    </defs>
    <g clip-path="url(#p88d233f41e)">
     <use xlink:href="#me458c999a2" x="92.585314" y="184.810893" style="fill-opacity: 0; stroke: #55a868; stroke-linejoin: miter"/>
    </g>
   </g>
   <g id="line2d_49">
    <path d="M 173.49777 49.316356 
" clip-path="url(#p88d233f41e)" style="fill: none; stroke: #55a868; stroke-width: 1.5; stroke-linecap: square"/>
    <defs>
     <path id="m0c383baa35" d="M -5 5 
L 5 -5 
M -5 -5 
L 5 5 
" style="stroke: #55a868"/>
    </defs>
    <g clip-path="url(#p88d233f41e)">
     <use xlink:href="#m0c383baa35" x="173.49777" y="49.316356" style="fill-opacity: 0; stroke: #55a868"/>
    </g>
   </g>
   <g id="line2d_50">
    <path d="M 95.023461 178.524004 
" clip-path="url(#p88d233f41e)" style="fill: none; stroke: #55a868; stroke-width: 1.5; stroke-linecap: square"/>
    <defs>
     <path id="m6f0cc3d9b4" d="M -0 5 
L 5 -5 
L -5 -5 
z
" style="stroke: #55a868; stroke-linejoin: miter"/>
    </defs>
    <g clip-path="url(#p88d233f41e)">
     <use xlink:href="#m6f0cc3d9b4" x="95.023461" y="178.524004" style="fill-opacity: 0; stroke: #55a868; stroke-linejoin: miter"/>
    </g>
   </g>
   <g id="line2d_51">
    <path d="M 53.768771 168.251463 
" clip-path="url(#p88d233f41e)" style="fill: none; stroke: #c44e52; stroke-width: 1.5; stroke-linecap: square"/>
    <defs>
     <path id="maa03758c60" d="M 0 2.5 
C 0.663008 2.5 1.29895 2.236584 1.767767 1.767767 
C 2.236584 1.29895 2.5 0.663008 2.5 0 
C 2.5 -0.663008 2.236584 -1.29895 1.767767 -1.767767 
C 1.29895 -2.236584 0.663008 -2.5 0 -2.5 
C -0.663008 -2.5 -1.29895 -2.236584 -1.767767 -1.767767 
C -2.236584 -1.29895 -2.5 -0.663008 -2.5 0 
C -2.5 0.663008 -2.236584 1.29895 -1.767767 1.767767 
C -1.29895 2.236584 -0.663008 2.5 0 2.5 
z
" style="stroke: #c44e52"/>
    </defs>
    <g clip-path="url(#p88d233f41e)">
     <use xlink:href="#maa03758c60" x="53.768771" y="168.251463" style="fill-opacity: 0; stroke: #c44e52"/>
    </g>
   </g>
   <g id="line2d_52">
    <path d="M 93.04367 182.11601 
" clip-path="url(#p88d233f41e)" style="fill: none; stroke: #c44e52; stroke-width: 1.5; stroke-linecap: square"/>
    <defs>
     <path id="m8dc22cb45f" d="M 0 5 
C 1.326016 5 2.597899 4.473168 3.535534 3.535534 
C 4.473168 2.597899 5 1.326016 5 0 
C 5 -1.326016 4.473168 -2.597899 3.535534 -3.535534 
C 2.597899 -4.473168 1.326016 -5 0 -5 
C -1.326016 -5 -2.597899 -4.473168 -3.535534 -3.535534 
C -4.473168 -2.597899 -5 -1.326016 -5 0 
C -5 1.326016 -4.473168 2.597899 -3.535534 3.535534 
C -2.597899 4.473168 -1.326016 5 0 5 
z
" style="stroke: #c44e52"/>
    </defs>
    <g clip-path="url(#p88d233f41e)">
     <use xlink:href="#m8dc22cb45f" x="93.04367" y="182.11601" style="fill-opacity: 0; stroke: #c44e52"/>
    </g>
   </g>
   <g id="line2d_53">
    <path d="M 140.158283 132.194509 
" clip-path="url(#p88d233f41e)" style="fill: none; stroke: #c44e52; stroke-width: 1.5; stroke-linecap: square"/>
    <defs>
     <path id="m258f72f83c" d="M -5 5 
L 5 5 
L 5 -5 
L -5 -5 
z
" style="stroke: #c44e52; stroke-linejoin: miter"/>
    </defs>
    <g clip-path="url(#p88d233f41e)">
     <use xlink:href="#m258f72f83c" x="140.158283" y="132.194509" style="fill-opacity: 0; stroke: #c44e52; stroke-linejoin: miter"/>
    </g>
   </g>
   <g id="line2d_54">
    <path d="M 123.086911 203.837928 
" clip-path="url(#p88d233f41e)" style="fill: none; stroke: #c44e52; stroke-width: 1.5; stroke-linecap: square"/>
    <defs>
     <path id="m62a8a3d38e" d="M 0 -5 
L -1.12257 -1.545085 
L -4.755283 -1.545085 
L -1.816356 0.59017 
L -2.938926 4.045085 
L -0 1.90983 
L 2.938926 4.045085 
L 1.816356 0.59017 
L 4.755283 -1.545085 
L 1.12257 -1.545085 
z
" style="stroke: #c44e52; stroke-linejoin: bevel"/>
    </defs>
    <g clip-path="url(#p88d233f41e)">
     <use xlink:href="#m62a8a3d38e" x="123.086911" y="203.837928" style="fill-opacity: 0; stroke: #c44e52; stroke-linejoin: bevel"/>
    </g>
   </g>
   <g id="line2d_55">
    <path d="M 95.552886 176.118732 
" clip-path="url(#p88d233f41e)" style="fill: none; stroke: #c44e52; stroke-width: 1.5; stroke-linecap: square"/>
    <defs>
     <path id="m25dd4b2ea6" d="M -0 7.071068 
L 4.242641 0 
L -0 -7.071068 
L -4.242641 -0 
z
" style="stroke: #c44e52; stroke-linejoin: miter"/>
    </defs>
    <g clip-path="url(#p88d233f41e)">
     <use xlink:href="#m25dd4b2ea6" x="95.552886" y="176.118732" style="fill-opacity: 0; stroke: #c44e52; stroke-linejoin: miter"/>
    </g>
   </g>
   <g id="line2d_56">
    <path d="M 135.980957 115.971963 
" clip-path="url(#p88d233f41e)" style="fill: none; stroke: #c44e52; stroke-width: 1.5; stroke-linecap: square"/>
    <defs>
     <path id="m56b31b7c83" d="M -5 5 
L 5 -5 
M -5 -5 
L 5 5 
" style="stroke: #c44e52"/>
    </defs>
    <g clip-path="url(#p88d233f41e)">
     <use xlink:href="#m56b31b7c83" x="135.980957" y="115.971963" style="fill-opacity: 0; stroke: #c44e52"/>
    </g>
   </g>
   <g id="line2d_57">
    <path d="M 122.152929 202.553486 
" clip-path="url(#p88d233f41e)" style="fill: none; stroke: #c44e52; stroke-width: 1.5; stroke-linecap: square"/>
    <defs>
     <path id="ma33af693a5" d="M -0 5 
L 5 -5 
L -5 -5 
z
" style="stroke: #c44e52; stroke-linejoin: miter"/>
    </defs>
    <g clip-path="url(#p88d233f41e)">
     <use xlink:href="#ma33af693a5" x="122.152929" y="202.553486" style="fill-opacity: 0; stroke: #c44e52; stroke-linejoin: miter"/>
    </g>
   </g>
   <g id="line2d_58">
    <path d="M 61.049296 171.147475 
" clip-path="url(#p88d233f41e)" style="fill: none; stroke: #8172b3; stroke-width: 1.5; stroke-linecap: square"/>
    <defs>
     <path id="mb6cfe18f5a" d="M 0 2.5 
C 0.663008 2.5 1.29895 2.236584 1.767767 1.767767 
C 2.236584 1.29895 2.5 0.663008 2.5 0 
C 2.5 -0.663008 2.236584 -1.29895 1.767767 -1.767767 
C 1.29895 -2.236584 0.663008 -2.5 0 -2.5 
C -0.663008 -2.5 -1.29895 -2.236584 -1.767767 -1.767767 
C -2.236584 -1.29895 -2.5 -0.663008 -2.5 0 
C -2.5 0.663008 -2.236584 1.29895 -1.767767 1.767767 
C -1.29895 2.236584 -0.663008 2.5 0 2.5 
z
" style="stroke: #8172b3"/>
    </defs>
    <g clip-path="url(#p88d233f41e)">
     <use xlink:href="#mb6cfe18f5a" x="61.049296" y="171.147475" style="fill-opacity: 0; stroke: #8172b3"/>
    </g>
   </g>
   <g id="line2d_59">
    <path d="M 69.013599 174.590666 
" clip-path="url(#p88d233f41e)" style="fill: none; stroke: #8172b3; stroke-width: 1.5; stroke-linecap: square"/>
    <defs>
     <path id="m971807cdb4" d="M 0 5 
C 1.326016 5 2.597899 4.473168 3.535534 3.535534 
C 4.473168 2.597899 5 1.326016 5 0 
C 5 -1.326016 4.473168 -2.597899 3.535534 -3.535534 
C 2.597899 -4.473168 1.326016 -5 0 -5 
C -1.326016 -5 -2.597899 -4.473168 -3.535534 -3.535534 
C -4.473168 -2.597899 -5 -1.326016 -5 0 
C -5 1.326016 -4.473168 2.597899 -3.535534 3.535534 
C -2.597899 4.473168 -1.326016 5 0 5 
z
" style="stroke: #8172b3"/>
    </defs>
    <g clip-path="url(#p88d233f41e)">
     <use xlink:href="#m971807cdb4" x="69.013599" y="174.590666" style="fill-opacity: 0; stroke: #8172b3"/>
    </g>
   </g>
   <g id="line2d_60">
    <path d="M 131.186881 157.720997 
" clip-path="url(#p88d233f41e)" style="fill: none; stroke: #8172b3; stroke-width: 1.5; stroke-linecap: square"/>
    <defs>
     <path id="m9effd7c750" d="M -5 5 
L 5 5 
L 5 -5 
L -5 -5 
z
" style="stroke: #8172b3; stroke-linejoin: miter"/>
    </defs>
    <g clip-path="url(#p88d233f41e)">
     <use xlink:href="#m9effd7c750" x="131.186881" y="157.720997" style="fill-opacity: 0; stroke: #8172b3; stroke-linejoin: miter"/>
    </g>
   </g>
   <g id="line2d_61">
    <path d="M 91.063018 180.299881 
" clip-path="url(#p88d233f41e)" style="fill: none; stroke: #8172b3; stroke-width: 1.5; stroke-linecap: square"/>
    <defs>
     <path id="m8325219877" d="M 0 -5 
L -1.12257 -1.545085 
L -4.755283 -1.545085 
L -1.816356 0.59017 
L -2.938926 4.045085 
L -0 1.90983 
L 2.938926 4.045085 
L 1.816356 0.59017 
L 4.755283 -1.545085 
L 1.12257 -1.545085 
z
" style="stroke: #8172b3; stroke-linejoin: bevel"/>
    </defs>
    <g clip-path="url(#p88d233f41e)">
     <use xlink:href="#m8325219877" x="91.063018" y="180.299881" style="fill-opacity: 0; stroke: #8172b3; stroke-linejoin: bevel"/>
    </g>
   </g>
   <g id="line2d_62">
    <path d="M 77.769212 159.060467 
" clip-path="url(#p88d233f41e)" style="fill: none; stroke: #8172b3; stroke-width: 1.5; stroke-linecap: square"/>
    <defs>
     <path id="mb820217e03" d="M -0 7.071068 
L 4.242641 0 
L -0 -7.071068 
L -4.242641 -0 
z
" style="stroke: #8172b3; stroke-linejoin: miter"/>
    </defs>
    <g clip-path="url(#p88d233f41e)">
     <use xlink:href="#mb820217e03" x="77.769212" y="159.060467" style="fill-opacity: 0; stroke: #8172b3; stroke-linejoin: miter"/>
    </g>
   </g>
   <g id="line2d_63">
    <path d="M 112.428508 123.58706 
" clip-path="url(#p88d233f41e)" style="fill: none; stroke: #8172b3; stroke-width: 1.5; stroke-linecap: square"/>
    <defs>
     <path id="m7142645730" d="M -5 5 
L 5 -5 
M -5 -5 
L 5 5 
" style="stroke: #8172b3"/>
    </defs>
    <g clip-path="url(#p88d233f41e)">
     <use xlink:href="#m7142645730" x="112.428508" y="123.58706" style="fill-opacity: 0; stroke: #8172b3"/>
    </g>
   </g>
   <g id="line2d_64">
    <path d="M 85.814875 172.304779 
" clip-path="url(#p88d233f41e)" style="fill: none; stroke: #8172b3; stroke-width: 1.5; stroke-linecap: square"/>
    <defs>
     <path id="m998de6021a" d="M -0 5 
L 5 -5 
L -5 -5 
z
" style="stroke: #8172b3; stroke-linejoin: miter"/>
    </defs>
    <g clip-path="url(#p88d233f41e)">
     <use xlink:href="#m998de6021a" x="85.814875" y="172.304779" style="fill-opacity: 0; stroke: #8172b3; stroke-linejoin: miter"/>
    </g>
   </g>
   <g id="line2d_65">
    <path d="M 107.463496 204.767213 
" clip-path="url(#p88d233f41e)" style="fill: none; stroke: #937860; stroke-width: 1.5; stroke-linecap: square"/>
    <defs>
     <path id="m57b9dc5eee" d="M 0 2.5 
C 0.663008 2.5 1.29895 2.236584 1.767767 1.767767 
C 2.236584 1.29895 2.5 0.663008 2.5 0 
C 2.5 -0.663008 2.236584 -1.29895 1.767767 -1.767767 
C 1.29895 -2.236584 0.663008 -2.5 0 -2.5 
C -0.663008 -2.5 -1.29895 -2.236584 -1.767767 -1.767767 
C -2.236584 -1.29895 -2.5 -0.663008 -2.5 0 
C -2.5 0.663008 -2.236584 1.29895 -1.767767 1.767767 
C -1.29895 2.236584 -0.663008 2.5 0 2.5 
z
" style="stroke: #937860"/>
    </defs>
    <g clip-path="url(#p88d233f41e)">
     <use xlink:href="#m57b9dc5eee" x="107.463496" y="204.767213" style="fill-opacity: 0; stroke: #937860"/>
    </g>
   </g>
   <g id="line2d_66">
    <path d="M 109.872671 210.610203 
" clip-path="url(#p88d233f41e)" style="fill: none; stroke: #937860; stroke-width: 1.5; stroke-linecap: square"/>
    <defs>
     <path id="mbda7e60fcc" d="M 0 5 
C 1.326016 5 2.597899 4.473168 3.535534 3.535534 
C 4.473168 2.597899 5 1.326016 5 0 
C 5 -1.326016 4.473168 -2.597899 3.535534 -3.535534 
C 2.597899 -4.473168 1.326016 -5 0 -5 
C -1.326016 -5 -2.597899 -4.473168 -3.535534 -3.535534 
C -4.473168 -2.597899 -5 -1.326016 -5 0 
C -5 1.326016 -4.473168 2.597899 -3.535534 3.535534 
C -2.597899 4.473168 -1.326016 5 0 5 
z
" style="stroke: #937860"/>
    </defs>
    <g clip-path="url(#p88d233f41e)">
     <use xlink:href="#mbda7e60fcc" x="109.872671" y="210.610203" style="fill-opacity: 0; stroke: #937860"/>
    </g>
   </g>
   <g id="line2d_67">
    <path d="M 148.52442 90.303822 
" clip-path="url(#p88d233f41e)" style="fill: none; stroke: #937860; stroke-width: 1.5; stroke-linecap: square"/>
    <defs>
     <path id="m07ba68b489" d="M -5 5 
L 5 5 
L 5 -5 
L -5 -5 
z
" style="stroke: #937860; stroke-linejoin: miter"/>
    </defs>
    <g clip-path="url(#p88d233f41e)">
     <use xlink:href="#m07ba68b489" x="148.52442" y="90.303822" style="fill-opacity: 0; stroke: #937860; stroke-linejoin: miter"/>
    </g>
   </g>
   <g id="line2d_68">
    <path d="M 114.589569 218.711092 
" clip-path="url(#p88d233f41e)" style="fill: none; stroke: #937860; stroke-width: 1.5; stroke-linecap: square"/>
    <defs>
     <path id="m54941b44cd" d="M 0 -5 
L -1.12257 -1.545085 
L -4.755283 -1.545085 
L -1.816356 0.59017 
L -2.938926 4.045085 
L -0 1.90983 
L 2.938926 4.045085 
L 1.816356 0.59017 
L 4.755283 -1.545085 
L 1.12257 -1.545085 
z
" style="stroke: #937860; stroke-linejoin: bevel"/>
    </defs>
    <g clip-path="url(#p88d233f41e)">
     <use xlink:href="#m54941b44cd" x="114.589569" y="218.711092" style="fill-opacity: 0; stroke: #937860; stroke-linejoin: bevel"/>
    </g>
   </g>
   <g id="line2d_69">
    <path d="M 106.44694 206.687059 
" clip-path="url(#p88d233f41e)" style="fill: none; stroke: #937860; stroke-width: 1.5; stroke-linecap: square"/>
    <defs>
     <path id="mf6eafbe260" d="M -0 7.071068 
L 4.242641 0 
L -0 -7.071068 
L -4.242641 -0 
z
" style="stroke: #937860; stroke-linejoin: miter"/>
    </defs>
    <g clip-path="url(#p88d233f41e)">
     <use xlink:href="#mf6eafbe260" x="106.44694" y="206.687059" style="fill-opacity: 0; stroke: #937860; stroke-linejoin: miter"/>
    </g>
   </g>
   <g id="line2d_70">
    <path d="M 105.558767 198.629379 
" clip-path="url(#p88d233f41e)" style="fill: none; stroke: #937860; stroke-width: 1.5; stroke-linecap: square"/>
    <defs>
     <path id="m1ab3f3128a" d="M -5 5 
L 5 -5 
M -5 -5 
L 5 5 
" style="stroke: #937860"/>
    </defs>
    <g clip-path="url(#p88d233f41e)">
     <use xlink:href="#m1ab3f3128a" x="105.558767" y="198.629379" style="fill-opacity: 0; stroke: #937860"/>
    </g>
   </g>
   <g id="line2d_71">
    <path d="M 121.278259 228.358273 
" clip-path="url(#p88d233f41e)" style="fill: none; stroke: #937860; stroke-width: 1.5; stroke-linecap: square"/>
    <defs>
     <path id="m456bf06285" d="M -0 5 
L 5 -5 
L -5 -5 
z
" style="stroke: #937860; stroke-linejoin: miter"/>
    </defs>
    <g clip-path="url(#p88d233f41e)">
     <use xlink:href="#m456bf06285" x="121.278259" y="228.358273" style="fill-opacity: 0; stroke: #937860; stroke-linejoin: miter"/>
    </g>
   </g>
   <g id="LineCollection_1">
    <path d="M 44.581081 159.752727 
L 261.004772 159.752727 
" clip-path="url(#p88d233f41e)" style="fill: none; stroke: #000000; stroke-width: 0.5"/>
   </g>
   <g id="LineCollection_2">
    <path d="M 189.564769 242.116364 
L 189.564769 44.443636 
" clip-path="url(#p88d233f41e)" style="fill: none; stroke: #000000; stroke-width: 0.5"/>
   </g>
   <g id="LineCollection_3">
    <path d="M 153.844768 242.116364 
L 153.844768 44.443636 
" clip-path="url(#p88d233f41e)" style="fill: none; stroke: #808080; stroke-width: 0.5"/>
   </g>
   <g id="patch_3">
    <path d="M 36 252 
L 36 34.56 
" style="fill: none; stroke: #000000; stroke-width: 0.8; stroke-linejoin: miter; stroke-linecap: square"/>
   </g>
   <g id="patch_4">
    <path d="M 259.2 252 
L 259.2 34.56 
" style="fill: none; stroke: #000000; stroke-width: 0.8; stroke-linejoin: miter; stroke-linecap: square"/>
   </g>
   <g id="patch_5">
    <path d="M 36 252 
L 259.2 252 
" style="fill: none; stroke: #000000; stroke-width: 0.8; stroke-linejoin: miter; stroke-linecap: square"/>
   </g>
   <g id="patch_6">
    <path d="M 36 34.56 
L 259.2 34.56 
" style="fill: none; stroke: #000000; stroke-width: 0.8; stroke-linejoin: miter; stroke-linecap: square"/>
   </g>
   <g id="legend_1">
    <g id="patch_7">
     <path d="M 198.484375 145.306875 
L 252.2 145.306875 
Q 254.2 145.306875 254.2 143.306875 
L 254.2 41.56 
Q 254.2 39.56 252.2 39.56 
L 198.484375 39.56 
Q 196.484375 39.56 196.484375 41.56 
L 196.484375 143.306875 
Q 196.484375 145.306875 198.484375 145.306875 
z
" style="fill: #ffffff; opacity: 0.8; stroke: #cccccc; stroke-linejoin: miter"/>
    </g>
    <g id="line2d_72">
     <path d="M 200.484375 47.658437 
L 210.484375 47.658437 
L 220.484375 47.658437 
" style="fill: none; stroke: #4c72b0; stroke-width: 1.5; stroke-linecap: square"/>
     <g>
      <use xlink:href="#mcbb3e16ed6" x="210.484375" y="47.658437" style="fill-opacity: 0; stroke: #4c72b0"/>
     </g>
    </g>
    <g id="text_11">
     <!-- Ca -->
     <g transform="translate(228.484375 51.158437) scale(0.1 -0.1)">
      <use xlink:href="#DejaVuSans-Oblique-43"/>
      <use xlink:href="#DejaVuSans-Oblique-61" transform="translate(69.824219 0)"/>
     </g>
    </g>
    <g id="line2d_73">
     <path d="M 200.484375 62.336563 
L 210.484375 62.336563 
L 220.484375 62.336563 
" style="fill: none; stroke: #4c72b0; stroke-width: 1.5; stroke-linecap: square"/>
     <g>
      <use xlink:href="#m66ffdb45d5" x="210.484375" y="62.336563" style="fill-opacity: 0; stroke: #4c72b0"/>
     </g>
    </g>
    <g id="text_12">
     <!-- Mg -->
     <g transform="translate(228.484375 65.836563) scale(0.1 -0.1)">
      <defs>
       <path id="DejaVuSans-Oblique-4d" d="M 1081 4666 
L 2028 4666 
L 2572 1522 
L 4378 4666 
L 5350 4666 
L 4441 0 
L 3828 0 
L 4622 4091 
L 2791 897 
L 2175 897 
L 1581 4103 
L 788 0 
L 172 0 
L 1081 4666 
z
" transform="scale(0.015625)"/>
       <path id="DejaVuSans-Oblique-67" d="M 3816 3500 
L 3219 434 
Q 3047 -456 2561 -893 
Q 2075 -1331 1253 -1331 
Q 950 -1331 690 -1286 
Q 431 -1241 206 -1147 
L 313 -588 
Q 525 -725 762 -790 
Q 1000 -856 1269 -856 
Q 1816 -856 2167 -557 
Q 2519 -259 2631 300 
L 2681 563 
Q 2441 288 2122 144 
Q 1803 0 1434 0 
Q 903 0 598 351 
Q 294 703 294 1319 
Q 294 1803 478 2267 
Q 663 2731 997 3091 
Q 1219 3328 1514 3456 
Q 1809 3584 2131 3584 
Q 2484 3584 2746 3420 
Q 3009 3256 3138 2956 
L 3238 3500 
L 3816 3500 
z
M 2950 2216 
Q 2950 2641 2750 2872 
Q 2550 3103 2181 3103 
Q 1953 3103 1747 3012 
Q 1541 2922 1394 2759 
Q 1156 2491 1023 2127 
Q 891 1763 891 1375 
Q 891 944 1092 712 
Q 1294 481 1672 481 
Q 2219 481 2584 976 
Q 2950 1472 2950 2216 
z
" transform="scale(0.015625)"/>
      </defs>
      <use xlink:href="#DejaVuSans-Oblique-4d"/>
      <use xlink:href="#DejaVuSans-Oblique-67" transform="translate(86.279297 0)"/>
     </g>
    </g>
    <g id="line2d_74">
     <path d="M 200.484375 77.014687 
L 210.484375 77.014687 
L 220.484375 77.014687 
" style="fill: none; stroke: #4c72b0; stroke-width: 1.5; stroke-linecap: square"/>
     <g>
      <use xlink:href="#m6fef76b988" x="210.484375" y="77.014687" style="fill-opacity: 0; stroke: #4c72b0; stroke-linejoin: miter"/>
     </g>
    </g>
    <g id="text_13">
     <!-- K -->
     <g transform="translate(228.484375 80.514687) scale(0.1 -0.1)">
      <defs>
       <path id="DejaVuSans-Oblique-4b" d="M 1081 4666 
L 1716 4666 
L 1331 2700 
L 3781 4666 
L 4622 4666 
L 1850 2438 
L 3878 0 
L 3109 0 
L 1247 2272 
L 806 0 
L 172 0 
L 1081 4666 
z
" transform="scale(0.015625)"/>
      </defs>
      <use xlink:href="#DejaVuSans-Oblique-4b"/>
     </g>
    </g>
    <g id="line2d_75">
     <path d="M 200.484375 91.692813 
L 210.484375 91.692813 
L 220.484375 91.692813 
" style="fill: none; stroke: #4c72b0; stroke-width: 1.5; stroke-linecap: square"/>
     <g>
      <use xlink:href="#meef71651a0" x="210.484375" y="91.692813" style="fill-opacity: 0; stroke: #4c72b0; stroke-linejoin: bevel"/>
     </g>
    </g>
    <g id="text_14">
     <!-- Na -->
     <g transform="translate(228.484375 95.192813) scale(0.1 -0.1)">
      <defs>
       <path id="DejaVuSans-Oblique-4e" d="M 1081 4666 
L 1931 4666 
L 3219 666 
L 4000 4666 
L 4616 4666 
L 3706 0 
L 2853 0 
L 1569 4025 
L 788 0 
L 172 0 
L 1081 4666 
z
" transform="scale(0.015625)"/>
      </defs>
      <use xlink:href="#DejaVuSans-Oblique-4e"/>
      <use xlink:href="#DejaVuSans-Oblique-61" transform="translate(74.804688 0)"/>
     </g>
    </g>
    <g id="line2d_76">
     <path d="M 200.484375 106.370937 
L 210.484375 106.370937 
L 220.484375 106.370937 
" style="fill: none; stroke: #4c72b0; stroke-width: 1.5; stroke-linecap: square"/>
     <g>
      <use xlink:href="#mc3b8e64398" x="210.484375" y="106.370937" style="fill-opacity: 0; stroke: #4c72b0; stroke-linejoin: miter"/>
     </g>
    </g>
    <g id="text_15">
     <!-- Cl -->
     <g transform="translate(228.484375 109.870937) scale(0.1 -0.1)">
      <use xlink:href="#DejaVuSans-Oblique-43"/>
      <use xlink:href="#DejaVuSans-Oblique-6c" transform="translate(69.824219 0)"/>
     </g>
    </g>
    <g id="line2d_77">
     <path d="M 200.484375 121.049062 
L 210.484375 121.049062 
L 220.484375 121.049062 
" style="fill: none; stroke: #4c72b0; stroke-width: 1.5; stroke-linecap: square"/>
     <g>
      <use xlink:href="#mdfd0c7df02" x="210.484375" y="121.049062" style="fill-opacity: 0; stroke: #4c72b0"/>
     </g>
    </g>
    <g id="text_16">
     <!-- NO3 -->
     <g transform="translate(228.484375 124.549062) scale(0.1 -0.1)">
      <defs>
       <path id="DejaVuSans-Oblique-4f" d="M 2919 4238 
Q 2400 4238 2003 3986 
Q 1606 3734 1313 3219 
Q 1125 2891 1026 2522 
Q 928 2153 928 1778 
Q 928 1128 1239 775 
Q 1550 422 2119 422 
Q 2631 422 3032 676 
Q 3434 931 3719 1434 
Q 3909 1772 4009 2142 
Q 4109 2513 4109 2881 
Q 4109 3528 3796 3883 
Q 3484 4238 2919 4238 
z
M 2100 -91 
Q 1241 -91 748 418 
Q 256 928 256 1813 
Q 256 2319 448 2847 
Q 641 3375 978 3788 
Q 1375 4272 1862 4511 
Q 2350 4750 2938 4750 
Q 3794 4750 4287 4245 
Q 4781 3741 4781 2869 
Q 4781 2331 4593 1812 
Q 4406 1294 4056 872 
Q 3656 384 3173 146 
Q 2691 -91 2100 -91 
z
" transform="scale(0.015625)"/>
       <path id="DejaVuSans-Oblique-33" d="M 1013 4550 
Q 1356 4650 1679 4700 
Q 2003 4750 2316 4750 
Q 2934 4750 3296 4475 
Q 3659 4200 3659 3738 
Q 3659 3284 3373 2959 
Q 3088 2634 2584 2516 
Q 2978 2403 3162 2165 
Q 3347 1928 3347 1538 
Q 3347 1163 3167 834 
Q 2988 506 2650 269 
Q 2394 88 2037 -1 
Q 1681 -91 1216 -91 
Q 922 -91 622 -33 
Q 322 25 13 141 
L 128 738 
Q 422 575 720 495 
Q 1019 416 1331 416 
Q 1947 416 2330 733 
Q 2713 1050 2713 1556 
Q 2713 1881 2469 2057 
Q 2225 2234 1772 2234 
L 1228 2234 
L 1325 2747 
L 1900 2747 
Q 2419 2747 2717 2984 
Q 3016 3222 3016 3628 
Q 3016 3922 2797 4083 
Q 2578 4244 2181 4244 
Q 1881 4244 1567 4180 
Q 1253 4116 916 3988 
L 1013 4550 
z
" transform="scale(0.015625)"/>
      </defs>
      <use xlink:href="#DejaVuSans-Oblique-4e"/>
      <use xlink:href="#DejaVuSans-Oblique-4f" transform="translate(74.804688 0)"/>
      <use xlink:href="#DejaVuSans-Oblique-33" transform="translate(153.515625 0)"/>
     </g>
    </g>
    <g id="line2d_78">
     <path d="M 200.484375 135.727187 
L 210.484375 135.727187 
L 220.484375 135.727187 
" style="fill: none; stroke: #4c72b0; stroke-width: 1.5; stroke-linecap: square"/>
     <g>
      <use xlink:href="#m6ba810a423" x="210.484375" y="135.727187" style="fill-opacity: 0; stroke: #4c72b0; stroke-linejoin: miter"/>
     </g>
    </g>
    <g id="text_17">
     <!-- SO4 -->
     <g transform="translate(228.484375 139.227187) scale(0.1 -0.1)">
      <defs>
       <path id="DejaVuSans-Oblique-53" d="M 3859 4513 
L 3738 3897 
Q 3422 4066 3111 4152 
Q 2800 4238 2509 4238 
Q 1944 4238 1609 3991 
Q 1275 3744 1275 3334 
Q 1275 3109 1398 2989 
Q 1522 2869 2034 2731 
L 2413 2638 
Q 3053 2472 3303 2217 
Q 3553 1963 3553 1503 
Q 3553 797 2998 353 
Q 2444 -91 1538 -91 
Q 1166 -91 791 -17 
Q 416 56 38 206 
L 166 856 
Q 513 641 861 531 
Q 1209 422 1556 422 
Q 2147 422 2503 684 
Q 2859 947 2859 1369 
Q 2859 1650 2717 1795 
Q 2575 1941 2106 2059 
L 1728 2156 
Q 1081 2325 845 2545 
Q 609 2766 609 3163 
Q 609 3859 1145 4304 
Q 1681 4750 2541 4750 
Q 2875 4750 3203 4690 
Q 3531 4631 3859 4513 
z
" transform="scale(0.015625)"/>
      </defs>
      <use xlink:href="#DejaVuSans-Oblique-53"/>
      <use xlink:href="#DejaVuSans-Oblique-4f" transform="translate(63.476562 0)"/>
      <use xlink:href="#DejaVuSans-Oblique-34" transform="translate(142.1875 0)"/>
     </g>
    </g>
   </g>
  </g>
 </g>
 <defs>
  <clipPath id="p88d233f41e">
   <rect x="36" y="34.56" width="223.2" height="217.44"/>
  </clipPath>
 </defs>
</svg>
