<?xml version="1.0" encoding="utf-8" standalone="no"?>
<!DOCTYPE svg PUBLIC "-//W3C//DTD SVG 1.1//EN"
  "http://www.w3.org/Graphics/SVG/1.1/DTD/svg11.dtd">
<svg xmlns:xlink="http://www.w3.org/1999/xlink" width="288pt" height="288pt" viewBox="0 0 288 288" xmlns="http://www.w3.org/2000/svg" version="1.1">
 <metadata>
  <rdf:RDF xmlns:dc="http://purl.org/dc/elements/1.1/" xmlns:cc="http://creativecommons.org/ns#" xmlns:rdf="http://www.w3.org/1999/02/22-rdf-syntax-ns#">
   <cc:Work>
    <dc:type rdf:resource="http://purl.org/dc/dcmitype/StillImage"/>
    <dc:date>2026-01-21T16:58:34.403041</dc:date>
    <dc:format>image/svg+xml</dc:format>
    <dc:creator>
     <cc:Agent>
      <dc:title>Matplotlib v3.10.5, https://matplotlib.org/</dc:title>
     </cc:Agent>
    </dc:creator>
   </cc:Work>
  </rdf:RDF>
 </metadata>
 <defs>
  <style type="text/css">*{stroke-linejoin: round; stroke-linecap: butt}</style>
 </defs>
 <g id="figure_1">
  <g id="patch_1">
   <path d="M 0 288 
L 288 288 
L 288 0 
L 0 0 
z
" style="fill: #ffffff"/>
  </g>
  <g id="axes_1">
   <g id="patch_2">
    <path d="M 36 252 
L 259.2 252 
L 259.2 34.56 
L 36 34.56 
z
" style="fill: #ffffff"/>
   </g>
   <g id="matplotlib.axis_1">
    <g id="xtick_1">
     <g id="line2d_1">
      <defs>
       <path id="m8b0013cd64" d="M 0 0 
L 0 3.5 
" style="stroke: #000000; stroke-width: 0.8"/>
      </defs>
      <g>
       <use xlink:href="#m8b0013cd64" x="110.809969" y="252" style="stroke: #000000; stroke-width: 0.8"/>
      </g>
     </g>
     <g id="text_1">
      <!-- $\mathdefault{10^{-1}}$ -->
      <g transform="translate(99.059969 266.598437) scale(0.1 -0.1)">
       <defs>
        <path id="DejaVuSans-Oblique-31" d="M 416 531 
L 1447 531 
L 2144 4122 
L 978 3897 
L 1088 4441 
L 2247 4666 
L 2881 4666 
L 2075 531 
L 3103 531 
L 3003 0 
L 313 0 
L 416 531 
z
" transform="scale(0.015625)"/>
        <path id="DejaVuSans-Oblique-30" d="M 2444 4750 
Q 3078 4750 3414 4328 
Q 3750 3906 3750 3116 
Q 3750 2516 3592 1923 
Q 3434 1331 3150 863 
Q 2859 394 2467 151 
Q 2075 -91 1600 -91 
Q 988 -91 653 334 
Q 319 759 319 1544 
Q 319 2138 480 2733 
Q 641 3328 928 3794 
Q 1216 4263 1602 4506 
Q 1988 4750 2444 4750 
z
M 2406 4250 
Q 2169 4250 1955 4123 
Q 1741 3997 1569 3750 
Q 1281 3338 1111 2720 
Q 941 2103 941 1453 
Q 941 938 1123 673 
Q 1306 409 1663 409 
Q 1913 409 2125 536 
Q 2338 663 2509 909 
Q 2794 1319 2961 1936 
Q 3128 2553 3128 3206 
Q 3128 3722 2945 3986 
Q 2763 4250 2406 4250 
z
" transform="scale(0.015625)"/>
        <path id="DejaVuSans-Oblique-2212" d="M 678 2272 
L 4684 2272 
L 4684 1741 
L 678 1741 
L 678 2272 
z
" transform="scale(0.015625)"/>
       </defs>
       <use xlink:href="#DejaVuSans-Oblique-31" transform="translate(0 0.684375)"/>
       <use xlink:href="#DejaVuSans-Oblique-30" transform="translate(63.623047 0.684375)"/>
       <use xlink:href="#DejaVuSans-Oblique-2212" transform="translate(128.203125 38.965625) scale(0.7)"/>
       <use xlink:href="#DejaVuSans-Oblique-31" transform="translate(186.855469 38.965625) scale(0.7)"/>
      </g>
     </g>
    </g>
    <g id="xtick_2">
     <g id="line2d_2">
      <defs>
       <path id="m50f7f33ec8" d="M 0 0 
L 0 2 
" style="stroke: #000000; stroke-width: 0.6"/>
      </defs>
      <g>
       <use xlink:href="#m50f7f33ec8" x="40.524635" y="252" style="stroke: #000000; stroke-width: 0.6"/>
      </g>
     </g>
    </g>
    <g id="xtick_3">
     <g id="line2d_3">
      <g>
       <use xlink:href="#m50f7f33ec8" x="57.641166" y="252" style="stroke: #000000; stroke-width: 0.6"/>
      </g>
     </g>
    </g>
    <g id="xtick_4">
     <g id="line2d_4">
      <g>
       <use xlink:href="#m50f7f33ec8" x="71.626391" y="252" style="stroke: #000000; stroke-width: 0.6"/>
      </g>
     </g>
    </g>
    <g id="xtick_5">
     <g id="line2d_5">
      <g>
       <use xlink:href="#m50f7f33ec8" x="83.45073" y="252" style="stroke: #000000; stroke-width: 0.6"/>
      </g>
     </g>
    </g>
    <g id="xtick_6">
     <g id="line2d_6">
      <g>
       <use xlink:href="#m50f7f33ec8" x="93.693438" y="252" style="stroke: #000000; stroke-width: 0.6"/>
      </g>
     </g>
    </g>
    <g id="xtick_7">
     <g id="line2d_7">
      <g>
       <use xlink:href="#m50f7f33ec8" x="102.728147" y="252" style="stroke: #000000; stroke-width: 0.6"/>
      </g>
     </g>
    </g>
    <g id="xtick_8">
     <g id="line2d_8">
      <g>
       <use xlink:href="#m50f7f33ec8" x="163.978772" y="252" style="stroke: #000000; stroke-width: 0.6"/>
      </g>
     </g>
    </g>
    <g id="xtick_9">
     <g id="line2d_9">
      <g>
       <use xlink:href="#m50f7f33ec8" x="195.080528" y="252" style="stroke: #000000; stroke-width: 0.6"/>
      </g>
     </g>
    </g>
    <g id="xtick_10">
     <g id="line2d_10">
      <g>
       <use xlink:href="#m50f7f33ec8" x="217.147575" y="252" style="stroke: #000000; stroke-width: 0.6"/>
      </g>
     </g>
    </g>
    <g id="xtick_11">
     <g id="line2d_11">
      <g>
       <use xlink:href="#m50f7f33ec8" x="234.264106" y="252" style="stroke: #000000; stroke-width: 0.6"/>
      </g>
     </g>
    </g>
    <g id="xtick_12">
     <g id="line2d_12">
      <g>
       <use xlink:href="#m50f7f33ec8" x="248.24933" y="252" style="stroke: #000000; stroke-width: 0.6"/>
      </g>
     </g>
    </g>
    <g id="text_2">
     <!-- CV ratio -->
     <g transform="translate(127.571094 280.276563) scale(0.1 -0.1)">
      <defs>
       <path id="DejaVuSans-Oblique-43" d="M 4447 4306 
L 4319 3641 
Q 4019 3944 3683 4091 
Q 3347 4238 2956 4238 
Q 2422 4238 2017 3981 
Q 1613 3725 1319 3200 
Q 1131 2863 1032 2486 
Q 934 2109 934 1728 
Q 934 1091 1264 756 
Q 1594 422 2222 422 
Q 2656 422 3056 561 
Q 3456 700 3834 978 
L 3688 231 
Q 3316 72 2936 -9 
Q 2556 -91 2175 -91 
Q 1278 -91 773 396 
Q 269 884 269 1753 
Q 269 2309 461 2846 
Q 653 3384 1013 3828 
Q 1394 4300 1883 4525 
Q 2372 4750 3022 4750 
Q 3422 4750 3780 4639 
Q 4138 4528 4447 4306 
z
" transform="scale(0.015625)"/>
       <path id="DejaVuSans-Oblique-56" d="M 1319 0 
L 500 4666 
L 1119 4666 
L 1797 653 
L 4063 4666 
L 4750 4666 
L 2053 0 
L 1319 0 
z
" transform="scale(0.015625)"/>
       <path id="DejaVuSans-Oblique-20" transform="scale(0.015625)"/>
       <path id="DejaVuSans-Oblique-72" d="M 2853 2969 
Q 2766 3016 2653 3041 
Q 2541 3066 2413 3066 
Q 1953 3066 1609 2717 
Q 1266 2369 1153 1784 
L 800 0 
L 225 0 
L 909 3500 
L 1484 3500 
L 1375 2956 
Q 1603 3259 1920 3421 
Q 2238 3584 2597 3584 
Q 2691 3584 2781 3573 
Q 2872 3563 2963 3538 
L 2853 2969 
z
" transform="scale(0.015625)"/>
       <path id="DejaVuSans-Oblique-61" d="M 3438 1997 
L 3047 0 
L 2472 0 
L 2578 531 
Q 2325 219 2001 64 
Q 1678 -91 1281 -91 
Q 834 -91 548 182 
Q 263 456 263 884 
Q 263 1497 752 1853 
Q 1241 2209 2100 2209 
L 2900 2209 
L 2931 2363 
Q 2938 2388 2941 2417 
Q 2944 2447 2944 2509 
Q 2944 2788 2717 2942 
Q 2491 3097 2081 3097 
Q 1800 3097 1504 3025 
Q 1209 2953 897 2809 
L 997 3341 
Q 1322 3463 1633 3523 
Q 1944 3584 2234 3584 
Q 2853 3584 3176 3315 
Q 3500 3047 3500 2534 
Q 3500 2431 3484 2292 
Q 3469 2153 3438 1997 
z
M 2816 1759 
L 2241 1759 
Q 1534 1759 1195 1570 
Q 856 1381 856 984 
Q 856 709 1029 553 
Q 1203 397 1509 397 
Q 1978 397 2328 733 
Q 2678 1069 2791 1631 
L 2816 1759 
z
" transform="scale(0.015625)"/>
       <path id="DejaVuSans-Oblique-74" d="M 2706 3500 
L 2619 3053 
L 1472 3053 
L 1100 1153 
Q 1081 1047 1072 975 
Q 1063 903 1063 863 
Q 1063 663 1183 572 
Q 1303 481 1569 481 
L 2150 481 
L 2053 0 
L 1503 0 
Q 991 0 739 200 
Q 488 400 488 806 
Q 488 878 497 964 
Q 506 1050 525 1153 
L 897 3053 
L 409 3053 
L 500 3500 
L 978 3500 
L 1172 4494 
L 1747 4494 
L 1556 3500 
L 2706 3500 
z
" transform="scale(0.015625)"/>
       <path id="DejaVuSans-Oblique-69" d="M 1172 4863 
L 1747 4863 
L 1606 4134 
L 1031 4134 
L 1172 4863 
z
M 909 3500 
L 1484 3500 
L 800 0 
L 225 0 
L 909 3500 
z
" transform="scale(0.015625)"/>
       <path id="DejaVuSans-Oblique-6f" d="M 1625 -91 
Q 1009 -91 651 289 
Q 294 669 294 1325 
Q 294 1706 417 2101 
Q 541 2497 738 2766 
Q 1047 3184 1428 3384 
Q 1809 3584 2291 3584 
Q 2888 3584 3255 3212 
Q 3622 2841 3622 2241 
Q 3622 1825 3500 1412 
Q 3378 1000 3181 728 
Q 2875 309 2494 109 
Q 2113 -91 1625 -91 
z
M 891 1344 
Q 891 869 1089 633 
Q 1288 397 1691 397 
Q 2269 397 2648 901 
Q 3028 1406 3028 2181 
Q 3028 2634 2825 2865 
Q 2622 3097 2228 3097 
Q 1903 3097 1650 2945 
Q 1397 2794 1197 2484 
Q 1050 2253 970 1956 
Q 891 1659 891 1344 
z
" transform="scale(0.015625)"/>
      </defs>
      <use xlink:href="#DejaVuSans-Oblique-43"/>
      <use xlink:href="#DejaVuSans-Oblique-56" transform="translate(69.824219 0)"/>
      <use xlink:href="#DejaVuSans-Oblique-20" transform="translate(138.232422 0)"/>
      <use xlink:href="#DejaVuSans-Oblique-72" transform="translate(170.019531 0)"/>
      <use xlink:href="#DejaVuSans-Oblique-61" transform="translate(211.132812 0)"/>
      <use xlink:href="#DejaVuSans-Oblique-74" transform="translate(272.412109 0)"/>
      <use xlink:href="#DejaVuSans-Oblique-69" transform="translate(311.621094 0)"/>
      <use xlink:href="#DejaVuSans-Oblique-6f" transform="translate(339.404297 0)"/>
     </g>
    </g>
   </g>
   <g id="matplotlib.axis_2">
    <g id="ytick_1">
     <g id="line2d_13">
      <defs>
       <path id="m32a227974c" d="M 0 0 
L -3.5 0 
" style="stroke: #000000; stroke-width: 0.8"/>
      </defs>
      <g>
       <use xlink:href="#m32a227974c" x="36" y="225.643636" style="stroke: #000000; stroke-width: 0.8"/>
      </g>
     </g>
     <g id="text_3">
      <!-- −0.4 -->
      <g transform="translate(4.717187 229.442855) scale(0.1 -0.1)">
       <defs>
        <path id="DejaVuSans-Oblique-2e" d="M 525 794 
L 1184 794 
L 1031 0 
L 372 0 
L 525 794 
z
" transform="scale(0.015625)"/>
        <path id="DejaVuSans-Oblique-34" d="M 2753 4666 
L 3547 4666 
L 2950 1625 
L 3616 1625 
L 3513 1100 
L 2847 1100 
L 2638 0 
L 2009 0 
L 2222 1100 
L 116 1100 
L 238 1709 
L 2753 4666 
z
M 2809 4116 
L 728 1625 
L 2322 1625 
L 2809 4116 
z
" transform="scale(0.015625)"/>
       </defs>
       <use xlink:href="#DejaVuSans-Oblique-2212"/>
       <use xlink:href="#DejaVuSans-Oblique-30" transform="translate(83.789062 0)"/>
       <use xlink:href="#DejaVuSans-Oblique-2e" transform="translate(147.412109 0)"/>
       <use xlink:href="#DejaVuSans-Oblique-34" transform="translate(179.199219 0)"/>
      </g>
     </g>
    </g>
    <g id="ytick_2">
     <g id="line2d_14">
      <g>
       <use xlink:href="#m32a227974c" x="36" y="192.698182" style="stroke: #000000; stroke-width: 0.8"/>
      </g>
     </g>
     <g id="text_4">
      <!-- −0.2 -->
      <g transform="translate(4.717187 196.497401) scale(0.1 -0.1)">
       <defs>
        <path id="DejaVuSans-Oblique-32" d="M 2950 2253 
L 934 525 
L 3163 525 
L 3053 0 
L 25 0 
L 128 531 
L 2234 2338 
Q 2656 2703 2832 2979 
Q 3009 3256 3009 3547 
Q 3009 3850 2796 4040 
Q 2584 4231 2241 4231 
Q 1944 4231 1581 4125 
Q 1219 4019 806 3816 
L 922 4441 
Q 1309 4594 1662 4672 
Q 2016 4750 2316 4750 
Q 2928 4750 3301 4425 
Q 3675 4100 3675 3572 
Q 3675 3216 3497 2892 
Q 3319 2569 2950 2253 
z
" transform="scale(0.015625)"/>
       </defs>
       <use xlink:href="#DejaVuSans-Oblique-2212"/>
       <use xlink:href="#DejaVuSans-Oblique-30" transform="translate(83.789062 0)"/>
       <use xlink:href="#DejaVuSans-Oblique-2e" transform="translate(147.412109 0)"/>
       <use xlink:href="#DejaVuSans-Oblique-32" transform="translate(179.199219 0)"/>
      </g>
     </g>
    </g>
    <g id="ytick_3">
     <g id="line2d_15">
      <g>
       <use xlink:href="#m32a227974c" x="36" y="159.752727" style="stroke: #000000; stroke-width: 0.8"/>
      </g>
     </g>
     <g id="text_5">
      <!-- 0.0 -->
      <g transform="translate(13.096875 163.551946) scale(0.1 -0.1)">
       <use xlink:href="#DejaVuSans-Oblique-30"/>
       <use xlink:href="#DejaVuSans-Oblique-2e" transform="translate(63.623047 0)"/>
       <use xlink:href="#DejaVuSans-Oblique-30" transform="translate(95.410156 0)"/>
      </g>
     </g>
    </g>
    <g id="ytick_4">
     <g id="line2d_16">
      <g>
       <use xlink:href="#m32a227974c" x="36" y="126.807273" style="stroke: #000000; stroke-width: 0.8"/>
      </g>
     </g>
     <g id="text_6">
      <!-- 0.2 -->
      <g transform="translate(13.096875 130.606491) scale(0.1 -0.1)">
       <use xlink:href="#DejaVuSans-Oblique-30"/>
       <use xlink:href="#DejaVuSans-Oblique-2e" transform="translate(63.623047 0)"/>
       <use xlink:href="#DejaVuSans-Oblique-32" transform="translate(95.410156 0)"/>
      </g>
     </g>
    </g>
    <g id="ytick_5">
     <g id="line2d_17">
      <g>
       <use xlink:href="#m32a227974c" x="36" y="93.861818" style="stroke: #000000; stroke-width: 0.8"/>
      </g>
     </g>
     <g id="text_7">
      <!-- 0.4 -->
      <g transform="translate(13.096875 97.661037) scale(0.1 -0.1)">
       <use xlink:href="#DejaVuSans-Oblique-30"/>
       <use xlink:href="#DejaVuSans-Oblique-2e" transform="translate(63.623047 0)"/>
       <use xlink:href="#DejaVuSans-Oblique-34" transform="translate(95.410156 0)"/>
      </g>
     </g>
    </g>
    <g id="ytick_6">
     <g id="line2d_18">
      <g>
       <use xlink:href="#m32a227974c" x="36" y="60.916364" style="stroke: #000000; stroke-width: 0.8"/>
      </g>
     </g>
     <g id="text_8">
      <!-- 0.6 -->
      <g transform="translate(13.096875 64.715582) scale(0.1 -0.1)">
       <defs>
        <path id="DejaVuSans-Oblique-36" d="M 2938 1728 
Q 2938 2125 2734 2354 
Q 2531 2584 2181 2584 
Q 1697 2584 1367 2211 
Q 1038 1838 1038 1288 
Q 1038 875 1239 642 
Q 1441 409 1797 409 
Q 2284 409 2611 792 
Q 2938 1175 2938 1728 
z
M 3788 4556 
L 3681 3981 
Q 3500 4100 3265 4162 
Q 3031 4225 2766 4225 
Q 2119 4225 1726 3819 
Q 1334 3413 1141 2547 
Q 1369 2813 1670 2948 
Q 1972 3084 2322 3084 
Q 2894 3084 3233 2754 
Q 3572 2425 3572 1869 
Q 3572 1413 3405 1020 
Q 3238 628 2919 331 
Q 2700 128 2409 18 
Q 2119 -91 1791 -91 
Q 1147 -91 775 318 
Q 403 728 403 1441 
Q 403 2103 573 2717 
Q 744 3331 1050 3781 
Q 1372 4256 1830 4503 
Q 2288 4750 2841 4750 
Q 3084 4750 3321 4701 
Q 3559 4653 3788 4556 
z
" transform="scale(0.015625)"/>
       </defs>
       <use xlink:href="#DejaVuSans-Oblique-30"/>
       <use xlink:href="#DejaVuSans-Oblique-2e" transform="translate(63.623047 0)"/>
       <use xlink:href="#DejaVuSans-Oblique-36" transform="translate(95.410156 0)"/>
      </g>
     </g>
    </g>
    <g id="text_9">
     <!-- b value -->
     <g transform="translate(-1.3625 161.701094) rotate(-90) scale(0.1 -0.1)">
      <defs>
       <path id="DejaVuSans-Oblique-62" d="M 3169 2138 
Q 3169 2591 2961 2847 
Q 2753 3103 2388 3103 
Q 2122 3103 1889 2973 
Q 1656 2844 1484 2597 
Q 1303 2338 1198 1995 
Q 1094 1653 1094 1313 
Q 1094 881 1298 636 
Q 1503 391 1863 391 
Q 2134 391 2365 517 
Q 2597 644 2772 891 
Q 2950 1147 3059 1487 
Q 3169 1828 3169 2138 
z
M 1381 2969 
Q 1594 3256 1914 3420 
Q 2234 3584 2584 3584 
Q 3122 3584 3439 3221 
Q 3756 2859 3756 2241 
Q 3756 1734 3570 1259 
Q 3384 784 3041 416 
Q 2816 172 2522 40 
Q 2228 -91 1906 -91 
Q 1566 -91 1316 65 
Q 1066 222 909 531 
L 806 0 
L 231 0 
L 1178 4863 
L 1753 4863 
L 1381 2969 
z
" transform="scale(0.015625)"/>
       <path id="DejaVuSans-Oblique-76" d="M 459 3500 
L 1069 3500 
L 1581 525 
L 3256 3500 
L 3866 3500 
L 1875 0 
L 1100 0 
L 459 3500 
z
" transform="scale(0.015625)"/>
       <path id="DejaVuSans-Oblique-6c" d="M 1172 4863 
L 1747 4863 
L 800 0 
L 225 0 
L 1172 4863 
z
" transform="scale(0.015625)"/>
       <path id="DejaVuSans-Oblique-75" d="M 428 1388 
L 838 3500 
L 1416 3500 
L 1006 1409 
Q 975 1256 961 1147 
Q 947 1038 947 966 
Q 947 700 1109 554 
Q 1272 409 1569 409 
Q 2031 409 2368 721 
Q 2706 1034 2809 1563 
L 3194 3500 
L 3769 3500 
L 3091 0 
L 2516 0 
L 2631 550 
Q 2388 244 2052 76 
Q 1716 -91 1338 -91 
Q 878 -91 622 161 
Q 366 413 366 863 
Q 366 956 381 1097 
Q 397 1238 428 1388 
z
" transform="scale(0.015625)"/>
       <path id="DejaVuSans-Oblique-65" d="M 3078 2063 
Q 3088 2113 3092 2166 
Q 3097 2219 3097 2272 
Q 3097 2653 2873 2875 
Q 2650 3097 2266 3097 
Q 1838 3097 1509 2826 
Q 1181 2556 1013 2059 
L 3078 2063 
z
M 3578 1613 
L 903 1613 
Q 884 1494 878 1425 
Q 872 1356 872 1306 
Q 872 872 1139 634 
Q 1406 397 1894 397 
Q 2269 397 2603 481 
Q 2938 566 3225 728 
L 3116 159 
Q 2806 34 2476 -28 
Q 2147 -91 1806 -91 
Q 1078 -91 686 257 
Q 294 606 294 1247 
Q 294 1794 489 2264 
Q 684 2734 1063 3103 
Q 1306 3334 1642 3459 
Q 1978 3584 2356 3584 
Q 2950 3584 3301 3228 
Q 3653 2872 3653 2272 
Q 3653 2128 3634 1964 
Q 3616 1800 3578 1613 
z
" transform="scale(0.015625)"/>
      </defs>
      <use xlink:href="#DejaVuSans-Oblique-62"/>
      <use xlink:href="#DejaVuSans-Oblique-20" transform="translate(63.476562 0)"/>
      <use xlink:href="#DejaVuSans-Oblique-76" transform="translate(95.263672 0)"/>
      <use xlink:href="#DejaVuSans-Oblique-61" transform="translate(154.443359 0)"/>
      <use xlink:href="#DejaVuSans-Oblique-6c" transform="translate(215.722656 0)"/>
      <use xlink:href="#DejaVuSans-Oblique-75" transform="translate(243.505859 0)"/>
      <use xlink:href="#DejaVuSans-Oblique-65" transform="translate(306.884766 0)"/>
     </g>
    </g>
   </g>
   <g id="line2d_19">
    <path d="M 48.102455 175.773918 
" clip-path="url(#p9f1fa1d8e2)" style="fill: none; stroke: #000000; stroke-width: 1.5; stroke-linecap: square"/>
    <defs>
     <path id="ma9d093f1b8" d="M 0 2.5 
C 0.663008 2.5 1.29895 2.236584 1.767767 1.767767 
C 2.236584 1.29895 2.5 0.663008 2.5 0 
C 2.5 -0.663008 2.236584 -1.29895 1.767767 -1.767767 
C 1.29895 -2.236584 0.663008 -2.5 0 -2.5 
C -0.663008 -2.5 -1.29895 -2.236584 -1.767767 -1.767767 
C -2.236584 -1.29895 -2.5 -0.663008 -2.5 0 
C -2.5 0.663008 -2.236584 1.29895 -1.767767 1.767767 
C -1.29895 2.236584 -0.663008 2.5 0 2.5 
z
" style="stroke: #000000"/>
    </defs>
    <g clip-path="url(#p9f1fa1d8e2)">
     <use xlink:href="#ma9d093f1b8" x="48.102455" y="175.773918" style="stroke: #000000"/>
    </g>
   </g>
   <g id="line2d_20">
    <path d="M 51.291364 176.752731 
" clip-path="url(#p9f1fa1d8e2)" style="fill: none; stroke: #000000; stroke-width: 1.5; stroke-linecap: square"/>
    <defs>
     <path id="m624d72b397" d="M 0 5 
C 1.326016 5 2.597899 4.473168 3.535534 3.535534 
C 4.473168 2.597899 5 1.326016 5 0 
C 5 -1.326016 4.473168 -2.597899 3.535534 -3.535534 
C 2.597899 -4.473168 1.326016 -5 0 -5 
C -1.326016 -5 -2.597899 -4.473168 -3.535534 -3.535534 
C -4.473168 -2.597899 -5 -1.326016 -5 0 
C -5 1.326016 -4.473168 2.597899 -3.535534 3.535534 
C -2.597899 4.473168 -1.326016 5 0 5 
z
" style="stroke: #000000"/>
    </defs>
    <g clip-path="url(#p9f1fa1d8e2)">
     <use xlink:href="#m624d72b397" x="51.291364" y="176.752731" style="stroke: #000000"/>
    </g>
   </g>
   <g id="line2d_21">
    <path d="M 102.666558 171.188226 
" clip-path="url(#p9f1fa1d8e2)" style="fill: none; stroke: #000000; stroke-width: 1.5; stroke-linecap: square"/>
    <defs>
     <path id="m8414ef6be1" d="M -5 5 
L 5 5 
L 5 -5 
L -5 -5 
z
" style="stroke: #000000; stroke-linejoin: miter"/>
    </defs>
    <g clip-path="url(#p9f1fa1d8e2)">
     <use xlink:href="#m8414ef6be1" x="102.666558" y="171.188226" style="stroke: #000000; stroke-linejoin: miter"/>
    </g>
   </g>
   <g id="line2d_22">
    <path d="M 67.841876 195.849569 
" clip-path="url(#p9f1fa1d8e2)" style="fill: none; stroke: #000000; stroke-width: 1.5; stroke-linecap: square"/>
    <defs>
     <path id="m48a03e8945" d="M 0 -5 
L -1.12257 -1.545085 
L -4.755283 -1.545085 
L -1.816356 0.59017 
L -2.938926 4.045085 
L -0 1.90983 
L 2.938926 4.045085 
L 1.816356 0.59017 
L 4.755283 -1.545085 
L 1.12257 -1.545085 
z
" style="stroke: #000000; stroke-linejoin: bevel"/>
    </defs>
    <g clip-path="url(#p9f1fa1d8e2)">
     <use xlink:href="#m48a03e8945" x="67.841876" y="195.849569" style="stroke: #000000; stroke-linejoin: bevel"/>
    </g>
   </g>
   <g id="line2d_23">
    <path d="M 87.217229 215.65443 
" clip-path="url(#p9f1fa1d8e2)" style="fill: none; stroke: #000000; stroke-width: 1.5; stroke-linecap: square"/>
    <defs>
     <path id="mb3f4a0611b" d="M -0 7.071068 
L 4.242641 0 
L -0 -7.071068 
L -4.242641 -0 
z
" style="stroke: #000000; stroke-linejoin: miter"/>
    </defs>
    <g clip-path="url(#p9f1fa1d8e2)">
     <use xlink:href="#mb3f4a0611b" x="87.217229" y="215.65443" style="stroke: #000000; stroke-linejoin: miter"/>
    </g>
   </g>
   <g id="line2d_24">
    <path d="M 46.145455 167.65528 
" clip-path="url(#p9f1fa1d8e2)" style="fill: none; stroke: #000000; stroke-width: 1.5; stroke-linecap: square"/>
    <defs>
     <path id="m82f9141842" d="M -5 5 
L 5 -5 
M -5 -5 
L 5 5 
" style="stroke: #000000"/>
    </defs>
    <g clip-path="url(#p9f1fa1d8e2)">
     <use xlink:href="#m82f9141842" x="46.145455" y="167.65528" style="stroke: #000000"/>
    </g>
   </g>
   <g id="line2d_25">
    <path d="M 94.753479 213.76813 
" clip-path="url(#p9f1fa1d8e2)" style="fill: none; stroke: #000000; stroke-width: 1.5; stroke-linecap: square"/>
    <defs>
     <path id="m76a8e49cc2" d="M -0 5 
L 5 -5 
L -5 -5 
z
" style="stroke: #000000; stroke-linejoin: miter"/>
    </defs>
    <g clip-path="url(#p9f1fa1d8e2)">
     <use xlink:href="#m76a8e49cc2" x="94.753479" y="213.76813" style="stroke: #000000; stroke-linejoin: miter"/>
    </g>
   </g>
   <g id="line2d_26">
    <path d="M 197.68861 162.968416 
" clip-path="url(#p9f1fa1d8e2)" style="fill: none; stroke: #4c72b0; stroke-width: 1.5; stroke-linecap: square"/>
    <defs>
     <path id="m4252691a47" d="M 0 2.5 
C 0.663008 2.5 1.29895 2.236584 1.767767 1.767767 
C 2.236584 1.29895 2.5 0.663008 2.5 0 
C 2.5 -0.663008 2.236584 -1.29895 1.767767 -1.767767 
C 1.29895 -2.236584 0.663008 -2.5 0 -2.5 
C -0.663008 -2.5 -1.29895 -2.236584 -1.767767 -1.767767 
C -2.236584 -1.29895 -2.5 -0.663008 -2.5 0 
C -2.5 0.663008 -2.236584 1.29895 -1.767767 1.767767 
C -1.29895 2.236584 -0.663008 2.5 0 2.5 
z
" style="stroke: #4c72b0"/>
    </defs>
    <g clip-path="url(#p9f1fa1d8e2)">
     <use xlink:href="#m4252691a47" x="197.68861" y="162.968416" style="fill-opacity: 0; stroke: #4c72b0"/>
    </g>
   </g>
   <g id="line2d_27">
    <path d="M 185.604611 162.267105 
" clip-path="url(#p9f1fa1d8e2)" style="fill: none; stroke: #4c72b0; stroke-width: 1.5; stroke-linecap: square"/>
    <defs>
     <path id="m79e31d5f3b" d="M 0 5 
C 1.326016 5 2.597899 4.473168 3.535534 3.535534 
C 4.473168 2.597899 5 1.326016 5 0 
C 5 -1.326016 4.473168 -2.597899 3.535534 -3.535534 
C 2.597899 -4.473168 1.326016 -5 0 -5 
C -1.326016 -5 -2.597899 -4.473168 -3.535534 -3.535534 
C -4.473168 -2.597899 -5 -1.326016 -5 0 
C -5 1.326016 -4.473168 2.597899 -3.535534 3.535534 
C -2.597899 4.473168 -1.326016 5 0 5 
z
" style="stroke: #4c72b0"/>
    </defs>
    <g clip-path="url(#p9f1fa1d8e2)">
     <use xlink:href="#m79e31d5f3b" x="185.604611" y="162.267105" style="fill-opacity: 0; stroke: #4c72b0"/>
    </g>
   </g>
   <g id="line2d_28">
    <path d="M 249.054545 202.00777 
" clip-path="url(#p9f1fa1d8e2)" style="fill: none; stroke: #4c72b0; stroke-width: 1.5; stroke-linecap: square"/>
    <defs>
     <path id="m61fecc8a99" d="M -5 5 
L 5 5 
L 5 -5 
L -5 -5 
z
" style="stroke: #4c72b0; stroke-linejoin: miter"/>
    </defs>
    <g clip-path="url(#p9f1fa1d8e2)">
     <use xlink:href="#m61fecc8a99" x="249.054545" y="202.00777" style="fill-opacity: 0; stroke: #4c72b0; stroke-linejoin: miter"/>
    </g>
   </g>
   <g id="line2d_29">
    <path d="M 204.048503 216.376639 
" clip-path="url(#p9f1fa1d8e2)" style="fill: none; stroke: #4c72b0; stroke-width: 1.5; stroke-linecap: square"/>
    <defs>
     <path id="mc92f2bf925" d="M 0 -5 
L -1.12257 -1.545085 
L -4.755283 -1.545085 
L -1.816356 0.59017 
L -2.938926 4.045085 
L -0 1.90983 
L 2.938926 4.045085 
L 1.816356 0.59017 
L 4.755283 -1.545085 
L 1.12257 -1.545085 
z
" style="stroke: #4c72b0; stroke-linejoin: bevel"/>
    </defs>
    <g clip-path="url(#p9f1fa1d8e2)">
     <use xlink:href="#mc92f2bf925" x="204.048503" y="216.376639" style="fill-opacity: 0; stroke: #4c72b0; stroke-linejoin: bevel"/>
    </g>
   </g>
   <g id="line2d_30">
    <path d="M 202.102284 216.728908 
" clip-path="url(#p9f1fa1d8e2)" style="fill: none; stroke: #4c72b0; stroke-width: 1.5; stroke-linecap: square"/>
    <defs>
     <path id="mf89deefb27" d="M -0 7.071068 
L 4.242641 0 
L -0 -7.071068 
L -4.242641 -0 
z
" style="stroke: #4c72b0; stroke-linejoin: miter"/>
    </defs>
    <g clip-path="url(#p9f1fa1d8e2)">
     <use xlink:href="#mf89deefb27" x="202.102284" y="216.728908" style="fill-opacity: 0; stroke: #4c72b0; stroke-linejoin: miter"/>
    </g>
   </g>
   <g id="line2d_31">
    <path d="M 222.636282 158.059524 
" clip-path="url(#p9f1fa1d8e2)" style="fill: none; stroke: #4c72b0; stroke-width: 1.5; stroke-linecap: square"/>
    <defs>
     <path id="m1f43f325bd" d="M -5 5 
L 5 -5 
M -5 -5 
L 5 5 
" style="stroke: #4c72b0"/>
    </defs>
    <g clip-path="url(#p9f1fa1d8e2)">
     <use xlink:href="#m1f43f325bd" x="222.636282" y="158.059524" style="fill-opacity: 0; stroke: #4c72b0"/>
    </g>
   </g>
   <g id="line2d_32">
    <path d="M 220.260705 231.448434 
" clip-path="url(#p9f1fa1d8e2)" style="fill: none; stroke: #4c72b0; stroke-width: 1.5; stroke-linecap: square"/>
    <defs>
     <path id="mbf5f70caf5" d="M -0 5 
L 5 -5 
L -5 -5 
z
" style="stroke: #4c72b0; stroke-linejoin: miter"/>
    </defs>
    <g clip-path="url(#p9f1fa1d8e2)">
     <use xlink:href="#mbf5f70caf5" x="220.260705" y="231.448434" style="fill-opacity: 0; stroke: #4c72b0; stroke-linejoin: miter"/>
    </g>
   </g>
   <g id="line2d_33">
    <path d="M 115.470412 178.067625 
" clip-path="url(#p9f1fa1d8e2)" style="fill: none; stroke: #dd8452; stroke-width: 1.5; stroke-linecap: square"/>
    <defs>
     <path id="m0bbef7a72f" d="M 0 2.5 
C 0.663008 2.5 1.29895 2.236584 1.767767 1.767767 
C 2.236584 1.29895 2.5 0.663008 2.5 0 
C 2.5 -0.663008 2.236584 -1.29895 1.767767 -1.767767 
C 1.29895 -2.236584 0.663008 -2.5 0 -2.5 
C -0.663008 -2.5 -1.29895 -2.236584 -1.767767 -1.767767 
C -2.236584 -1.29895 -2.5 -0.663008 -2.5 0 
C -2.5 0.663008 -2.236584 1.29895 -1.767767 1.767767 
C -1.29895 2.236584 -0.663008 2.5 0 2.5 
z
" style="stroke: #dd8452"/>
    </defs>
    <g clip-path="url(#p9f1fa1d8e2)">
     <use xlink:href="#m0bbef7a72f" x="115.470412" y="178.067625" style="fill-opacity: 0; stroke: #dd8452"/>
    </g>
   </g>
   <g id="line2d_34">
    <path d="M 139.139113 188.930009 
" clip-path="url(#p9f1fa1d8e2)" style="fill: none; stroke: #dd8452; stroke-width: 1.5; stroke-linecap: square"/>
    <defs>
     <path id="mb2a8836ebe" d="M 0 5 
C 1.326016 5 2.597899 4.473168 3.535534 3.535534 
C 4.473168 2.597899 5 1.326016 5 0 
C 5 -1.326016 4.473168 -2.597899 3.535534 -3.535534 
C 2.597899 -4.473168 1.326016 -5 0 -5 
C -1.326016 -5 -2.597899 -4.473168 -3.535534 -3.535534 
C -4.473168 -2.597899 -5 -1.326016 -5 0 
C -5 1.326016 -4.473168 2.597899 -3.535534 3.535534 
C -2.597899 4.473168 -1.326016 5 0 5 
z
" style="stroke: #dd8452"/>
    </defs>
    <g clip-path="url(#p9f1fa1d8e2)">
     <use xlink:href="#mb2a8836ebe" x="139.139113" y="188.930009" style="fill-opacity: 0; stroke: #dd8452"/>
    </g>
   </g>
   <g id="line2d_35">
    <path d="M 128.587935 150.587926 
" clip-path="url(#p9f1fa1d8e2)" style="fill: none; stroke: #dd8452; stroke-width: 1.5; stroke-linecap: square"/>
    <defs>
     <path id="m2f01d856b6" d="M -5 5 
L 5 5 
L 5 -5 
L -5 -5 
z
" style="stroke: #dd8452; stroke-linejoin: miter"/>
    </defs>
    <g clip-path="url(#p9f1fa1d8e2)">
     <use xlink:href="#m2f01d856b6" x="128.587935" y="150.587926" style="fill-opacity: 0; stroke: #dd8452; stroke-linejoin: miter"/>
    </g>
   </g>
   <g id="line2d_36">
    <path d="M 166.321221 215.610297 
" clip-path="url(#p9f1fa1d8e2)" style="fill: none; stroke: #dd8452; stroke-width: 1.5; stroke-linecap: square"/>
    <defs>
     <path id="md42ae0a27b" d="M 0 -5 
L -1.12257 -1.545085 
L -4.755283 -1.545085 
L -1.816356 0.59017 
L -2.938926 4.045085 
L -0 1.90983 
L 2.938926 4.045085 
L 1.816356 0.59017 
L 4.755283 -1.545085 
L 1.12257 -1.545085 
z
" style="stroke: #dd8452; stroke-linejoin: bevel"/>
    </defs>
    <g clip-path="url(#p9f1fa1d8e2)">
     <use xlink:href="#md42ae0a27b" x="166.321221" y="215.610297" style="fill-opacity: 0; stroke: #dd8452; stroke-linejoin: bevel"/>
    </g>
   </g>
   <g id="line2d_37">
    <path d="M 178.529997 235.035789 
" clip-path="url(#p9f1fa1d8e2)" style="fill: none; stroke: #dd8452; stroke-width: 1.5; stroke-linecap: square"/>
    <defs>
     <path id="m8f7d226489" d="M -0 7.071068 
L 4.242641 0 
L -0 -7.071068 
L -4.242641 -0 
z
" style="stroke: #dd8452; stroke-linejoin: miter"/>
    </defs>
    <g clip-path="url(#p9f1fa1d8e2)">
     <use xlink:href="#m8f7d226489" x="178.529997" y="235.035789" style="fill-opacity: 0; stroke: #dd8452; stroke-linejoin: miter"/>
    </g>
   </g>
   <g id="line2d_38">
    <path d="M 123.751023 160.139631 
" clip-path="url(#p9f1fa1d8e2)" style="fill: none; stroke: #dd8452; stroke-width: 1.5; stroke-linecap: square"/>
    <defs>
     <path id="m23b63d5ee3" d="M -5 5 
L 5 -5 
M -5 -5 
L 5 5 
" style="stroke: #dd8452"/>
    </defs>
    <g clip-path="url(#p9f1fa1d8e2)">
     <use xlink:href="#m23b63d5ee3" x="123.751023" y="160.139631" style="fill-opacity: 0; stroke: #dd8452"/>
    </g>
   </g>
   <g id="line2d_39">
    <path d="M 164.605077 213.018282 
" clip-path="url(#p9f1fa1d8e2)" style="fill: none; stroke: #dd8452; stroke-width: 1.5; stroke-linecap: square"/>
    <defs>
     <path id="me6f0492c83" d="M -0 5 
L 5 -5 
L -5 -5 
z
" style="stroke: #dd8452; stroke-linejoin: miter"/>
    </defs>
    <g clip-path="url(#p9f1fa1d8e2)">
     <use xlink:href="#me6f0492c83" x="164.605077" y="213.018282" style="fill-opacity: 0; stroke: #dd8452; stroke-linejoin: miter"/>
    </g>
   </g>
   <g id="line2d_40">
    <path d="M 163.047692 187.575738 
" clip-path="url(#p9f1fa1d8e2)" style="fill: none; stroke: #55a868; stroke-width: 1.5; stroke-linecap: square"/>
    <defs>
     <path id="m0b80e75808" d="M 0 2.5 
C 0.663008 2.5 1.29895 2.236584 1.767767 1.767767 
C 2.236584 1.29895 2.5 0.663008 2.5 0 
C 2.5 -0.663008 2.236584 -1.29895 1.767767 -1.767767 
C 1.29895 -2.236584 0.663008 -2.5 0 -2.5 
C -0.663008 -2.5 -1.29895 -2.236584 -1.767767 -1.767767 
C -2.236584 -1.29895 -2.5 -0.663008 -2.5 0 
C -2.5 0.663008 -2.236584 1.29895 -1.767767 1.767767 
C -1.29895 2.236584 -0.663008 2.5 0 2.5 
z
" style="stroke: #55a868"/>
    </defs>
    <g clip-path="url(#p9f1fa1d8e2)">
     <use xlink:href="#m0b80e75808" x="163.047692" y="187.575738" style="fill-opacity: 0; stroke: #55a868"/>
    </g>
   </g>
   <g id="line2d_41">
    <path d="M 152.442287 183.476294 
" clip-path="url(#p9f1fa1d8e2)" style="fill: none; stroke: #55a868; stroke-width: 1.5; stroke-linecap: square"/>
    <defs>
     <path id="m87470a28cf" d="M 0 5 
C 1.326016 5 2.597899 4.473168 3.535534 3.535534 
C 4.473168 2.597899 5 1.326016 5 0 
C 5 -1.326016 4.473168 -2.597899 3.535534 -3.535534 
C 2.597899 -4.473168 1.326016 -5 0 -5 
C -1.326016 -5 -2.597899 -4.473168 -3.535534 -3.535534 
C -4.473168 -2.597899 -5 -1.326016 -5 0 
C -5 1.326016 -4.473168 2.597899 -3.535534 3.535534 
C -2.597899 4.473168 -1.326016 5 0 5 
z
" style="stroke: #55a868"/>
    </defs>
    <g clip-path="url(#p9f1fa1d8e2)">
     <use xlink:href="#m87470a28cf" x="152.442287" y="183.476294" style="fill-opacity: 0; stroke: #55a868"/>
    </g>
   </g>
   <g id="line2d_42">
    <path d="M 241.725518 234.979721 
" clip-path="url(#p9f1fa1d8e2)" style="fill: none; stroke: #55a868; stroke-width: 1.5; stroke-linecap: square"/>
    <defs>
     <path id="m7c8e656dcd" d="M -5 5 
L 5 5 
L 5 -5 
L -5 -5 
z
" style="stroke: #55a868; stroke-linejoin: miter"/>
    </defs>
    <g clip-path="url(#p9f1fa1d8e2)">
     <use xlink:href="#m7c8e656dcd" x="241.725518" y="234.979721" style="fill-opacity: 0; stroke: #55a868; stroke-linejoin: miter"/>
    </g>
   </g>
   <g id="line2d_43">
    <path d="M 129.407808 163.798797 
" clip-path="url(#p9f1fa1d8e2)" style="fill: none; stroke: #55a868; stroke-width: 1.5; stroke-linecap: square"/>
    <defs>
     <path id="m9f0907980b" d="M 0 -5 
L -1.12257 -1.545085 
L -4.755283 -1.545085 
L -1.816356 0.59017 
L -2.938926 4.045085 
L -0 1.90983 
L 2.938926 4.045085 
L 1.816356 0.59017 
L 4.755283 -1.545085 
L 1.12257 -1.545085 
z
" style="stroke: #55a868; stroke-linejoin: bevel"/>
    </defs>
    <g clip-path="url(#p9f1fa1d8e2)">
     <use xlink:href="#m9f0907980b" x="129.407808" y="163.798797" style="fill-opacity: 0; stroke: #55a868; stroke-linejoin: bevel"/>
    </g>
   </g>
   <g id="line2d_44">
    <path d="M 170.486692 193.459853 
" clip-path="url(#p9f1fa1d8e2)" style="fill: none; stroke: #55a868; stroke-width: 1.5; stroke-linecap: square"/>
    <defs>
     <path id="m2c39568c31" d="M -0 7.071068 
L 4.242641 0 
L -0 -7.071068 
L -4.242641 -0 
z
" style="stroke: #55a868; stroke-linejoin: miter"/>
    </defs>
    <g clip-path="url(#p9f1fa1d8e2)">
     <use xlink:href="#m2c39568c31" x="170.486692" y="193.459853" style="fill-opacity: 0; stroke: #55a868; stroke-linejoin: miter"/>
    </g>
   </g>
   <g id="line2d_45">
    <path d="M 167.307324 162.860921 
" clip-path="url(#p9f1fa1d8e2)" style="fill: none; stroke: #55a868; stroke-width: 1.5; stroke-linecap: square"/>
    <defs>
     <path id="mc8b810c144" d="M -5 5 
L 5 -5 
M -5 -5 
L 5 5 
" style="stroke: #55a868"/>
    </defs>
    <g clip-path="url(#p9f1fa1d8e2)">
     <use xlink:href="#mc8b810c144" x="167.307324" y="162.860921" style="fill-opacity: 0; stroke: #55a868"/>
    </g>
   </g>
   <g id="line2d_46">
    <path d="M 190.201186 200.19869 
" clip-path="url(#p9f1fa1d8e2)" style="fill: none; stroke: #55a868; stroke-width: 1.5; stroke-linecap: square"/>
    <defs>
     <path id="m7db390bbe7" d="M -0 5 
L 5 -5 
L -5 -5 
z
" style="stroke: #55a868; stroke-linejoin: miter"/>
    </defs>
    <g clip-path="url(#p9f1fa1d8e2)">
     <use xlink:href="#m7db390bbe7" x="190.201186" y="200.19869" style="fill-opacity: 0; stroke: #55a868; stroke-linejoin: miter"/>
    </g>
   </g>
   <g id="line2d_47">
    <path d="M 150.273509 182.041925 
" clip-path="url(#p9f1fa1d8e2)" style="fill: none; stroke: #c44e52; stroke-width: 1.5; stroke-linecap: square"/>
    <defs>
     <path id="mc75acd0f41" d="M 0 2.5 
C 0.663008 2.5 1.29895 2.236584 1.767767 1.767767 
C 2.236584 1.29895 2.5 0.663008 2.5 0 
C 2.5 -0.663008 2.236584 -1.29895 1.767767 -1.767767 
C 1.29895 -2.236584 0.663008 -2.5 0 -2.5 
C -0.663008 -2.5 -1.29895 -2.236584 -1.767767 -1.767767 
C -2.236584 -1.29895 -2.5 -0.663008 -2.5 0 
C -2.5 0.663008 -2.236584 1.29895 -1.767767 1.767767 
C -1.29895 2.236584 -0.663008 2.5 0 2.5 
z
" style="stroke: #c44e52"/>
    </defs>
    <g clip-path="url(#p9f1fa1d8e2)">
     <use xlink:href="#mc75acd0f41" x="150.273509" y="182.041925" style="fill-opacity: 0; stroke: #c44e52"/>
    </g>
   </g>
   <g id="line2d_48">
    <path d="M 187.537134 201.229539 
" clip-path="url(#p9f1fa1d8e2)" style="fill: none; stroke: #c44e52; stroke-width: 1.5; stroke-linecap: square"/>
    <defs>
     <path id="me44ba535a1" d="M 0 5 
C 1.326016 5 2.597899 4.473168 3.535534 3.535534 
C 4.473168 2.597899 5 1.326016 5 0 
C 5 -1.326016 4.473168 -2.597899 3.535534 -3.535534 
C 2.597899 -4.473168 1.326016 -5 0 -5 
C -1.326016 -5 -2.597899 -4.473168 -3.535534 -3.535534 
C -4.473168 -2.597899 -5 -1.326016 -5 0 
C -5 1.326016 -4.473168 2.597899 -3.535534 3.535534 
C -2.597899 4.473168 -1.326016 5 0 5 
z
" style="stroke: #c44e52"/>
    </defs>
    <g clip-path="url(#p9f1fa1d8e2)">
     <use xlink:href="#me44ba535a1" x="187.537134" y="201.229539" style="fill-opacity: 0; stroke: #c44e52"/>
    </g>
   </g>
   <g id="line2d_49">
    <path d="M 192.499872 153.311669 
" clip-path="url(#p9f1fa1d8e2)" style="fill: none; stroke: #c44e52; stroke-width: 1.5; stroke-linecap: square"/>
    <defs>
     <path id="mee9c9018e7" d="M -5 5 
L 5 5 
L 5 -5 
L -5 -5 
z
" style="stroke: #c44e52; stroke-linejoin: miter"/>
    </defs>
    <g clip-path="url(#p9f1fa1d8e2)">
     <use xlink:href="#mee9c9018e7" x="192.499872" y="153.311669" style="fill-opacity: 0; stroke: #c44e52; stroke-linejoin: miter"/>
    </g>
   </g>
   <g id="line2d_50">
    <path d="M 101.987791 159.825992 
" clip-path="url(#p9f1fa1d8e2)" style="fill: none; stroke: #c44e52; stroke-width: 1.5; stroke-linecap: square"/>
    <defs>
     <path id="m384af67c10" d="M 0 -5 
L -1.12257 -1.545085 
L -4.755283 -1.545085 
L -1.816356 0.59017 
L -2.938926 4.045085 
L -0 1.90983 
L 2.938926 4.045085 
L 1.816356 0.59017 
L 4.755283 -1.545085 
L 1.12257 -1.545085 
z
" style="stroke: #c44e52; stroke-linejoin: bevel"/>
    </defs>
    <g clip-path="url(#p9f1fa1d8e2)">
     <use xlink:href="#m384af67c10" x="101.987791" y="159.825992" style="fill-opacity: 0; stroke: #c44e52; stroke-linejoin: bevel"/>
    </g>
   </g>
   <g id="line2d_51">
    <path d="M 127.866707 177.823203 
" clip-path="url(#p9f1fa1d8e2)" style="fill: none; stroke: #c44e52; stroke-width: 1.5; stroke-linecap: square"/>
    <defs>
     <path id="mfaad071342" d="M -0 7.071068 
L 4.242641 0 
L -0 -7.071068 
L -4.242641 -0 
z
" style="stroke: #c44e52; stroke-linejoin: miter"/>
    </defs>
    <g clip-path="url(#p9f1fa1d8e2)">
     <use xlink:href="#mfaad071342" x="127.866707" y="177.823203" style="fill-opacity: 0; stroke: #c44e52; stroke-linejoin: miter"/>
    </g>
   </g>
   <g id="line2d_52">
    <path d="M 161.057767 164.739181 
" clip-path="url(#p9f1fa1d8e2)" style="fill: none; stroke: #c44e52; stroke-width: 1.5; stroke-linecap: square"/>
    <defs>
     <path id="maf98dc6714" d="M -5 5 
L 5 -5 
M -5 -5 
L 5 5 
" style="stroke: #c44e52"/>
    </defs>
    <g clip-path="url(#p9f1fa1d8e2)">
     <use xlink:href="#maf98dc6714" x="161.057767" y="164.739181" style="fill-opacity: 0; stroke: #c44e52"/>
    </g>
   </g>
   <g id="line2d_53">
    <path d="M 185.774511 204.004725 
" clip-path="url(#p9f1fa1d8e2)" style="fill: none; stroke: #c44e52; stroke-width: 1.5; stroke-linecap: square"/>
    <defs>
     <path id="m2c14fa6220" d="M -0 5 
L 5 -5 
L -5 -5 
z
" style="stroke: #c44e52; stroke-linejoin: miter"/>
    </defs>
    <g clip-path="url(#p9f1fa1d8e2)">
     <use xlink:href="#m2c14fa6220" x="185.774511" y="204.004725" style="fill-opacity: 0; stroke: #c44e52; stroke-linejoin: miter"/>
    </g>
   </g>
   <g id="line2d_54">
    <path d="M 93.814469 177.064204 
" clip-path="url(#p9f1fa1d8e2)" style="fill: none; stroke: #8172b3; stroke-width: 1.5; stroke-linecap: square"/>
    <defs>
     <path id="m4cf1274923" d="M 0 2.5 
C 0.663008 2.5 1.29895 2.236584 1.767767 1.767767 
C 2.236584 1.29895 2.5 0.663008 2.5 0 
C 2.5 -0.663008 2.236584 -1.29895 1.767767 -1.767767 
C 1.29895 -2.236584 0.663008 -2.5 0 -2.5 
C -0.663008 -2.5 -1.29895 -2.236584 -1.767767 -1.767767 
C -2.236584 -1.29895 -2.5 -0.663008 -2.5 0 
C -2.5 0.663008 -2.236584 1.29895 -1.767767 1.767767 
C -1.29895 2.236584 -0.663008 2.5 0 2.5 
z
" style="stroke: #8172b3"/>
    </defs>
    <g clip-path="url(#p9f1fa1d8e2)">
     <use xlink:href="#m4cf1274923" x="93.814469" y="177.064204" style="fill-opacity: 0; stroke: #8172b3"/>
    </g>
   </g>
   <g id="line2d_55">
    <path d="M 96.287004 178.170984 
" clip-path="url(#p9f1fa1d8e2)" style="fill: none; stroke: #8172b3; stroke-width: 1.5; stroke-linecap: square"/>
    <defs>
     <path id="m184301b9db" d="M 0 5 
C 1.326016 5 2.597899 4.473168 3.535534 3.535534 
C 4.473168 2.597899 5 1.326016 5 0 
C 5 -1.326016 4.473168 -2.597899 3.535534 -3.535534 
C 2.597899 -4.473168 1.326016 -5 0 -5 
C -1.326016 -5 -2.597899 -4.473168 -3.535534 -3.535534 
C -4.473168 -2.597899 -5 -1.326016 -5 0 
C -5 1.326016 -4.473168 2.597899 -3.535534 3.535534 
C -2.597899 4.473168 -1.326016 5 0 5 
z
" style="stroke: #8172b3"/>
    </defs>
    <g clip-path="url(#p9f1fa1d8e2)">
     <use xlink:href="#m184301b9db" x="96.287004" y="178.170984" style="fill-opacity: 0; stroke: #8172b3"/>
    </g>
   </g>
   <g id="line2d_56">
    <path d="M 135.706491 135.161054 
" clip-path="url(#p9f1fa1d8e2)" style="fill: none; stroke: #8172b3; stroke-width: 1.5; stroke-linecap: square"/>
    <defs>
     <path id="m9f2a12ebad" d="M -5 5 
L 5 5 
L 5 -5 
L -5 -5 
z
" style="stroke: #8172b3; stroke-linejoin: miter"/>
    </defs>
    <g clip-path="url(#p9f1fa1d8e2)">
     <use xlink:href="#m9f2a12ebad" x="135.706491" y="135.161054" style="fill-opacity: 0; stroke: #8172b3; stroke-linejoin: miter"/>
    </g>
   </g>
   <g id="line2d_57">
    <path d="M 71.861408 169.358208 
" clip-path="url(#p9f1fa1d8e2)" style="fill: none; stroke: #8172b3; stroke-width: 1.5; stroke-linecap: square"/>
    <defs>
     <path id="m2dbc1e9983" d="M 0 -5 
L -1.12257 -1.545085 
L -4.755283 -1.545085 
L -1.816356 0.59017 
L -2.938926 4.045085 
L -0 1.90983 
L 2.938926 4.045085 
L 1.816356 0.59017 
L 4.755283 -1.545085 
L 1.12257 -1.545085 
z
" style="stroke: #8172b3; stroke-linejoin: bevel"/>
    </defs>
    <g clip-path="url(#p9f1fa1d8e2)">
     <use xlink:href="#m2dbc1e9983" x="71.861408" y="169.358208" style="fill-opacity: 0; stroke: #8172b3; stroke-linejoin: bevel"/>
    </g>
   </g>
   <g id="line2d_58">
    <path d="M 94.249824 185.279818 
" clip-path="url(#p9f1fa1d8e2)" style="fill: none; stroke: #8172b3; stroke-width: 1.5; stroke-linecap: square"/>
    <defs>
     <path id="m8c529d6a71" d="M -0 7.071068 
L 4.242641 0 
L -0 -7.071068 
L -4.242641 -0 
z
" style="stroke: #8172b3; stroke-linejoin: miter"/>
    </defs>
    <g clip-path="url(#p9f1fa1d8e2)">
     <use xlink:href="#m8c529d6a71" x="94.249824" y="185.279818" style="fill-opacity: 0; stroke: #8172b3; stroke-linejoin: miter"/>
    </g>
   </g>
   <g id="line2d_59">
    <path d="M 101.701492 178.433407 
" clip-path="url(#p9f1fa1d8e2)" style="fill: none; stroke: #8172b3; stroke-width: 1.5; stroke-linecap: square"/>
    <defs>
     <path id="m27b8b4456b" d="M -5 5 
L 5 -5 
M -5 -5 
L 5 5 
" style="stroke: #8172b3"/>
    </defs>
    <g clip-path="url(#p9f1fa1d8e2)">
     <use xlink:href="#m27b8b4456b" x="101.701492" y="178.433407" style="fill-opacity: 0; stroke: #8172b3"/>
    </g>
   </g>
   <g id="line2d_60">
    <path d="M 112.043287 199.241828 
" clip-path="url(#p9f1fa1d8e2)" style="fill: none; stroke: #8172b3; stroke-width: 1.5; stroke-linecap: square"/>
    <defs>
     <path id="mcd1c173662" d="M -0 5 
L 5 -5 
L -5 -5 
z
" style="stroke: #8172b3; stroke-linejoin: miter"/>
    </defs>
    <g clip-path="url(#p9f1fa1d8e2)">
     <use xlink:href="#mcd1c173662" x="112.043287" y="199.241828" style="fill-opacity: 0; stroke: #8172b3; stroke-linejoin: miter"/>
    </g>
   </g>
   <g id="line2d_61">
    <path d="M 129.348096 179.145875 
" clip-path="url(#p9f1fa1d8e2)" style="fill: none; stroke: #937860; stroke-width: 1.5; stroke-linecap: square"/>
    <defs>
     <path id="m5461236fb9" d="M 0 2.5 
C 0.663008 2.5 1.29895 2.236584 1.767767 1.767767 
C 2.236584 1.29895 2.5 0.663008 2.5 0 
C 2.5 -0.663008 2.236584 -1.29895 1.767767 -1.767767 
C 1.29895 -2.236584 0.663008 -2.5 0 -2.5 
C -0.663008 -2.5 -1.29895 -2.236584 -1.767767 -1.767767 
C -2.236584 -1.29895 -2.5 -0.663008 -2.5 0 
C -2.5 0.663008 -2.236584 1.29895 -1.767767 1.767767 
C -1.29895 2.236584 -0.663008 2.5 0 2.5 
z
" style="stroke: #937860"/>
    </defs>
    <g clip-path="url(#p9f1fa1d8e2)">
     <use xlink:href="#m5461236fb9" x="129.348096" y="179.145875" style="fill-opacity: 0; stroke: #937860"/>
    </g>
   </g>
   <g id="line2d_62">
    <path d="M 128.988536 181.746132 
" clip-path="url(#p9f1fa1d8e2)" style="fill: none; stroke: #937860; stroke-width: 1.5; stroke-linecap: square"/>
    <defs>
     <path id="m7a637c815a" d="M 0 5 
C 1.326016 5 2.597899 4.473168 3.535534 3.535534 
C 4.473168 2.597899 5 1.326016 5 0 
C 5 -1.326016 4.473168 -2.597899 3.535534 -3.535534 
C 2.597899 -4.473168 1.326016 -5 0 -5 
C -1.326016 -5 -2.597899 -4.473168 -3.535534 -3.535534 
C -4.473168 -2.597899 -5 -1.326016 -5 0 
C -5 1.326016 -4.473168 2.597899 -3.535534 3.535534 
C -2.597899 4.473168 -1.326016 5 0 5 
z
" style="stroke: #937860"/>
    </defs>
    <g clip-path="url(#p9f1fa1d8e2)">
     <use xlink:href="#m7a637c815a" x="128.988536" y="181.746132" style="fill-opacity: 0; stroke: #937860"/>
    </g>
   </g>
   <g id="line2d_63">
    <path d="M 127.579015 171.267571 
" clip-path="url(#p9f1fa1d8e2)" style="fill: none; stroke: #937860; stroke-width: 1.5; stroke-linecap: square"/>
    <defs>
     <path id="mef31b245a6" d="M -5 5 
L 5 5 
L 5 -5 
L -5 -5 
z
" style="stroke: #937860; stroke-linejoin: miter"/>
    </defs>
    <g clip-path="url(#p9f1fa1d8e2)">
     <use xlink:href="#mef31b245a6" x="127.579015" y="171.267571" style="fill-opacity: 0; stroke: #937860; stroke-linejoin: miter"/>
    </g>
   </g>
   <g id="line2d_64">
    <path d="M 174.990309 205.755378 
" clip-path="url(#p9f1fa1d8e2)" style="fill: none; stroke: #937860; stroke-width: 1.5; stroke-linecap: square"/>
    <defs>
     <path id="m4a1735bcd7" d="M 0 -5 
L -1.12257 -1.545085 
L -4.755283 -1.545085 
L -1.816356 0.59017 
L -2.938926 4.045085 
L -0 1.90983 
L 2.938926 4.045085 
L 1.816356 0.59017 
L 4.755283 -1.545085 
L 1.12257 -1.545085 
z
" style="stroke: #937860; stroke-linejoin: bevel"/>
    </defs>
    <g clip-path="url(#p9f1fa1d8e2)">
     <use xlink:href="#m4a1735bcd7" x="174.990309" y="205.755378" style="fill-opacity: 0; stroke: #937860; stroke-linejoin: bevel"/>
    </g>
   </g>
   <g id="line2d_65">
    <path d="M 202.065579 227.25078 
" clip-path="url(#p9f1fa1d8e2)" style="fill: none; stroke: #937860; stroke-width: 1.5; stroke-linecap: square"/>
    <defs>
     <path id="mbf407316a1" d="M -0 7.071068 
L 4.242641 0 
L -0 -7.071068 
L -4.242641 -0 
z
" style="stroke: #937860; stroke-linejoin: miter"/>
    </defs>
    <g clip-path="url(#p9f1fa1d8e2)">
     <use xlink:href="#mbf407316a1" x="202.065579" y="227.25078" style="fill-opacity: 0; stroke: #937860; stroke-linejoin: miter"/>
    </g>
   </g>
   <g id="line2d_66">
    <path d="M 97.348413 168.745637 
" clip-path="url(#p9f1fa1d8e2)" style="fill: none; stroke: #937860; stroke-width: 1.5; stroke-linecap: square"/>
    <defs>
     <path id="m06a281dcbf" d="M -5 5 
L 5 -5 
M -5 -5 
L 5 5 
" style="stroke: #937860"/>
    </defs>
    <g clip-path="url(#p9f1fa1d8e2)">
     <use xlink:href="#m06a281dcbf" x="97.348413" y="168.745637" style="fill-opacity: 0; stroke: #937860"/>
    </g>
   </g>
   <g id="line2d_67">
    <path d="M 184.901083 210.62084 
" clip-path="url(#p9f1fa1d8e2)" style="fill: none; stroke: #937860; stroke-width: 1.5; stroke-linecap: square"/>
    <defs>
     <path id="m96a9bf6bec" d="M -0 5 
L 5 -5 
L -5 -5 
z
" style="stroke: #937860; stroke-linejoin: miter"/>
    </defs>
    <g clip-path="url(#p9f1fa1d8e2)">
     <use xlink:href="#m96a9bf6bec" x="184.901083" y="210.62084" style="fill-opacity: 0; stroke: #937860; stroke-linejoin: miter"/>
    </g>
   </g>
   <g id="LineCollection_1">
    <path d="M 71.626391 159.752727 
L 289 159.752727 
" clip-path="url(#p9f1fa1d8e2)" style="fill: none; stroke: #000000; stroke-width: 0.5"/>
   </g>
   <g id="LineCollection_2">
    <path d="M 287.432909 242.116364 
L 287.432909 44.443636 
" clip-path="url(#p9f1fa1d8e2)" style="fill: none; stroke: #000000; stroke-width: 0.5"/>
   </g>
   <g id="LineCollection_3">
    <path d="M 234.264106 242.116364 
L 234.264106 44.443636 
" clip-path="url(#p9f1fa1d8e2)" style="fill: none; stroke: #808080; stroke-width: 0.5"/>
   </g>
   <g id="patch_3">
    <path d="M 36 252 
L 36 34.56 
" style="fill: none; stroke: #000000; stroke-width: 0.8; stroke-linejoin: miter; stroke-linecap: square"/>
   </g>
   <g id="patch_4">
    <path d="M 259.2 252 
L 259.2 34.56 
" style="fill: none; stroke: #000000; stroke-width: 0.8; stroke-linejoin: miter; stroke-linecap: square"/>
   </g>
   <g id="patch_5">
    <path d="M 36 252 
L 259.2 252 
" style="fill: none; stroke: #000000; stroke-width: 0.8; stroke-linejoin: miter; stroke-linecap: square"/>
   </g>
   <g id="patch_6">
    <path d="M 36 34.56 
L 259.2 34.56 
" style="fill: none; stroke: #000000; stroke-width: 0.8; stroke-linejoin: miter; stroke-linecap: square"/>
   </g>
   <g id="legend_1">
    <g id="patch_7">
     <path d="M 198.484375 145.306875 
L 252.2 145.306875 
Q 254.2 145.306875 254.2 143.306875 
L 254.2 41.56 
Q 254.2 39.56 252.2 39.56 
L 198.484375 39.56 
Q 196.484375 39.56 196.484375 41.56 
L 196.484375 143.306875 
Q 196.484375 145.306875 198.484375 145.306875 
z
" style="fill: #ffffff; opacity: 0.8; stroke: #cccccc; stroke-linejoin: miter"/>
    </g>
    <g id="line2d_68">
     <path d="M 200.484375 47.658437 
L 210.484375 47.658437 
L 220.484375 47.658437 
" style="fill: none; stroke: #4c72b0; stroke-width: 1.5; stroke-linecap: square"/>
     <g>
      <use xlink:href="#m4252691a47" x="210.484375" y="47.658437" style="fill-opacity: 0; stroke: #4c72b0"/>
     </g>
    </g>
    <g id="text_10">
     <!-- Ca -->
     <g transform="translate(228.484375 51.158437) scale(0.1 -0.1)">
      <use xlink:href="#DejaVuSans-Oblique-43"/>
      <use xlink:href="#DejaVuSans-Oblique-61" transform="translate(69.824219 0)"/>
     </g>
    </g>
    <g id="line2d_69">
     <path d="M 200.484375 62.336563 
L 210.484375 62.336563 
L 220.484375 62.336563 
" style="fill: none; stroke: #4c72b0; stroke-width: 1.5; stroke-linecap: square"/>
     <g>
      <use xlink:href="#m79e31d5f3b" x="210.484375" y="62.336563" style="fill-opacity: 0; stroke: #4c72b0"/>
     </g>
    </g>
    <g id="text_11">
     <!-- Mg -->
     <g transform="translate(228.484375 65.836563) scale(0.1 -0.1)">
      <defs>
       <path id="DejaVuSans-Oblique-4d" d="M 1081 4666 
L 2028 4666 
L 2572 1522 
L 4378 4666 
L 5350 4666 
L 4441 0 
L 3828 0 
L 4622 4091 
L 2791 897 
L 2175 897 
L 1581 4103 
L 788 0 
L 172 0 
L 1081 4666 
z
" transform="scale(0.015625)"/>
       <path id="DejaVuSans-Oblique-67" d="M 3816 3500 
L 3219 434 
Q 3047 -456 2561 -893 
Q 2075 -1331 1253 -1331 
Q 950 -1331 690 -1286 
Q 431 -1241 206 -1147 
L 313 -588 
Q 525 -725 762 -790 
Q 1000 -856 1269 -856 
Q 1816 -856 2167 -557 
Q 2519 -259 2631 300 
L 2681 563 
Q 2441 288 2122 144 
Q 1803 0 1434 0 
Q 903 0 598 351 
Q 294 703 294 1319 
Q 294 1803 478 2267 
Q 663 2731 997 3091 
Q 1219 3328 1514 3456 
Q 1809 3584 2131 3584 
Q 2484 3584 2746 3420 
Q 3009 3256 3138 2956 
L 3238 3500 
L 3816 3500 
z
M 2950 2216 
Q 2950 2641 2750 2872 
Q 2550 3103 2181 3103 
Q 1953 3103 1747 3012 
Q 1541 2922 1394 2759 
Q 1156 2491 1023 2127 
Q 891 1763 891 1375 
Q 891 944 1092 712 
Q 1294 481 1672 481 
Q 2219 481 2584 976 
Q 2950 1472 2950 2216 
z
" transform="scale(0.015625)"/>
      </defs>
      <use xlink:href="#DejaVuSans-Oblique-4d"/>
      <use xlink:href="#DejaVuSans-Oblique-67" transform="translate(86.279297 0)"/>
     </g>
    </g>
    <g id="line2d_70">
     <path d="M 200.484375 77.014687 
L 210.484375 77.014687 
L 220.484375 77.014687 
" style="fill: none; stroke: #4c72b0; stroke-width: 1.5; stroke-linecap: square"/>
     <g>
      <use xlink:href="#m61fecc8a99" x="210.484375" y="77.014687" style="fill-opacity: 0; stroke: #4c72b0; stroke-linejoin: miter"/>
     </g>
    </g>
    <g id="text_12">
     <!-- K -->
     <g transform="translate(228.484375 80.514687) scale(0.1 -0.1)">
      <defs>
       <path id="DejaVuSans-Oblique-4b" d="M 1081 4666 
L 1716 4666 
L 1331 2700 
L 3781 4666 
L 4622 4666 
L 1850 2438 
L 3878 0 
L 3109 0 
L 1247 2272 
L 806 0 
L 172 0 
L 1081 4666 
z
" transform="scale(0.015625)"/>
      </defs>
      <use xlink:href="#DejaVuSans-Oblique-4b"/>
     </g>
    </g>
    <g id="line2d_71">
     <path d="M 200.484375 91.692813 
L 210.484375 91.692813 
L 220.484375 91.692813 
" style="fill: none; stroke: #4c72b0; stroke-width: 1.5; stroke-linecap: square"/>
     <g>
      <use xlink:href="#mc92f2bf925" x="210.484375" y="91.692813" style="fill-opacity: 0; stroke: #4c72b0; stroke-linejoin: bevel"/>
     </g>
    </g>
    <g id="text_13">
     <!-- Na -->
     <g transform="translate(228.484375 95.192813) scale(0.1 -0.1)">
      <defs>
       <path id="DejaVuSans-Oblique-4e" d="M 1081 4666 
L 1931 4666 
L 3219 666 
L 4000 4666 
L 4616 4666 
L 3706 0 
L 2853 0 
L 1569 4025 
L 788 0 
L 172 0 
L 1081 4666 
z
" transform="scale(0.015625)"/>
      </defs>
      <use xlink:href="#DejaVuSans-Oblique-4e"/>
      <use xlink:href="#DejaVuSans-Oblique-61" transform="translate(74.804688 0)"/>
     </g>
    </g>
    <g id="line2d_72">
     <path d="M 200.484375 106.370937 
L 210.484375 106.370937 
L 220.484375 106.370937 
" style="fill: none; stroke: #4c72b0; stroke-width: 1.5; stroke-linecap: square"/>
     <g>
      <use xlink:href="#mf89deefb27" x="210.484375" y="106.370937" style="fill-opacity: 0; stroke: #4c72b0; stroke-linejoin: miter"/>
     </g>
    </g>
    <g id="text_14">
     <!-- Cl -->
     <g transform="translate(228.484375 109.870937) scale(0.1 -0.1)">
      <use xlink:href="#DejaVuSans-Oblique-43"/>
      <use xlink:href="#DejaVuSans-Oblique-6c" transform="translate(69.824219 0)"/>
     </g>
    </g>
    <g id="line2d_73">
     <path d="M 200.484375 121.049062 
L 210.484375 121.049062 
L 220.484375 121.049062 
" style="fill: none; stroke: #4c72b0; stroke-width: 1.5; stroke-linecap: square"/>
     <g>
      <use xlink:href="#m1f43f325bd" x="210.484375" y="121.049062" style="fill-opacity: 0; stroke: #4c72b0"/>
     </g>
    </g>
    <g id="text_15">
     <!-- NO3 -->
     <g transform="translate(228.484375 124.549062) scale(0.1 -0.1)">
      <defs>
       <path id="DejaVuSans-Oblique-4f" d="M 2919 4238 
Q 2400 4238 2003 3986 
Q 1606 3734 1313 3219 
Q 1125 2891 1026 2522 
Q 928 2153 928 1778 
Q 928 1128 1239 775 
Q 1550 422 2119 422 
Q 2631 422 3032 676 
Q 3434 931 3719 1434 
Q 3909 1772 4009 2142 
Q 4109 2513 4109 2881 
Q 4109 3528 3796 3883 
Q 3484 4238 2919 4238 
z
M 2100 -91 
Q 1241 -91 748 418 
Q 256 928 256 1813 
Q 256 2319 448 2847 
Q 641 3375 978 3788 
Q 1375 4272 1862 4511 
Q 2350 4750 2938 4750 
Q 3794 4750 4287 4245 
Q 4781 3741 4781 2869 
Q 4781 2331 4593 1812 
Q 4406 1294 4056 872 
Q 3656 384 3173 146 
Q 2691 -91 2100 -91 
z
" transform="scale(0.015625)"/>
       <path id="DejaVuSans-Oblique-33" d="M 1013 4550 
Q 1356 4650 1679 4700 
Q 2003 4750 2316 4750 
Q 2934 4750 3296 4475 
Q 3659 4200 3659 3738 
Q 3659 3284 3373 2959 
Q 3088 2634 2584 2516 
Q 2978 2403 3162 2165 
Q 3347 1928 3347 1538 
Q 3347 1163 3167 834 
Q 2988 506 2650 269 
Q 2394 88 2037 -1 
Q 1681 -91 1216 -91 
Q 922 -91 622 -33 
Q 322 25 13 141 
L 128 738 
Q 422 575 720 495 
Q 1019 416 1331 416 
Q 1947 416 2330 733 
Q 2713 1050 2713 1556 
Q 2713 1881 2469 2057 
Q 2225 2234 1772 2234 
L 1228 2234 
L 1325 2747 
L 1900 2747 
Q 2419 2747 2717 2984 
Q 3016 3222 3016 3628 
Q 3016 3922 2797 4083 
Q 2578 4244 2181 4244 
Q 1881 4244 1567 4180 
Q 1253 4116 916 3988 
L 1013 4550 
z
" transform="scale(0.015625)"/>
      </defs>
      <use xlink:href="#DejaVuSans-Oblique-4e"/>
      <use xlink:href="#DejaVuSans-Oblique-4f" transform="translate(74.804688 0)"/>
      <use xlink:href="#DejaVuSans-Oblique-33" transform="translate(153.515625 0)"/>
     </g>
    </g>
    <g id="line2d_74">
     <path d="M 200.484375 135.727187 
L 210.484375 135.727187 
L 220.484375 135.727187 
" style="fill: none; stroke: #4c72b0; stroke-width: 1.5; stroke-linecap: square"/>
     <g>
      <use xlink:href="#mbf5f70caf5" x="210.484375" y="135.727187" style="fill-opacity: 0; stroke: #4c72b0; stroke-linejoin: miter"/>
     </g>
    </g>
    <g id="text_16">
     <!-- SO4 -->
     <g transform="translate(228.484375 139.227187) scale(0.1 -0.1)">
      <defs>
       <path id="DejaVuSans-Oblique-53" d="M 3859 4513 
L 3738 3897 
Q 3422 4066 3111 4152 
Q 2800 4238 2509 4238 
Q 1944 4238 1609 3991 
Q 1275 3744 1275 3334 
Q 1275 3109 1398 2989 
Q 1522 2869 2034 2731 
L 2413 2638 
Q 3053 2472 3303 2217 
Q 3553 1963 3553 1503 
Q 3553 797 2998 353 
Q 2444 -91 1538 -91 
Q 1166 -91 791 -17 
Q 416 56 38 206 
L 166 856 
Q 513 641 861 531 
Q 1209 422 1556 422 
Q 2147 422 2503 684 
Q 2859 947 2859 1369 
Q 2859 1650 2717 1795 
Q 2575 1941 2106 2059 
L 1728 2156 
Q 1081 2325 845 2545 
Q 609 2766 609 3163 
Q 609 3859 1145 4304 
Q 1681 4750 2541 4750 
Q 2875 4750 3203 4690 
Q 3531 4631 3859 4513 
z
" transform="scale(0.015625)"/>
      </defs>
      <use xlink:href="#DejaVuSans-Oblique-53"/>
      <use xlink:href="#DejaVuSans-Oblique-4f" transform="translate(63.476562 0)"/>
      <use xlink:href="#DejaVuSans-Oblique-34" transform="translate(142.1875 0)"/>
     </g>
    </g>
   </g>
  </g>
 </g>
 <defs>
  <clipPath id="p9f1fa1d8e2">
   <rect x="36" y="34.56" width="223.2" height="217.44"/>
  </clipPath>
 </defs>
</svg>
